<?xml version="1.0" encoding="UTF-8" standalone="no"?>
<svg width="150px" height="150px" viewBox="0 0 150 150" version="1.1" xmlns="http://www.w3.org/2000/svg" xmlns:xlink="http://www.w3.org/1999/xlink">
    <!-- Generator: Sketch 41.2 (35397) - http://www.bohemiancoding.com/sketch -->
    <title>cash invest  copy 38</title>
    <desc>Created with Sketch.</desc>
    <defs></defs>
    <g id="Page-1" stroke="none" stroke-width="1" fill="none" fill-rule="evenodd">
        <g id="cash-invest--copy-38">
            <path d="M146.463121,45.2327383 L138.227424,66.0523177 L133.74836,59.4777137 L73.2087578,95.6380359 L61.5053979,77.9687875 L10.3573807,108.650273 L4,99.1992798 L65.117546,62.4910739 L76.8209059,80.1603222 L127.246493,50.1636913 L122.911916,44 L146.463121,45.2327383 Z M20.4713954,134.126864 L35.4979315,134.126864 L35.4979315,103.582349 L20.4713954,112.62243 L20.4713954,134.126864 Z M44.4560588,98.2404833 L44.4560588,134.126864 L59.338109,134.126864 L59.338109,90.7070829 L58.6156794,89.6113155 L44.4560588,98.2404833 Z M68.2962363,108.513302 L68.2962363,134.263835 L83.3227725,134.263835 L83.3227725,99.4732216 L70.3190393,107.143593 L68.2962363,108.513302 Z M107.307436,134.126864 L107.307436,85.2282462 L92.2808998,94.1313558 L92.2808998,134.126864 L107.307436,134.126864 Z M116.265563,134.126864 L131.292099,134.126864 L131.292099,70.9832708 L116.265563,79.8863804 L116.265563,134.126864 Z" id="Shape" fill="#54BDBF"></path>
            <g id="noun_971-(1)" transform="translate(59.000000, 15.000000)" fill="#E2D63B">
                <path d="M3.79952277,0.00586164481 L37.8302719,0.00586164481 L37.8302719,0.0714387961 C35.8254846,2.93741675 34.6933416,4.46803875 34.4342383,4.66513656 L25.3426785,4.66513656 C26.5923081,6.02174098 27.4416132,7.67289305 27.889407,9.61969183 L37.5822447,9.61969183 C37.6997313,9.641673 37.7586723,9.68526899 37.7586723,9.75084614 C35.5889292,12.7695932 34.4805208,14.2786004 34.4338427,14.2786004 L28.1374341,14.2786004 C27.9962129,15.8319363 27.1939816,17.7025337 25.7319268,19.8892935 C23.797948,22.0987673 21.9470404,23.5312067 20.1780174,24.1877109 C16.8761312,25.6534885 13.7162574,26.3858277 10.6976048,26.3858277 L10.6976048,26.4514049 C10.6976048,26.6704839 17.5248785,34.1843798 31.1794258,48.9930927 L22.15907,48.9930927 C8.85816902,34.6221714 2.20771854,27.4035558 2.20771854,27.3379787 L2.20771854,22.9739841 L2.27852693,22.8098581 C3.45734816,22.9629935 4.8371228,23.0395613 6.41745528,23.0395613 C13.869346,23.0395613 18.5035375,20.7974821 20.3200298,16.3133239 C20.6028677,15.6568196 20.7440889,14.979067 20.7440889,14.2789668 L0.509899516,14.2789668 C0.415356472,14.2789668 0.368282738,14.2353708 0.368282738,14.1478124 C2.60843864,11.1290654 3.75205346,9.61969183 3.79952277,9.61969183 L19.8595774,9.61969183 L19.8595774,9.55411468 C18.9398595,7.82639488 17.1589692,6.48114739 14.5180932,5.51837223 C12.6307925,4.94979269 10.9329735,4.66513656 9.42424056,4.66513656 L0.439091127,4.66513656 L0.439091127,4.50101051 C2.60843864,1.5042446 3.72871438,0.00586164481 3.79952277,0.00586164481 Z" id="Shape"></path>
            </g>
        </g>
    </g>
</svg>