<?xml version="1.0" encoding="UTF-8" standalone="no"?>
<svg width="59px" height="59px" viewBox="0 0 59 59" version="1.1" xmlns="http://www.w3.org/2000/svg" xmlns:xlink="http://www.w3.org/1999/xlink">
    <!-- Generator: Sketch 41.2 (35397) - http://www.bohemiancoding.com/sketch -->
    <title>cash invest  copy 23</title>
    <desc>Created with Sketch.</desc>
    <defs></defs>
    <g id="tax-final-page--07/02/17" stroke="none" stroke-width="1" fill="none" fill-rule="evenodd">
        <g id="cash-invest--copy-23">
            <g id="Group-10" transform="translate(1.000000, 2.000000)">
                <circle id="Oval" fill="#F2F2F2" cx="28.5" cy="28.5" r="28.5"></circle>
                <g id="Group-9" transform="translate(11.000000, 14.000000)" fill="#56D27E">
                    <path d="M35.6003182,3.65341176 C35.5090909,5.613 35.4133636,7.57258824 35.3274545,9.53176471 C35.3115,9.89411765 35.2329545,10.2087059 34.8725455,10.4067647 C34.7604545,10.4681176 34.6626818,10.4940588 34.5747273,10.4940588 C34.3403182,10.4940588 34.1766818,10.3120588 34.0077273,10.142 C33.5376818,9.66847059 33.0692727,9.19370588 32.5971818,8.72264706 C32.5354091,8.66088235 32.4703636,8.60158824 32.4028636,8.54105882 L32.2044545,8.34135294 L31.5347727,9.01541176 L26.0120455,14.5742353 L25.5219545,15.0675294 L24.3122727,16.2847059 L18.6259091,22.0082353 L18.2990455,22.3372353 C18.0417273,22.5962353 17.7046364,22.7255294 17.3675455,22.7255294 C17.0304545,22.7255294 16.6933636,22.5962353 16.4360455,22.3372353 L16.1091818,22.0082353 L14.8999091,20.7910588 L9.21354545,15.0675294 L8.93577273,14.7879412 L2.97286364,20.7910588 C2.71554545,21.0500588 2.37845455,21.1793529 2.04136364,21.1793529 C1.70427273,21.1793529 1.36718182,21.0500588 1.10986364,20.7910588 L0.783,20.4620588 C0.268772727,19.9444706 0.268772727,19.1048824 0.783,18.5872941 L7.67863636,11.6465882 L8.0055,11.3175882 C8.26281818,11.0585882 8.59990909,10.9292941 8.937,10.9292941 C9.27409091,10.9292941 9.61118182,11.0585882 9.8685,11.3175882 L10.1953636,11.6465882 L11.4046364,12.8637647 L17.091,18.5872941 L17.3687727,18.8668824 L22.1236364,14.0809412 L23.3329091,12.8637647 L23.823,12.3704706 L29.3457273,6.81164706 L30.0260455,6.12688235 C29.4013636,5.52158824 28.7959091,4.89652941 28.1835,4.27847059 C27.9715909,4.06476471 27.7764545,3.85311765 27.9478636,3.48005882 C28.1188636,3.10782353 28.4228182,3.09011765 28.7345455,3.07529412 C30.7300909,2.97935294 32.7256364,2.88464706 34.7207727,2.792 C34.7522727,2.79035294 34.7829545,2.78994118 34.8128182,2.78994118 C35.3839091,2.78994118 35.6277273,3.06129412 35.6003182,3.65341176 Z M4.14940909,21.9748824 C3.87940909,22.2466471 3.56604545,22.4595294 3.22568182,22.6077647 L3.22568182,24.4611176 L3.22568182,27.5312353 C3.22568182,28.2633529 3.81559091,28.8571176 4.54295455,28.8571176 L7.50068182,28.8571176 C8.22804545,28.8571176 8.81795455,28.2633529 8.81795455,27.5312353 L8.81795455,24.4611176 L8.81795455,20.5534706 L8.81795455,17.4833529 C8.81795455,17.4178824 8.81181818,17.3544706 8.80281818,17.2914706 L4.14940909,21.9748824 Z M15.2603182,23.5210588 L14.9334545,23.1920588 L13.7241818,21.9748824 L11.1256364,19.3593529 C11.0106818,19.5561765 10.9431818,19.7847059 10.9431818,20.0297059 L10.9431818,20.5530588 L10.9431818,27.0074706 L10.9431818,27.5308235 C10.9431818,28.2629412 11.5330909,28.8567059 12.2604545,28.8567059 L15.2181818,28.8567059 C15.9455455,28.8567059 16.5354545,28.2629412 16.5354545,27.5308235 L16.5354545,27.0074706 L16.5354545,27.0074706 L16.5354545,24.2811765 C16.0584545,24.1424118 15.6211364,23.8842353 15.2603182,23.5210588 Z M19.8024545,23.1920588 L19.4755909,23.5210588 C19.2346364,23.7635882 18.9593182,23.9591765 18.6615,24.1037059 L18.6615,27.0078824 L18.6615,27.0078824 L18.6615,27.5312353 C18.6615,28.2633529 19.2514091,28.8571176 19.9787727,28.8571176 L22.9365,28.8571176 C23.6638636,28.8571176 24.2537727,28.2633529 24.2537727,27.5312353 L24.2537727,27.0078824 L24.2537727,20.5534706 L24.2537727,20.0301176 C24.2537727,19.6661176 24.1077273,19.3362941 23.8716818,19.0966471 L19.8024545,23.1920588 Z M27.1881818,15.7584706 L26.6980909,16.2517647 L26.3798182,16.5721176 L26.3798182,17.4833529 L26.3798182,18.1112941 L26.3798182,20.5534706 L26.3798182,21.1814118 L26.3798182,24.4607059 L26.3798182,27.5308235 C26.3798182,28.2629412 26.9697273,28.8567059 27.6970909,28.8567059 L30.6548182,28.8567059 C31.3821818,28.8567059 31.9720909,28.2629412 31.9720909,27.5308235 L31.9720909,24.4607059 L31.9720909,21.1814118 L31.9720909,20.5534706 L31.9720909,18.1112941 L31.9720909,17.4833529 L31.9720909,14.2040588 L31.9720909,11.1339412 C31.9720909,11.0738235 31.9667727,11.0149412 31.959,10.9568824 L27.1881818,15.7584706 Z" id="Shape"></path>
                    <path d="M21.3095097,1.44143738 L21.3095097,0 L12,0 L12,1.44160625 L15.7159187,1.44160625 C16.0516248,1.5918967 17.0471669,2.10592381 17.4261574,3.04346602 L12,3.04346602 L12,4.48507227 L17.4741394,4.48507227 C16.7643081,6.96435809 12.9146774,7.0075877 12.8755872,7.00775656 L12.3276531,8.19251812 L18.0167048,15 L19.1125728,14.0720831 L14.2960885,8.30886657 C15.9340186,8.02128833 18.4567632,7.14605755 18.9443004,4.48490341 L21.3095097,4.48490341 L21.3095097,3.04329716 L18.9245036,3.04329716 C18.7827387,2.41680551 18.4740434,1.88234566 18.0940463,1.44143738 L21.3095097,1.44143738 Z" id="Shape"></path>
                </g>
            </g>
        </g>
    </g>
</svg>