<?xml version="1.0" encoding="UTF-8"?>
<svg width="8px" height="10px" viewBox="0 0 8 10" version="1.1" xmlns="http://www.w3.org/2000/svg" xmlns:xlink="http://www.w3.org/1999/xlink">
    <!-- Generator: Sketch 43.1 (39012) - http://www.bohemiancoding.com/sketch -->
    <title>cash invest  copy 36</title>
    <desc>Created with Sketch.</desc>
    <defs></defs>
    <g id="Page-1" stroke="none" stroke-width="1" fill="none" fill-rule="evenodd">
        <g id="cash-invest--copy-36" fill-rule="nonzero">
            <g id="Group-6">
                <path d="M3.54435276,2.52096071e-14 C2.4358961,2.52096071e-14 1.53601713,0.84447548 1.53601713,1.88484142 L1.53601713,3.10444469 C1.53536597,3.18407801 1.58025693,3.25792515 1.65362847,3.29791928 C1.72700002,3.33791341 1.81758589,3.33791341 1.89095744,3.29791928 C1.96432899,3.25792515 2.00921995,3.18407801 2.00856878,3.10444469 L2.00856878,1.88484142 C2.00856878,1.08249769 2.68949728,0.443492099 3.54435276,0.443492099 C4.39920824,0.443492099 5.08014856,1.08249769 5.08014856,1.88484142 L5.08014856,3.10444469 C5.07926152,3.18422196 5.1240993,3.25829805 5.197566,3.29842895 C5.2710327,3.33855986 5.36180424,3.33855986 5.43527094,3.29842895 C5.50873764,3.25829805 5.55357543,3.18422196 5.55268839,3.10444469 L5.55268839,1.88484142 C5.55268839,0.84447548 4.65282124,0 3.54435276,0 L3.54435276,2.52096071e-14 Z M0.236502949,2.21746049 L0.000233034343,9.09158914 C-0.00815496704,9.3371618 0.211043593,9.53508123 0.472784678,9.53508123 L3.89707118,9.53508123 C3.491029,9.21133585 3.27930314,7.9683583 3.32280183,7.57250781 C3.42610123,6.63245379 4.22447409,5.55591136 5.54996891,5.53909289 C5.77089044,5.53628974 6.47653879,5.9353142 6.7884567,6.22086113 L6.85220245,2.21745939 C6.84381445,1.97189781 6.64139189,1.77396729 6.37965081,1.77396729 L5.78897012,1.77396729 L5.78897012,2.66441072 C5.86266639,2.75692317 5.90709917,2.8691932 5.90709917,2.99357056 C5.90709917,3.29973533 5.64259358,3.54793568 5.31641847,3.54793568 C4.99023154,3.54793568 4.72572596,3.29973533 4.72572596,2.99357056 C4.72572596,2.8691932 4.77017056,2.75692317 4.84386683,2.66441072 L4.84386683,1.77396729 L2.24483869,1.77396729 L2.24483869,2.66441072 C2.31853496,2.75692317 2.36297956,2.8691932 2.36297956,2.99357056 C2.36297956,3.29973533 2.09848579,3.54793568 1.77229886,3.54793568 C1.44610012,3.54793568 1.18160636,3.29973533 1.18160636,2.99357056 C1.18160636,2.8691932 1.22605095,2.75692317 1.29974722,2.66441072 L1.29974722,1.77396729 L0.709054593,1.77396729 C0.447325322,1.7739684 0.244938207,1.97189892 0.236502949,2.21746049 Z" id="Shape" fill="#53ADD0"></path>
                <path d="M5.44448437,5.38461538 C4.03307309,5.38461538 2.88896874,6.41782692 2.88896874,7.69230769 C2.88896874,8.96684615 4.03307309,10 5.44448437,10 C6.85589565,10 8,8.96684615 8,7.69230769 C8,6.41782692 6.85589565,5.38461538 5.44448437,5.38461538 Z M6.77041365,7.87259615 L5.64413403,7.87259615 L5.64413403,8.88965385 C5.64413403,8.98940385 5.55469098,9.07 5.44448437,9.07 C5.33402221,9.07 5.24464305,8.98940385 5.24464305,8.88965385 L5.24464305,7.87259615 L4.11855508,7.87259615 C4.00815681,7.87259615 3.91884154,7.79194231 3.91884154,7.69225 C3.91884154,7.59267308 4.00815681,7.51184615 4.11855508,7.51184615 L5.24470693,7.51184615 L5.24470693,6.49490385 C5.24470693,6.39526923 5.33402221,6.31461538 5.44454826,6.31461538 C5.55469098,6.31461538 5.64419792,6.39526923 5.64419792,6.49490385 L5.64419792,7.51184615 L6.77041365,7.51184615 C6.88062027,7.51184615 6.97006331,7.59267308 6.97006331,7.69225 C6.97006331,7.79194231 6.88062027,7.87259615 6.77041365,7.87259615 Z" id="Shape" fill="#585858"></path>
            </g>
        </g>
    </g>
</svg>