<?xml version="1.0" encoding="UTF-8" standalone="no"?>
<svg width="277px" height="279px" viewBox="0 0 277 279" version="1.1" xmlns="http://www.w3.org/2000/svg" xmlns:xlink="http://www.w3.org/1999/xlink">
    <!-- Generator: Sketch 41.2 (35397) - http://www.bohemiancoding.com/sketch -->
    <title>CHECK YOUR KYC STATUS  Copy 27</title>
    <desc>Created with Sketch.</desc>
    <defs></defs>
    <g id="Page-1" stroke="none" stroke-width="1" fill="none" fill-rule="evenodd">
        <g id="CHECK-YOUR-KYC-STATUS--Copy-27">
            <circle id="Oval-2" fill="#F2F2F2" cx="138.5" cy="139.5" r="137.5"></circle>
            <path d="M227.763113,102.339209 L216.358221,170.768562 C215.902025,173.04954 214.077242,174.646225 211.796264,174.646225 L101.396908,174.646225 L103.677887,186.051117 L204.953329,186.051117 C210.883873,186.051117 210.883873,195.175031 204.953329,195.175031 L100.028321,195.175031 C97.7473428,195.175031 95.9225601,193.578346 95.4663644,191.525465 C80.6400046,118.762254 75.1656564,91.8467084 73.3408737,83.4070882 L49.846796,83.4070882 C43.9162521,83.4070882 43.9162521,74.2831745 49.846796,74.2831745 L77.218537,74.2831745 C79.4995154,74.2831745 81.3242982,75.8798594 81.7804939,77.93274 L85.6581572,97.0929587 C234.149852,97.0929587 224.797841,96.4086652 226.850721,98.6896436 C227.535015,99.8301328 227.991211,100.970622 227.763113,102.339209 M111.944269,209.283175 C105.101334,209.283175 99.398888,214.985621 99.398888,221.828556 C99.398888,228.671491 105.101334,234.373937 111.944269,234.373937 C118.787205,234.373937 124.489651,228.671491 124.489651,221.828556 C124.489651,214.985621 118.787205,209.283175 111.944269,209.283175 M197.944269,209.283175 C191.101334,209.283175 185.398888,214.985621 185.398888,221.828556 C185.398888,228.671491 191.101334,234.373937 197.944269,234.373937 C204.787205,234.373937 210.489651,228.671491 210.489651,221.828556 C210.489651,214.985621 204.787205,209.283175 197.944269,209.283175" id="Shape" fill="#7C7C7C" transform="translate(136.610668, 154.328556) rotate(-9.000000) translate(-136.610668, -154.328556) "></path>
            <ellipse id="Oval" fill="#FFFFFF" cx="209" cy="80" rx="32" ry="32"></ellipse>
            <text id="0" font-family="Roboto-Medium, Roboto" font-size="58" font-weight="400" fill="#52ACD0">
                <tspan x="193" y="99">0</tspan>
            </text>
        </g>
    </g>
</svg>