<?xml version="1.0" encoding="UTF-8" standalone="no"?>
<svg width="55px" height="55px" viewBox="0 0 55 55" version="1.1" xmlns="http://www.w3.org/2000/svg" xmlns:xlink="http://www.w3.org/1999/xlink">
    <!-- Generator: Sketch 41.2 (35397) - http://www.bohemiancoding.com/sketch -->
    <title>CHECK YOUR KYC STATUS  Copy 21</title>
    <desc>Created with Sketch.</desc>
    <defs></defs>
    <g id="Page-3" stroke="none" stroke-width="1" fill="none" fill-rule="evenodd">
        <g id="CHECK-YOUR-KYC-STATUS--Copy-21" fill="#53ADD0">
            <path d="M9.34453355,48.1554665 L5,52.5 L5,42.5 L15,42.5 L11.1163078,46.3836922 C15.5040041,50.193786 21.2326795,52.5 27.5,52.5 C41.3071187,52.5 52.5,41.3071187 52.5,27.5 C52.5,23.8316345 51.709902,20.3478063 50.2905952,17.2094047 L52.168227,15.331773 C53.9812037,19.0001521 55,23.1310997 55,27.5 C55,42.6878305 42.6878305,55 27.5,55 C20.5422493,55 14.1880079,52.4160695 9.34453355,48.1554665 Z M45.6554665,6.84453355 L50,2.5 L50,12.5 L40,12.5 L43.8836922,8.61630778 C39.495996,4.8062139 33.7673205,2.5 27.5,2.5 C13.6928812,2.5 2.5,13.6928813 2.5,27.5 C2.5,31.1683655 3.29009802,34.6521938 4.70940472,37.7905953 L2.83177297,39.668227 C1.01879627,35.999848 0,31.8689003 0,27.5 C0,12.3121694 12.3121694,0 27.5,0 C34.4577507,0 40.811992,2.58393043 45.6554665,6.84453355 Z M36.9114285,13.75 C37.22,13.75 37.5,14.0494445 37.5,14.3763889 L37.5,17.5022222 C37.5,17.8261111 37.22,18.1255556 36.9114285,18.1255556 L36.02,18.1255556 C36.02,18.1255556 36.0285715,19.6838889 36.0285715,19.6869445 C36.0285715,21.7005556 35.0485715,23.3902778 33.8142857,24.756111 C32.8057142,25.871389 31.6542857,26.7483333 30.5971427,27.5 C31.6542857,28.2516668 32.8085715,29.1194445 33.8142857,30.2347223 C35.0485715,31.6005555 36.0285715,33.2994445 36.0285715,35.3130555 L36.02,36.8744445 L36.9114285,36.8744445 C37.22,36.8744445 37.5,37.173889 37.5,37.4977778 L37.5,40.623611 C37.5,40.9505555 37.22,41.25 36.9114285,41.25 L18.0885714,41.25 C17.78,41.25 17.5,40.9505555 17.5,40.623611 L17.5,37.4977778 C17.5,37.173889 17.78,36.8744445 18.0885714,36.8744445 L18.98,36.8744445 L18.9714286,35.3130555 C18.9714286,33.2994445 19.9514286,31.6005555 21.1857143,30.2347223 C22.1914286,29.1194445 23.3457142,28.2516668 24.4028572,27.5 C23.3457142,26.7483333 22.1942857,25.871389 21.1857143,24.756111 C19.9514286,23.3902778 18.9714286,21.7005556 18.9714286,19.6869445 C18.9714286,19.6838889 18.98,18.1255556 18.98,18.1255556 L18.0885714,18.1255556 C17.78,18.1255556 17.5,17.8261111 17.5,17.5022222 L17.5,14.3763889 C17.5,14.0677778 17.7457143,13.7805556 18.0885714,13.75 L36.9114285,13.75 Z M27.5,28.75 L25.8312342,29.9188742 C24.7827455,30.6506622 23.693325,31.4586092 22.8054155,32.4254967 C21.7600756,33.5645695 21.25,34.6109272 21.25,35.6274835 L21.2594458,37.2996687 L21.2688917,38.75 L33.734257,38.75 L33.7405542,37.2996687 L33.75,35.6043047 C33.75,34.6109272 33.2399245,33.5645695 32.1945845,32.4221855 C31.306675,31.4586092 30.2172545,30.6506622 29.1687657,29.9188742 L27.5,28.75 Z M33.734257,16.25 L21.2688917,16.25 L21.2594458,17.7008115 L21.25,19.393425 C21.25,20.3805068 21.7569269,21.427211 22.8054155,22.5666613 C23.724811,23.5669925 24.8488665,24.3983935 25.8280857,25.084051 L27.5,26.25 L29.1719142,25.084051 C30.1511335,24.3983935 31.275189,23.5669925 32.1945845,22.5666613 C33.243073,21.427211 33.75,20.3805068 33.75,19.3735509 L33.7405542,17.7008115 L33.734257,16.25 Z" id="Shape"></path>
        </g>
    </g>
</svg>