<?xml version="1.0" encoding="UTF-8" standalone="no"?>
<svg width="100px" height="100px" viewBox="0 0 100 100" version="1.1" xmlns="http://www.w3.org/2000/svg" xmlns:xlink="http://www.w3.org/1999/xlink">
    <!-- Generator: Sketch 41.2 (35397) - http://www.bohemiancoding.com/sketch -->
    <title>CHECK YOUR KYC STATUS  Copy 6</title>
    <desc>Created with Sketch.</desc>
    <defs></defs>
    <g id="Page-1" stroke="none" stroke-width="1" fill="none" fill-rule="evenodd">
        <g id="CHECK-YOUR-KYC-STATUS--Copy-6">
            <g id="cash-invest-copy-31" transform="translate(1.000000, 1.000000)">
                <g id="Group">
                    <path d="M40.9257981,76.5934426 C40.7751511,77.2016662 40.6998274,77.7338619 40.6998274,78.4181134 C40.6998274,82.2955388 43.8634167,85.4887126 47.704918,85.4887126 C51.5464194,85.4887126 54.7100087,82.2955388 54.7100087,78.4181134 C54.7100087,77.8098899 54.634685,77.2016662 54.484038,76.5934426 L40.9257981,76.5934426 Z" id="Shape" fill="#7C7C7C"></path>
                    <path d="M76.1772218,68.7625638 C76.1018981,68.1543402 75.8759276,67.6221446 75.4993098,67.1659768 C75.4239861,67.0899489 69.3981019,60.4755173 69.3981019,42.9890889 C69.3981019,29.3800861 60.3592752,23.6779898 52.9022434,21.929347 L52.9022434,17.9758936 C52.9022434,15.1628595 50.5672131,12.805993 47.7802416,12.805993 C44.99327,12.805993 42.5829164,15.1628595 42.5829164,17.9758936 L42.5829164,22.0053749 C35.1258844,23.7540177 26.0870578,29.3800861 26.0870578,43.0651169 C26.0870578,60.5515452 20.0611734,67.1659768 19.9858499,67.1659768 C19.5339085,67.6221446 19.3079379,68.1543402 19.2326143,68.7625638 L19.2326143,68.7625638 L19.2326143,73.5523247 L76.1772218,73.5523247 L76.1772218,68.7625638 L76.1772218,68.7625638 Z" id="Shape" fill="#7C7C7C"></path>
                    <circle id="Oval-6" stroke="#979797" cx="48.5" cy="48.5" r="48.5"></circle>
                </g>
            </g>
        </g>
    </g>
</svg>