<?xml version="1.0" encoding="UTF-8" standalone="no"?>
<svg width="55px" height="55px" viewBox="0 0 55 55" version="1.1" xmlns="http://www.w3.org/2000/svg" xmlns:xlink="http://www.w3.org/1999/xlink">
    <!-- Generator: Sketch 41.2 (35397) - http://www.bohemiancoding.com/sketch -->
    <title>CHECK YOUR KYC STATUS  Copy 21</title>
    <desc>Created with Sketch.</desc>
    <defs></defs>
    <g id="Page-3" stroke="none" stroke-width="1" fill="none" fill-rule="evenodd">
        <g id="CHECK-YOUR-KYC-STATUS--Copy-21" fill="#000000">
            <g id="Group-6">
                <path d="M27.5,0 C12.333882,0 0,12.3338722 0,27.5 C0,42.6661278 12.333882,55 27.5,55 C42.666118,55 55,42.6661278 55,27.5 C55,12.3338722 42.666118,0 27.5,0 Z M27.5,3.66666667 C40.6845047,3.66666667 51.3333333,14.3154856 51.3333333,27.5 C51.3333333,40.6844778 40.6845047,51.3333333 27.5,51.3333333 C14.3154953,51.3333333 3.66666667,40.6844778 3.66666667,27.5 C3.66666667,14.3154856 14.3154953,3.66666667 27.5,3.66666667 Z M41.9565972,15.2586806 C41.5411214,15.3134628 41.1569494,15.5089187 40.8680556,15.8125 L21.3888889,35.2916667 L14.1319444,28.0347222 C13.6826871,27.5202199 12.9846776,27.2980952 12.3206992,27.4583369 C11.6567207,27.6185787 11.1368571,28.1346198 10.9717196,28.7973976 C10.806582,29.4601754 11.0235494,30.1598051 11.5347222,30.6128472 L20.0902778,39.1684028 C20.4342997,39.513552 20.9015706,39.7075499 21.3888889,39.7075499 C21.8762071,39.7075499 22.3434781,39.513552 22.6875,39.1684028 L43.4652778,18.390625 C44.0292923,17.8406606 44.17897,16.991889 43.8370952,16.2821744 C43.4952205,15.5724597 42.7382129,15.1604451 41.9565972,15.2586806 Z" id="Shape"></path>
            </g>
        </g>
    </g>
</svg>