<?xml version="1.0" encoding="UTF-8" standalone="no"?>
<svg width="17px" height="17px" viewBox="0 0 17 17" version="1.1" xmlns="http://www.w3.org/2000/svg" xmlns:xlink="http://www.w3.org/1999/xlink">
    <!-- Generator: Sketch 41.2 (35397) - http://www.bohemiancoding.com/sketch -->
    <title>Group 2</title>
    <desc>Created with Sketch.</desc>
    <defs></defs>
    <g id="Page-1" stroke="none" stroke-width="1" fill="none" fill-rule="evenodd">
        <g id="CHECK-YOUR-KYC-STATUS--Copy-9" fill="#626262">
            <g id="Group-2">
                <path d="M11.77607,7.15445 C10.7661,5.94099 9.75596,4.72753 8.74599,3.51407 C8.6717,3.42499 8.58432,3.39252 8.5,3.3983 C8.41568,3.39252 8.32813,3.42499 8.25401,3.51407 C7.24404,4.72736 6.2339,5.94099 5.22393,7.15445 C5.03693,7.37868 5.14556,7.74843 5.46975,7.74843 L6.74118,7.74843 L6.74118,13.25405 C6.74118,13.44377 6.89945,13.60204 7.08917,13.60204 L9.91083,13.60204 C10.10055,13.60204 10.25882,13.44377 10.25882,13.25405 L10.25882,7.74843 L11.53025,7.74843 C11.85444,7.74843 11.96307,7.37868 11.77607,7.15445 Z" id="Shape"></path>
                <path d="M8.5,0 C3.80562,0 0,3.80562 0,8.5 C0,13.19438 3.80562,17 8.5,17 C13.19438,17 17,13.19438 17,8.5 C17,3.80562 13.19438,0 8.5,0 Z M8.5,15.64 C4.55668,15.64 1.36,12.44315 1.36,8.5 C1.36,4.55668 4.55668,1.36 8.5,1.36 C12.44315,1.36 15.64,4.55668 15.64,8.5 C15.64,12.44315 12.44315,15.64 8.5,15.64 Z" id="Shape"></path>
            </g>
        </g>
    </g>
</svg>