<?xml version="1.0" encoding="UTF-8" standalone="no"?>
<svg width="43px" height="42px" viewBox="0 0 43 42" version="1.1" xmlns="http://www.w3.org/2000/svg" xmlns:xlink="http://www.w3.org/1999/xlink">
    <!-- Generator: Sketch 41.2 (35397) - http://www.bohemiancoding.com/sketch -->
    <title>Landing page  Copy 36</title>
    <desc>Created with Sketch.</desc>
    <defs></defs>
    <g id="final-new-" stroke="none" stroke-width="1" fill="none" fill-rule="evenodd">
        <g id="Landing-page--Copy-36" fill="#53ADD0">
            <g id="Group-19" transform="translate(1.000000, 1.000000)">
                <path d="M29.7731959,31.939 L29.7731959,31.324 C29.7319588,31.078 29.6907216,30.791 29.6082474,30.586 L29.6082474,30.545 C30.7628866,29.889 33.0721649,28.782 34.3505155,28.29 C34.9690722,28.044 35.5876289,28.044 36.1649485,28.454 C35.7113402,28.618 35.2989691,28.823 34.8865979,29.028 C33.5670103,29.684 31.257732,30.955 30.1030928,31.734 C30.0206186,31.775 29.8969072,31.857 29.7731959,31.939 Z M6.63917526,5.494 C6.7628866,4.879 7.01030928,4.264 7.3814433,3.731 L6.80412371,3.157 C6.59793814,2.952 6.59793814,2.624 6.80412371,2.419 L7.42268041,1.804 C7.62886598,1.599 7.95876289,1.599 8.16494845,1.804 L8.74226804,2.378 C9.31958763,2.05 9.89690722,1.804 10.556701,1.681 L10.556701,0.861 C10.556701,0.574 10.8041237,0.328 11.0927835,0.328 L11.9587629,0.328 C12.2474227,0.328 12.4948454,0.574 12.4948454,0.861 L12.4948454,1.681 C13.1134021,1.804 13.7319588,2.05 14.2680412,2.419 L14.8453608,1.845 C15.0515464,1.64 15.3814433,1.64 15.5876289,1.845 L16.2061856,2.46 C16.4123711,2.665 16.4123711,2.993 16.2061856,3.198 L15.628866,3.772 C16,4.305 16.2474227,4.92 16.371134,5.535 L17.1958763,5.535 C17.4845361,5.535 17.7319588,5.781 17.7319588,6.068 L17.7319588,6.929 C17.7319588,7.216 17.4845361,7.462 17.1958763,7.462 L16.371134,7.462 C16.2474227,8.077 16,8.692 15.628866,9.225 L16.2061856,9.799 C16.4123711,10.004 16.4123711,10.332 16.2061856,10.537 L15.5876289,11.152 C15.3814433,11.357 15.0515464,11.357 14.8453608,11.152 L14.2680412,10.578 C13.7319588,10.947 13.1134021,11.193 12.4948454,11.316 L12.4948454,12.136 C12.4948454,12.423 12.2474227,12.669 11.9587629,12.669 L11.0927835,12.669 C10.8041237,12.669 10.556701,12.423 10.556701,12.136 L10.556701,11.316 C9.93814433,11.193 9.31958763,10.947 8.78350515,10.578 L8.20618557,11.152 C8,11.357 7.67010309,11.357 7.46391753,11.152 L6.84536082,10.537 C6.63917526,10.332 6.63917526,10.004 6.84536082,9.799 L7.42268041,9.225 C7.05154639,8.692 6.80412371,8.077 6.68041237,7.462 L5.8556701,7.462 C5.56701031,7.462 5.31958763,7.216 5.31958763,6.929 L5.31958763,6.068 C5.31958763,5.781 5.56701031,5.535 5.8556701,5.535 L6.63917526,5.494 Z M9.81443299,8.118 C10.7216495,9.02 12.2061856,9.061 13.1134021,8.118 C14.0206186,7.216 14.0618557,5.74 13.1134021,4.838 C12.2061856,3.936 10.7216495,3.895 9.81443299,4.838 C8.90721649,5.74 8.90721649,7.216 9.81443299,8.118 Z M4.70103093,15.498 C4.90721649,15.088 5.19587629,14.719 5.5257732,14.432 L5.2371134,13.94 C5.15463918,13.776 5.19587629,13.53 5.36082474,13.448 L5.89690722,13.161 C6.06185567,13.079 6.30927835,13.12 6.39175258,13.284 L6.68041237,13.776 C7.09278351,13.653 7.54639175,13.571 8,13.612 L8.16494845,13.079 C8.20618557,12.874 8.41237113,12.751 8.6185567,12.833 L9.19587629,12.997 C9.40206186,13.038 9.5257732,13.243 9.44329897,13.448 L9.31958763,13.94 C9.73195876,14.145 10.1030928,14.432 10.3917526,14.76 L10.8865979,14.473 C11.0515464,14.391 11.2989691,14.432 11.3814433,14.596 L11.6701031,15.129 C11.7525773,15.293 11.7113402,15.539 11.5463918,15.621 L11.0515464,15.908 C11.1752577,16.318 11.257732,16.769 11.2164948,17.22 L11.7525773,17.384 C11.9587629,17.425 12.0824742,17.63 12,17.835 L11.8350515,18.409 C11.7938144,18.614 11.5876289,18.737 11.3814433,18.655 L10.8453608,18.491 C10.6391753,18.901 10.3505155,19.27 10.0206186,19.557 L10.3092784,20.049 C10.3917526,20.213 10.3505155,20.459 10.185567,20.541 L9.64948454,20.828 C9.48453608,20.91 9.2371134,20.869 9.15463918,20.705 L8.86597938,20.213 C8.45360825,20.336 8,20.418 7.54639175,20.377 L7.42268041,20.91 C7.3814433,21.115 7.17525773,21.238 6.96907216,21.156 L6.39175258,20.992 C6.18556701,20.951 6.06185567,20.746 6.1443299,20.541 L6.30927835,20.008 C5.89690722,19.803 5.5257732,19.516 5.2371134,19.188 L4.74226804,19.475 C4.57731959,19.557 4.32989691,19.516 4.24742268,19.352 L3.91752577,18.86 C3.83505155,18.696 3.87628866,18.45 4.04123711,18.368 L4.53608247,18.081 C4.41237113,17.671 4.32989691,17.22 4.37113402,16.769 L3.83505155,16.605 C3.62886598,16.564 3.50515464,16.359 3.58762887,16.154 L3.71134021,15.58 C3.75257732,15.375 3.95876289,15.252 4.16494845,15.334 L4.70103093,15.498 Z M7.3814433,18.573 C8.24742268,18.819 9.15463918,18.286 9.36082474,17.425 C9.60824742,16.564 9.07216495,15.662 8.20618557,15.457 C7.34020619,15.211 6.43298969,15.744 6.22680412,16.605 C5.97938144,17.425 6.51546392,18.327 7.3814433,18.573 Z M18.5979381,11.275 L18.2268041,10.127 C18.1030928,9.676 18.3505155,9.225 18.7628866,9.102 L20,8.733 C20.4536082,8.61 20.9072165,8.856 21.0309278,9.266 L21.4020619,10.414 C22.4742268,10.291 23.5463918,10.373 24.6185567,10.701 L25.1958763,9.635 C25.4020619,9.225 25.8969072,9.061 26.3092784,9.266 L27.4639175,9.84 C27.8762887,10.045 28.0412371,10.537 27.8350515,10.947 L27.257732,12.013 C28.1237113,12.71 28.8247423,13.53 29.3195876,14.473 L30.4742268,14.104 C30.9278351,13.981 31.3814433,14.227 31.5051546,14.637 L31.8762887,15.867 C32,16.318 31.7525773,16.769 31.3402062,16.892 L30.185567,17.261 C30.3092784,18.327 30.2268041,19.393 29.8969072,20.459 L31.0103093,21.033 C31.4226804,21.238 31.5876289,21.73 31.3814433,22.14 L30.8041237,23.288 C30.5979381,23.698 30.1030928,23.862 29.6907216,23.657 L28.5773196,23.083 C27.8762887,23.944 27.0515464,24.641 26.1030928,25.133 L26.4742268,26.322 C26.5979381,26.773 26.3917526,27.224 25.9381443,27.347 L24.7010309,27.716 C24.2474227,27.839 23.7938144,27.593 23.6701031,27.183 L23.2989691,25.994 C22.2680412,26.117 21.1546392,26.035 20.1237113,25.707 L19.5463918,26.814 C19.3402062,27.224 18.8453608,27.388 18.4329897,27.183 L17.2783505,26.609 C16.8659794,26.404 16.7010309,25.912 16.9072165,25.502 L17.4845361,24.395 C16.6185567,23.739 15.9175258,22.878 15.4226804,21.976 L14.2268041,22.345 C13.7731959,22.468 13.3195876,22.222 13.1958763,21.812 L12.8247423,20.582 C12.7010309,20.131 12.9484536,19.68 13.3608247,19.557 L14.556701,19.188 C14.4329897,18.122 14.5154639,17.056 14.8041237,15.99 L13.6907216,15.416 C13.2783505,15.211 13.1134021,14.719 13.3195876,14.309 L13.8969072,13.161 C14.1030928,12.751 14.5979381,12.587 15.0103093,12.792 L16.1237113,13.366 C16.8247423,12.505 17.6494845,11.767 18.5979381,11.275 Z M24.9072165,15.375 C26.1030928,16.482 26.4742268,18.286 25.6907216,19.803 C25.5257732,20.09 25.3608247,20.377 25.1546392,20.582 L26.0618557,21.976 C26.4742268,21.607 26.8041237,21.115 27.0927835,20.623 C28.2886598,18.327 27.628866,15.58 25.6494845,14.022 L24.9072165,15.375 Z M24.4123711,23.083 L23.5051546,21.648 C22.5979381,21.935 21.6082474,21.853 20.7010309,21.402 C19.7938144,20.951 19.1340206,20.131 18.8453608,19.229 L17.1958763,19.311 C17.5257732,20.787 18.4742268,22.14 19.9587629,22.878 C21.3608247,23.657 23.0103093,23.657 24.4123711,23.083 Z M23.2164948,16.523 C22.3505155,16.072 21.2783505,16.4 20.8247423,17.302 C20.371134,18.163 20.7010309,19.229 21.6082474,19.68 C22.4742268,20.131 23.5463918,19.803 24,18.901 C24.4123711,18.04 24.0824742,16.974 23.2164948,16.523 Z M17.1134021,17.343 L18.7216495,17.261 C18.8041237,16.974 18.8865979,16.646 19.0515464,16.359 C19.8350515,14.842 21.5670103,14.104 23.1340206,14.432 L23.8350515,13.079 C21.443299,12.382 18.8041237,13.407 17.6082474,15.703 C17.3608247,16.277 17.1958763,16.81 17.1134021,17.343 Z M1.93814433,29.356 L5.27835052,29.151 C5.97938144,29.11 6.63917526,29.479 6.96907216,30.012 C8.49484536,29.356 11.2989691,28.003 16.3298969,29.479 C16.8247423,29.643 17.6907216,29.766 18.2268041,29.766 L25.9793814,29.848 C26.9278351,29.725 27.8762887,30.463 28,31.488 C28.1237113,32.513 27.3402062,33.415 26.3917526,33.497 L17.6494845,34.317 C17.3608247,34.358 17.1546392,34.604 17.1958763,34.891 C17.2371134,35.137 17.443299,35.301 17.7319588,35.301 L18.0618557,35.301 C18.0618557,35.301 23.9587629,35.219 28,34.358 C28.742268,34.194 29.4020619,33.948 30.0206186,33.538 C30.1030928,33.456 30.2680412,33.374 30.3505155,33.333 C31.7525773,32.39 33.8556701,31.201 35.3814433,30.422 C35.7938144,30.217 37.3608247,29.356 38.1443299,29.438 C39.2164948,29.52 39.628866,30.34 39.628866,31.078 C39.5876289,31.693 39.2164948,32.226 38.6804124,32.554 L27.5463918,39.032 L27.1340206,39.237 C25.6907216,39.975 24.1237113,40.18 22.5154639,40.016 L7.62886598,39.36 C7.3814433,39.934 6.80412371,40.385 6.10309278,40.426 L2.7628866,40.631 C1.64948454,40.713 0.659793814,39.893 0.618556701,38.827 L0.0412371134,31.447 C-0.0412371134,30.34 0.824742268,29.438 1.93814433,29.356 Z M2.80412371,37.802 C2.80412371,38.417 3.29896907,38.909 3.95876289,38.909 C4.57731959,38.909 5.11340206,38.417 5.11340206,37.802 C5.11340206,37.187 4.6185567,36.695 3.95876289,36.695 C3.34020619,36.695 2.80412371,37.187 2.80412371,37.802 Z M31.3402062,27.388 C30.556701,27.675 28.8247423,28.249 28.0824742,28.659 C28.4123711,28.864 28.7010309,29.11 28.9484536,29.397 C28.9896907,29.356 29.0309278,29.315 29.1134021,29.315 L29.6907216,29.028 C30.5154639,28.577 32.2886598,27.962 33.1546392,27.552 C32.5773196,27.142 31.9587629,27.142 31.3402062,27.388 Z" id="Shape"></path>
            </g>
        </g>
    </g>
</svg>