<?xml version="1.0" encoding="UTF-8" standalone="no"?>
<svg width="43px" height="42px" viewBox="0 0 43 42" version="1.1" xmlns="http://www.w3.org/2000/svg" xmlns:xlink="http://www.w3.org/1999/xlink">
    <!-- Generator: Sketch 41.2 (35397) - http://www.bohemiancoding.com/sketch -->
    <title>Landing page  Copy 36</title>
    <desc>Created with Sketch.</desc>
    <defs></defs>
    <g id="final-new-" stroke="none" stroke-width="1" fill="none" fill-rule="evenodd">
        <g id="Landing-page--Copy-36" fill="#53ADD0">
            <path d="M41.9849871,25.8938162 C42.0831165,27.3409421 41.5506709,28.7598055 40.5247318,29.785111 L33.4518752,36.8498098 L33.4518752,41.1367603 L23.5890337,41.1367603 L23.6298229,35.6750793 C23.6403473,33.0137529 24.7017523,30.4643285 26.5829649,28.5818281 L32.6034587,22.5368607 C33.0100841,22.1324551 33.5681855,21.9179379 34.140992,21.9458797 C34.7137986,21.9738215 35.2483714,22.2416398 35.6137056,22.683702 C36.2708279,23.5271355 36.1863957,24.7302956 35.4179172,25.4736869 L32.5137224,28.3778818 C32.3734047,28.5173444 32.3015544,28.7114804 32.3172684,28.9086908 C32.3329823,29.1059012 32.4346688,29.2862095 32.5953009,29.4016921 C32.8749796,29.5912135 33.2505362,29.5515906 33.4845066,29.3078768 L36.8414622,25.963158 C37.324594,25.4801429 37.5783869,24.8137508 37.5389584,24.1317205 L37.0209349,16.3817623 C36.9477213,15.2182282 37.8316006,14.215646 38.9951348,14.1424323 C40.1586689,14.0692187 41.1612511,14.953098 41.2344648,16.1166322 L41.9849871,25.8938162 Z M10.5772618,36.8498098 L10.5772618,41.1367603 L20.4074719,41.1367603 L20.3666826,35.6750793 C20.3561583,33.0137529 19.2947533,30.4643285 17.4135407,28.5818281 L11.3930468,22.5368607 C10.9864215,22.1324551 10.4283201,21.9179379 9.85551355,21.9458797 C9.28270702,21.9738215 8.74813419,22.2416398 8.38279993,22.683702 C7.72567764,23.5271355 7.81010992,24.7302956 8.57858835,25.4736869 L11.4827832,28.3778818 C11.6231009,28.5173444 11.6949512,28.7114804 11.6792372,28.9086908 C11.6635232,29.1059012 11.5618367,29.2862095 11.4012047,29.4016921 C11.121526,29.5912135 10.7459694,29.5515906 10.511999,29.3078768 L7.1550434,25.963158 C6.67191161,25.4801429 6.41811864,24.8137508 6.45754716,24.1317205 L6.97557068,16.3817623 C7.04878433,15.2182282 6.16490495,14.215646 5.0013708,14.1424323 C3.83783666,14.0692186 2.83525447,14.953098 2.76204078,16.1166322 L2.01151852,25.8938162 C1.91338906,27.3409421 2.44583463,28.7598055 3.4717738,29.785111 L10.5772618,36.8498098 Z M11.8947547,3.56985774 C11.6384256,3.30630474 11.5587997,2.91773036 11.6908084,2.57459995 C11.8253304,2.21282303 12.1583749,1.9626413 12.5433038,1.93420867 C13.7742218,1.79824152 15.0163447,2.05981631 16.0878899,2.68065201 C16.1744937,2.73267329 16.2827321,2.73267329 16.3693358,2.68065201 C18.2816512,1.56997413 20.4557605,0.98983617 22.6671965,1.00013476 C28.2430875,1.00013476 33.0113513,4.57735231 33.8026628,9.34561605 L34.2105553,9.34561605 C34.9871693,9.33578621 35.6465137,9.9124927 35.7401523,10.6835036 C35.7826795,11.1009148 35.6446189,11.5165809 35.3608123,11.8256027 C35.0722502,12.140501 34.662052,12.3158756 34.2350289,12.3069159 L33.790426,12.3069159 C33.4601372,14.0522065 32.6313464,15.6644525 31.4042547,16.9487329 C31.3439846,17.0124145 31.2993055,17.0892068 31.2737291,17.1730738 L29.6747903,22.4267297 C29.5324455,22.8975897 29.098016,23.2192665 28.6061119,23.2180412 L26.9949364,23.2180412 C26.4961014,23.2138248 26.0595264,22.8818286 25.922179,22.4022561 L25.3511294,20.4362141 C25.3238116,20.3497685 25.2363142,20.29727 25.1471832,20.3138464 C23.5116319,20.6291114 21.830919,20.6291114 20.1953678,20.3138464 C20.1062367,20.29727 20.0187394,20.3497685 19.9914215,20.4362141 L19.420372,22.4022561 C19.2830245,22.8818286 18.8464495,23.2138248 18.3476146,23.2180412 L16.7323601,23.2180412 C16.240456,23.2192665 15.8060265,22.8975897 15.6636817,22.4267297 L14.4644776,18.4824089 C14.4156485,18.3244804 14.3012262,18.195198 14.1504004,18.1275424 C12.2864169,17.3071883 10.5587606,16.2067703 9.02727014,14.8644021 C8.54382351,14.4243822 8.26835941,13.8008855 8.26859002,13.1471745 L8.26859002,9.99416519 C8.26859002,9.09307388 8.99906886,8.36259504 9.90016017,8.36259504 L10.9117337,8.36259504 C11.6254585,7.70976909 12.2458483,6.96173274 12.7554079,6.13958072 C12.8369864,6.00633582 12.9226439,5.87037165 13.0123802,5.73168818 C12.8882548,4.90760465 12.4953536,4.14761346 11.8947547,3.56985774 L11.8947547,3.56985774 Z M14.4114516,9.42719456 C14.4114516,10.1322985 14.9830513,10.7038982 15.6881553,10.7038982 C16.3932592,10.7038982 16.9648589,10.1322985 16.9648589,9.42719456 C16.9648589,8.72209061 16.3932592,8.15049092 15.6881553,8.15049092 C15.3495524,8.15049092 15.0248178,8.28500038 14.7853895,8.52442876 C14.5459611,8.76385714 14.4114516,9.0885917 14.4114516,9.42719456 Z" id="Shape"></path>
        </g>
    </g>
</svg>