<?xml version="1.0" encoding="UTF-8" standalone="no"?>
<svg width="40px" height="40px" viewBox="0 0 40 40" version="1.1" xmlns="http://www.w3.org/2000/svg" xmlns:xlink="http://www.w3.org/1999/xlink">
    <!-- Generator: Sketch 41.2 (35397) - http://www.bohemiancoding.com/sketch -->
    <title>Dashboard  Copy 16</title>
    <desc>Created with Sketch.</desc>
    <defs></defs>
    <g id="FINAL-" stroke="none" stroke-width="1" fill="none" fill-rule="evenodd">
        <g id="Dashboard--Copy-16">
            <g id="Group-24" transform="translate(2.000000, 2.000000)">
                <circle id="Oval-3" fill="#FFFFFF" cx="18.5" cy="18.5" r="18.5"></circle>
                <g id="Group-4" transform="translate(6.000000, 5.000000)" fill="#53ADD0">
                    <path d="M24.3747671,14.3102188 C24.0934304,13.7741376 22.7883669,13.9688073 21.8555963,13.1232663 C21.6225605,12.151693 21.2082397,11.2446151 20.6480754,10.4354637 C21.3010776,9.39939501 22.5581539,7.25181562 22.1378739,6.68614931 C21.6705476,6.05657927 17.7443799,6.92697168 16.4662896,7.23021853 C15.4786316,6.86780157 14.4037813,6.66898997 13.2800028,6.66898997 L9.94473611,6.66898997 C6.85661916,6.66898997 4.14016771,8.17072753 2.57164518,10.4419725 C2.1777111,10.3206737 1.37792457,10.1384298 0.946980765,10.4848708 C0.360156997,10.9567525 -0.0441272557,11.854659 0.00385993637,12.5806763 C0.0443197258,13.1948621 0.960153719,13.6537264 1.24054947,13.7800546 C1.18189846,14.1664355 1.15178885,14.5616918 1.15178885,14.9631611 C1.15178885,17.5858765 2.44242476,19.9245754 4.45725955,21.444064 C4.38167188,22.1789568 4.20697341,24.1593806 4.48705552,24.4232793 C4.83174783,24.748715 8.27992555,25.2084668 8.6249315,24.883327 C8.87647221,24.6460548 9.12801292,23.717084 9.24562858,23.2312973 C9.47615529,23.2484567 9.70950477,23.2570363 9.94473611,23.2570363 L12.7929171,23.2570363 C12.8838732,23.653772 13.1680327,24.8058141 13.4525058,25.0741506 C13.7975117,25.3995863 17.2456894,25.0741506 17.5903817,24.748715 C17.8303177,24.5223893 17.9030826,22.9458015 17.9253512,22.0061801 C19.2316692,21.2381519 20.3090287,20.1553388 21.0379322,18.8707556 C21.6018601,18.7269722 22.4204651,18.4843747 23.135882,18.1438507 C24.3747671,17.5542205 24.6843315,14.9004408 24.3747671,14.3102188 Z M13.8963089,9.24170665 L9.18384115,9.24170665 C8.80308003,9.24170665 8.49414288,8.95058967 8.49414288,8.59113121 C8.49414288,8.23167275 8.80276639,7.94055578 9.18384115,7.94055578 L13.8959952,7.94055578 C14.27707,7.94055578 14.5856935,8.23167275 14.5856935,8.59113121 C14.5856935,8.95058967 14.2773836,9.24170665 13.8963089,9.24170665 Z M19.8018699,13.6342003 C19.5327653,13.8880401 19.0958623,13.8880401 18.8267576,13.6342003 C18.557653,13.3800646 18.557653,12.9682406 18.8267576,12.7144008 C19.0958623,12.4602651 19.5327653,12.4602651 19.8018699,12.7144008 C20.0709746,12.9682406 20.0709746,13.3800646 19.8018699,13.6342003 Z" id="Shape"></path>
                    <ellipse id="Oval" cx="11.2047864" cy="2.36680467" rx="2.50913423" ry="2.36680467"></ellipse>
                </g>
            </g>
        </g>
    </g>
</svg>