<?xml version="1.0" encoding="UTF-8" standalone="no"?>
<svg width="59px" height="59px" viewBox="0 0 59 59" version="1.1" xmlns="http://www.w3.org/2000/svg" xmlns:xlink="http://www.w3.org/1999/xlink">
    <!-- Generator: Sketch 41.2 (35397) - http://www.bohemiancoding.com/sketch -->
    <title>cash invest  copy 23</title>
    <desc>Created with Sketch.</desc>
    <defs></defs>
    <g id="tax-final-page--07/02/17" stroke="none" stroke-width="1" fill="none" fill-rule="evenodd">
        <g id="cash-invest--copy-23">
            <circle id="Oval" fill="#F2F2F2" cx="30.5" cy="29.5" r="28.5"></circle>
            <g id="Group-5" transform="translate(11.000000, 15.000000)" fill="#F7BC34">
                <polygon id="Shape" points="17.8358974 7.96202532 12.3807692 0.281012658 0 0.281012658 11.7166667 16.3455696"></polygon>
                <path d="M25.5679487,16.3455696 L37,0.281012658 L25.0461538,0.281012658 L13.7089744,15.5493671 C13.7089744,15.5493671 19.1641026,12.8329114 25.5679487,16.3455696 Z" id="Shape"></path>
                <path d="M18.5948718,16.5797468 C12.9025641,16.5797468 8.25384615,21.1227848 8.25384615,26.7898734 C8.25384615,32.456962 12.8551282,37 18.5948718,37 C24.3346154,37 28.9358974,32.4101266 28.9358974,26.7898734 C28.9358974,21.1696203 24.2871795,16.5797468 18.5948718,16.5797468 Z M18.5948718,34.7518987 C14.1358974,34.7518987 10.5307692,31.1924051 10.5307692,26.7898734 C10.5307692,22.3873418 14.1358974,18.8278481 18.5948718,18.8278481 C23.0538462,18.8278481 26.6589744,22.3873418 26.6589744,26.7898734 C26.6589744,31.1924051 23.0538462,34.7518987 18.5948718,34.7518987 Z" id="Shape"></path>
                <polygon id="Shape" points="20.1128205 24.4481013 18.5 21.2164557 16.8871795 24.4481013 13.2820513 24.9632911 15.8910256 27.4924051 15.274359 31.0518987 18.5 29.3658228 21.725641 31.0518987 21.1089744 27.4924051 23.7179487 24.9632911"></polygon>
            </g>
        </g>
    </g>
</svg>