<?xml version="1.0" encoding="UTF-8" standalone="no"?>
<svg width="150px" height="150px" viewBox="0 0 150 150" version="1.1" xmlns="http://www.w3.org/2000/svg" xmlns:xlink="http://www.w3.org/1999/xlink">
    <!-- Generator: Sketch 41.2 (35397) - http://www.bohemiancoding.com/sketch -->
    <title>cash invest  copy 37</title>
    <desc>Created with Sketch.</desc>
    <defs></defs>
    <g id="Page-1" stroke="none" stroke-width="1" fill="none" fill-rule="evenodd">
        <g id="cash-invest--copy-37">
            <g id="Group" transform="translate(4.000000, 0.000000)">
                <polygon id="Shape" fill="#21867A" points="68.9333333 29.9873418 47.85 0.0936708861 0 0.0936708861 45.2833333 62.6151899"></polygon>
                <path d="M98.8166667,62.6151899 L143,0.0936708861 L96.8,0.0936708861 L52.9833333,59.5164557 C52.9833333,59.5164557 74.0666667,48.9443038 98.8166667,62.6151899 Z" id="Shape" fill="#218679"></path>
                <path d="M71.8666667,63.5265823 C49.8666667,63.5265823 31.9,81.2075949 31.9,103.263291 C31.9,125.318987 49.6833333,143 71.8666667,143 C94.05,143 111.833333,125.136709 111.833333,103.263291 C111.833333,81.3898734 93.8666667,63.5265823 71.8666667,63.5265823 Z M71.8666667,134.250633 C54.6333333,134.250633 40.7,120.397468 40.7,103.263291 C40.7,86.1291139 54.6333333,72.2759494 71.8666667,72.2759494 C89.1,72.2759494 103.033333,86.1291139 103.033333,103.263291 C103.033333,120.397468 89.1,134.250633 71.8666667,134.250633 Z" id="Shape" fill="#F9C007"></path>
                <polygon id="Shape" fill="#FBB207" points="77.7333333 94.1493671 71.5 81.5721519 65.2666667 94.1493671 51.3333333 96.1544304 61.4166667 105.997468 59.0333333 119.850633 71.5 113.288608 83.9666667 119.850633 81.5833333 105.997468 91.6666667 96.1544304"></polygon>
            </g>
        </g>
    </g>
</svg>