<?xml version="1.0" encoding="UTF-8" standalone="no"?>
<svg width="61px" height="74px" viewBox="0 0 61 74" version="1.1" xmlns="http://www.w3.org/2000/svg" xmlns:xlink="http://www.w3.org/1999/xlink">
    <!-- Generator: Sketch 41.2 (35397) - http://www.bohemiancoding.com/sketch -->
    <title>Landing page  Copy 36</title>
    <desc>Created with Sketch.</desc>
    <defs></defs>
    <g id="final-new-" stroke="none" stroke-width="1" fill="none" fill-rule="evenodd">
        <g id="Landing-page--Copy-36" stroke="#53ADD0" stroke-width="2">
            <g id="Group-3" transform="translate(2.000000, 2.000000)">
                <path d="M2.04758113,49.2717285 C2.04758113,49.2717285 14.4760817,63.9961243 15.9169246,65.5384827 C17.3577674,67.0808411 18.3434495,69.1292725 21.4537861,69.1292725 C24.5641226,69.1292725 49.8093175,69.329013 52.6804687,68.9771729 C55.55162,68.6253327 56.6394681,66.6256104 56.6394681,64.8175049 C56.6394681,63.0093994 56.7456581,41.3898926 56.7456581,41.3898926 C56.7456581,41.3898926 55.8445425,37.1298218 51.7945538,37.1298218 C47.7445651,37.1298218 47.3103854,41.3302917 47.3103854,41.3302917 C47.3103854,41.3302917 47.3078163,34.8929749 42.6476638,34.8929749 C37.9875113,34.8929749 37.9875113,39.4335327 37.9875113,39.4335327 C37.9875113,39.4335327 38.3771597,33.0496216 34.0210186,32.7770386 C29.6648776,32.5044556 28.7862417,36.8514709 28.7862417,36.8514709 L28.6903283,23.1499023 C28.6903283,23.1499023 28.3083872,19.0639343 23.8355657,19.0639343 C19.3627441,19.0639343 19.5541429,22.7931519 19.5541429,22.7931519 L19.5541429,46.2562256 C19.5541429,48.6171875 19.2323618,53.0936584 14.7458383,49.5265808 C10.2593149,45.9595032 7.12949594,40.5394592 3.15336914,42.483429 C-0.822757662,44.4273987 2.04758113,49.2717285 2.04758113,49.2717285 Z" id="Path-5"></path>
                <path d="M14.7989333,42.5220947 L14.7989333,22.5803833 C14.7989333,22.5803833 16.1485727,14.2888184 24.4014123,14.2888184 C32.6542518,14.2888184 33.1642203,21.5669556 33.1642203,21.5669556 L33.4314078,28.0734863 C33.4314078,28.0734863 37.7389498,27.697937 39.7321514,30.7147217 C40.8591346,31.1562805 41.2757587,28.565033 45.8778921,31.0490417 C49.9015475,22.2368774 45.4368615,15.2548218 44.8879282,13.3702393 C41.574846,7.5765686 34.9822942,0.537475586 22.1530123,0.537475586 C12.5764386,0.766265869 3.35675706,9.89331055 1.55559645,17.614502 C-1.05761719,26.3296814 3.30145776,33.1604696 5.49532752,37.2866211 C10.0786208,36.9232483 14.7989333,42.5220947 14.7989333,42.5220947 Z" id="Path-6"></path>
            </g>
        </g>
    </g>
</svg>