<?xml version="1.0" encoding="UTF-8" standalone="no"?>
<svg width="61px" height="68px" viewBox="0 0 61 68" version="1.1" xmlns="http://www.w3.org/2000/svg" xmlns:xlink="http://www.w3.org/1999/xlink">
    <!-- Generator: Sketch 41.2 (35397) - http://www.bohemiancoding.com/sketch -->
    <title>Landing page  Copy 36</title>
    <desc>Created with Sketch.</desc>
    <defs></defs>
    <g id="final-new-" stroke="none" stroke-width="1" fill="none" fill-rule="evenodd">
        <g id="Landing-page--Copy-36" stroke="#000000" stroke-width="0.01" fill="#53ADD0">
            <path d="M57.7758457,6.09527393 L35.0907361,1.46644045 C32.0619465,0.844519851 28.9383685,0.844519851 25.9095788,1.46644045 L3.22446928,6.09527393 C2.5004995,6.24289718 1.98541746,6.88674973 2.00031497,7.62546681 L2.00031497,27.7475033 C2.02853745,37.4458676 5.98714935,46.7185156 12.971798,53.4470928 L13.0559586,53.5236024 L29.528485,67.1346681 C30.0944975,67.6030085 30.9134684,67.6030085 31.4794809,67.1346681 L47.9443564,53.5236024 L48.028517,53.4470928 C55.0207876,46.7111333 58.9800595,37.4258953 59,27.7168994 L59,7.59486295 C59.0001484,6.86761029 58.4884048,6.24072445 57.7758457,6.09527393 Z M55.9396142,27.7168994 C55.920219,36.5728164 52.3155708,45.0434636 45.9474547,51.1977092 L30.5001575,63.9518669 L15.0528603,51.1977092 C8.68474412,45.0434636 5.08009593,36.5728164 5.06070074,27.7168994 L5.06070074,8.84197016 L26.521656,4.4656185 C29.1466012,3.92656389 31.8537137,3.92656389 34.478659,4.4656185 L55.9396142,8.84962112 L55.9396142,27.7168994 Z M26.8200436,35.2301465 L39.3140685,22.7590745 C39.9119783,22.1611646 40.8813816,22.1611646 41.4792914,22.7590745 C42.0772012,23.3569843 42.0772012,24.3263876 41.4792914,24.9242974 L27.8988296,38.4741554 C27.6118139,38.7614905 27.2223454,38.9229405 26.8162181,38.9229405 C26.4100908,38.9229405 26.0206222,38.7614905 25.7336066,38.4741554 L19.5210235,32.2615723 C18.9231137,31.6636625 18.9231137,30.6942591 19.5210235,30.0963493 C20.1189333,29.4984395 21.0883366,29.4984395 21.6862464,30.0963493 L26.8200436,35.2301465 Z" id="Shape"></path>
        </g>
    </g>
</svg>