<?xml version="1.0" encoding="utf-8"?>
<!-- Generator: Adobe Illustrator 16.0.0, SVG Export Plug-In . SVG Version: 6.00 Build 0)  -->
<!DOCTYPE svg PUBLIC "-//W3C//DTD SVG 1.1//EN" "http://www.w3.org/Graphics/SVG/1.1/DTD/svg11.dtd">
<svg version="1.1" id="Layer_1" xmlns="http://www.w3.org/2000/svg" xmlns:xlink="http://www.w3.org/1999/xlink" x="0px" y="0px"
	 width="114px" height="114px" viewBox="0 0 114 114" enable-background="new 0 0 114 114" xml:space="preserve">
<g>
	<path id="XMLID_1_" fill="#225E82" stroke="#225E82" stroke-miterlimit="10" d="M27.498,43.891c0,0,0-1.426-1.427-1.426
		c-1.426,0-6.418,0-6.418,2.852c0,2.854,7.845,2.854,7.845,2.854V43.891z"/>
	<path fill="none" stroke="#225E82" stroke-width="3" stroke-linejoin="round" stroke-miterlimit="10" d="M55.024,78.125"/>
	<path fill="none" stroke="#225E82" stroke-width="3" stroke-linejoin="round" stroke-miterlimit="10" d="M60.729,59.583"/>
	<path fill="none" stroke="#225E82" stroke-width="3" stroke-linejoin="round" stroke-miterlimit="10" d="M57.164,48.17"/>
	<path fill="#225E82" stroke="#225E82" stroke-miterlimit="10" d="M86.83,43.891c0,0,0-1.426,1.427-1.426
		c1.429,0,6.419,0,6.419,2.852c0,2.854-7.846,2.854-7.846,2.854V43.891z"/>
	<path fill="#225E82" d="M87.118,78.125c5.063,0,4.991-5.705,4.991-5.705V54.59c0-2.141-2.854-2.854-2.854-2.854
		c0-3.566-4.276-3.566-4.276-3.566s-5.992-10.911-8.486-14.191c-2.213-2.926-12.91-2.926-12.91-2.926H50.746
		c0,0-10.698,0-12.768,2.782C35.483,37.188,29.35,48.17,29.35,48.17s-4.279,0-4.279,3.566c0,0-2.854,0.713-2.854,2.854v17.83
		c0,0-0.07,5.705,4.992,5.705H87.118L87.118,78.125z"/>
	<path fill="none" stroke="#225E82" stroke-width="3" stroke-linejoin="round" stroke-miterlimit="10" d="M59.303,78.125"/>
	<path fill="none" stroke="#225E82" stroke-width="3" stroke-linejoin="round" stroke-miterlimit="10" d="M53.598,59.583"/>
	<path fill="none" stroke="#225E82" stroke-width="3" stroke-linejoin="round" stroke-miterlimit="10" d="M57.164,48.17"/>
	<path fill="none" stroke="#FFFFFF" stroke-miterlimit="10" d="M82.127,53.504l-7.848,3.565l-2.137,3.565l4.276,1.427l7.845-1.427
		c0,0,2.282,0,1.428-4.278C84.979,52.793,83.98,52.863,82.127,53.504z"/>
	<path fill="none" stroke="#FFFFFF" stroke-miterlimit="10" d="M32.202,53.404l7.846,3.565l2.141,3.565l-4.279,1.427l-7.845-1.427
		c0,0-2.282,0-1.428-4.278C29.35,52.693,30.348,52.763,32.202,53.404z"/>
	<path fill="#225E82" d="M88.684,76.699v5.705c0,0,0,2.139-2.141,2.139c-2.139,0-6.418,0-6.418,0s-2.141,0-2.141-2.139
		s0-4.279,0-4.279"/>
	<path fill="#225E82" d="M25.426,76.699v5.705c0,0,0,2.139,2.141,2.139c2.14,0,6.418,0,6.418,0s2.14,0,2.14-2.139
		c0-4.256,0-1.618,0-4.279"/>
	
		<line fill="none" stroke="#FFFFFF" stroke-width="0.5" stroke-linejoin="round" stroke-miterlimit="10" x1="41.474" y1="60.295" x2="54.311" y2="60.295"/>
	
		<circle fill="none" stroke="#FFFFFF" stroke-width="0.5" stroke-linejoin="round" stroke-miterlimit="10" cx="57.164" cy="59.582" r="2.853"/>
	
		<line fill="none" stroke="#FFFFFF" stroke-width="0.5" stroke-linejoin="round" stroke-miterlimit="10" x1="72.346" y1="60.295" x2="59.916" y2="60.295"/>
	<path fill="none" stroke="#FFFFFF" stroke-width="0.5" stroke-miterlimit="10" d="M80.698,73.135c0,0,2.854,0,2.854-2.854
		s-2.854-2.854-2.854-2.854h-47.07c0,0-2.852,0-2.852,2.854s2.852,2.854,2.852,2.854H80.698z"/>
</g>
<path fill="none" stroke="#FFFFFF" stroke-width="0.5" stroke-miterlimit="10" d="M76.922,41.335
	c4.796,7.546-3.564,6.835-7.96,6.835H45.285c-4.396,0-12.691,0.705-7.96-6.835l0,0c2.404-4.022,3.564-6.835,7.96-6.835h23.677
	C73.357,34.5,74.85,37.56,76.922,41.335L76.922,41.335z"/>
</svg>
