<?xml version="1.0" encoding="utf-8"?>
<!-- Generator: Adobe Illustrator 16.0.0, SVG Export Plug-In . SVG Version: 6.00 Build 0)  -->
<!DOCTYPE svg PUBLIC "-//W3C//DTD SVG 1.1//EN" "http://www.w3.org/Graphics/SVG/1.1/DTD/svg11.dtd">
<svg version="1.1" id="Layer_1" xmlns="http://www.w3.org/2000/svg" xmlns:xlink="http://www.w3.org/1999/xlink" x="0px" y="0px"
	 width="114px" height="114px" viewBox="0 0 114 114" enable-background="new 0 0 114 114" xml:space="preserve">
<line opacity="0.8" fill="none" stroke="#FFFFFF" stroke-miterlimit="10" enable-background="new    " x1="35.805" y1="45.749" x2="56.376" y2="48.676"/>
<line opacity="0.8" fill="none" stroke="#FFFFFF" stroke-miterlimit="10" enable-background="new    " x1="56.376" y1="48.676" x2="73.616" y2="46.922"/>
<path fill="none" stroke="#225E82" stroke-width="3" stroke-miterlimit="10" d="M97.448,68.684
	c-7.963-1.886-9.277-5.313-3.155-13.421c4.013-5.312,4.69-11.39-8.239-12.253"/>
<polygon fill="#225E82" stroke="#225E82" stroke-miterlimit="10" points="59.298,47.82 14.416,42.686 51.788,37.201 96.669,42.336 
	"/>
<circle fill="none" stroke="#225E82" stroke-width="2" stroke-miterlimit="10" cx="99.999" cy="68.8" r="2.522"/>
<g>
	<path fill="#225E82" d="M54.014,69.225c2.21,1.271,2.881,4.857,1.176,7.578c-1.7,2.711-4.875,3.881-7.088,2.609
		c-2.211-1.273-2.621-4.512-0.922-7.225C48.884,69.473,51.8,67.947,54.014,69.225z"/>
	<path fill="#225E82" stroke="#225E82" stroke-miterlimit="10" d="M53.442,69.502L17.53,49.992c-1.324-0.846-4.422,0.025-5.83,2.37
		c-1.409,2.341-0.727,5.238,1.273,6.683v0.002l35.648,20.057"/>
	<line fill="none" stroke="#FFFFFF" stroke-miterlimit="10" x1="17.211" y1="53.616" x2="46.315" y2="69.705"/>
	<line fill="none" stroke="#FFFFFF" stroke-miterlimit="10" x1="21.045" y1="59.314" x2="35.805" y2="67.52"/>
	<path fill="none" stroke="#FFFFFF" stroke-width="0.5" stroke-miterlimit="10" d="M53.893,70.279
		c1.331,1.232,1.348,3.451,0.258,5.31c-0.939,1.604-2.796,2.188-3.998,1.399c-0.963-0.635-1.086-2.157-0.284-3.406
		c0.644-0.999,1.791-1.4,2.559-0.895c0.614,0.404,0.695,1.381,0.181,2.178"/>
	<path fill="none" stroke="#FFFFFF" stroke-width="0.5" stroke-miterlimit="10" d="M49.023,78.65
		c-1.789-1.075-2.12-3.811-0.746-6.101c1.358-2.26,3.407-3.563,5.718-2.172"/>
</g>
<path fill="#225E82" d="M31.339,45.407l27.911,3.269L33.5,57.688l25.75-9.012l19.445-2.927c0,0-1.64,10.036-2.527,12.896
	c-1.955,6.332-9.514,8.2-27.105,7.454l0,0L33.5,57.688L31.339,45.407c0,0,1.218,7.514,2.161,12.28"/>
<path fill="none" stroke="#FFFFFF" stroke-width="1.25" stroke-miterlimit="10" d="M39.526,58.91
	c7.657,3.035,21.804,2.738,30.434,1.263"/>
</svg>
