<?xml version="1.0" encoding="utf-8"?>
<!-- Generator: Adobe Illustrator 16.0.0, SVG Export Plug-In . SVG Version: 6.00 Build 0)  -->
<!DOCTYPE svg PUBLIC "-//W3C//DTD SVG 1.1//EN" "http://www.w3.org/Graphics/SVG/1.1/DTD/svg11.dtd">
<svg version="1.1" id="Layer_1" xmlns="http://www.w3.org/2000/svg" xmlns:xlink="http://www.w3.org/1999/xlink" x="0px" y="0px"
	 width="114px" height="114px" viewBox="0 0 114 114" enable-background="new 0 0 114 114" xml:space="preserve">
<g>
	<path fill="#225E82" d="M55.968,41.012c5.935,0,10.747-4.813,10.747-10.746c0-5.934-4.813-10.748-10.747-10.748
		c-5.934,0-10.747,4.813-10.747,10.748C45.221,36.2,50.035,41.012,55.968,41.012z"/>
	<path fill="#225E82" d="M38.637,82.002l-1.911,5.225c-0.255,0.896-0.255,1.785,0.127,2.679c0.382,0.766,1.021,1.399,1.912,1.782
		l4.078,1.529c0.892,0.254,1.784,0.254,2.676-0.127c0.766-0.383,1.402-1.021,1.784-1.912l1.657-4.588
		c4.842,1.146,10.194,1.021,15.037-0.127l1.785,4.715c0.254,0.764,0.892,1.529,1.782,1.911c0.384,0.255,0.893,0.382,1.4,0.382
		c0.383,0,0.766-0.127,1.146-0.254l4.078-1.529c1.783-0.637,2.677-2.676,2.037-4.461l-2.037-5.604
		c5.604-4.204,8.793-9.938,8.793-16.185c0-0.893-0.129-1.655-0.256-2.549c3.948-0.893,7.01-4.334,7.01-8.539
		c0-4.97-4.717-8.92-8.538-8.92v2.549c2.549,0,5.987,2.931,5.987,6.371c0,2.933-2.166,5.479-4.97,6.117
		c-2.805-9.813-13.636-16.82-26.251-16.82c-3.313,0-6.243,0.382-9.048,1.146c-3.44-4.587-9.686-6.117-9.94-6.244l-2.548-0.637
		l1.02,2.421c0.765,1.657,2.549,6.117,2.676,8.538L36.214,50.4c-3.951,3.695-5.607,7.52-6.245,9.304h-2.422
		c-2.039,0-3.951,1.784-3.951,3.694v7.646c0,1.784,1.785,3.44,3.696,3.44l3.696,0.127C32.648,77.543,34.942,80.092,38.637,82.002z"
		/>
	<path fill="#FFFFFF" d="M45.86,54.12l2.638,1.202c0.731-1.653,3.369-2.554,7.471-2.554c2.784,0,6.446,0.601,7.472,2.705
		l2.638-1.354c-1.317-3.005-4.688-4.357-10.107-4.357C49.229,49.762,46.739,52.166,45.86,54.12z"/>
	<text transform="matrix(1 0 0 1 51.4189 36.29)" fill="#FFFFFF" font-family="'MyriadPro-Bold'" font-size="16.0734">₹</text>
	<circle fill="#FFFFFF" cx="40.727" cy="60.9" r="3.11"/>
</g>
</svg>
