<?xml version="1.0" encoding="utf-8"?>
<!-- Generator: Adobe Illustrator 16.0.0, SVG Export Plug-In . SVG Version: 6.00 Build 0)  -->
<!DOCTYPE svg PUBLIC "-//W3C//DTD SVG 1.1//EN" "http://www.w3.org/Graphics/SVG/1.1/DTD/svg11.dtd">
<svg version="1.1" id="Layer_1" xmlns="http://www.w3.org/2000/svg" xmlns:xlink="http://www.w3.org/1999/xlink" x="0px" y="0px"
	 width="114px" height="114px" viewBox="0 0 114 114" enable-background="new 0 0 114 114" xml:space="preserve">
<g>
	<path fill="#225E82" stroke="#225E82" stroke-miterlimit="10" d="M88.57,82.497c-0.637-0.959-1.752-1.741-2.709-1.263
		c-2.867,1.908-6.057,3.345-9.242,4.619l-6.533-11.963c4.305,0.157,7.171,0.479,7.171,0.479c1.115,0.158,2.071-0.639,2.231-1.752
		c0.158-1.117,0.486-3.945-1.754-3.945c-0.318,0-4.939-0.479-11.793-0.639V53.784c4.303,0,5.744,0.172,7.813,5.112
		c0.157,0.638,0.956,1.113,1.754,1.113c0.318,0,0.479,0,0.798-0.158c0.955-0.479,1.746-2.218,1.428-3.175
		c-2.709-6.375-5.736-8.288-12.43-8.127c-4.781,0.158-19.318,1.912-24.896,2.549c-2.23-9.243-5.578-19.284-10.837-25.977
		c-1.75-1.752-3.473-0.957-4.429-0.319c-0.795,0.64-0.955,1.914-0.317,2.871c10.837,13.706,13.546,45.42,13.546,45.739
		c0,0.479,0.318,1.114,0.797,1.437c0.319,0.315,0.798,0.479,1.274,0.479c0.159,0,0.159,0,0.319,0c0.797-0.16,1.593-0.16,2.39-0.319
		l-6.375,11.336c-3.188-1.117-6.215-2.552-9.083-4.146c-0.957-0.638-2.23,0.616-2.71,1.573c-0.637,0.957-0.318,2.229,0.638,2.709
		c7.513,4.429,20.855,8.129,30.28,8.129c11.792,0,22.789-3.188,32.033-9.084C88.893,84.729,89.208,83.452,88.57,82.497z
		 M53.542,67.945l-1.479-12.583c3.084-0.371,6.292-0.619,8.636-0.865V67.7C58.479,67.823,56.009,67.823,53.542,67.945z M41.538,56.4
		c1.453-0.132,3.564-0.395,6.121-0.659l1.541,12.53c-2.028,0.134-3.701,0.439-5.549,0.705C43.171,64.411,42.406,60.547,41.538,56.4z
		 M41.977,87.864l6.705-12.826c5.976-0.584,11.516-0.584,16.033-0.438l6.705,12.974c-4.813,1.459-10.059,2.331-15.451,2.331
		C51.159,89.759,46.495,89.032,41.977,87.864z"/>
</g>
</svg>
