<?xml version="1.0" encoding="UTF-8" standalone="no"?>
<svg width="317px" height="271px" viewBox="0 0 317 271" version="1.1" xmlns="http://www.w3.org/2000/svg" xmlns:xlink="http://www.w3.org/1999/xlink">
    <!-- Generator: Sketch 41.2 (35397) - http://www.bohemiancoding.com/sketch -->
    <title>cash invest  copy 35</title>
    <desc>Created with Sketch.</desc>
    <defs></defs>
    <g id="Page-1" stroke="none" stroke-width="1" fill="none" fill-rule="evenodd">
        <g id="cash-invest--copy-35" fill="#D7B500">
            <g id="Group" transform="translate(61.000000, 34.000000)">
                <path d="M42.4584256,158.161588 L160.472436,158.161588 L160.472436,210.110974 L42.4584256,210.110974 L42.4584256,158.161588 Z M71.0212562,193.636653 L131.904272,193.636653 L131.904272,174.022066 L71.0212562,174.022066 L71.0212562,193.636653 Z" id="Shape"></path>
                <path d="M118.045526,123.968207 L134.218952,123.968207 L144.008342,152.87571 L58.9145201,152.87571 L68.7012429,123.968207 L84.8773358,123.968207 L84.8773358,96.2741823 C52.3678158,76.5885479 32.2183668,39.8772694 32.0850327,0.0257244609 L170.843163,0.0257244609 C170.709829,39.8744275 150.563046,76.585706 118.048193,96.2713404 L118.048193,123.968207 L118.045526,123.968207 Z" id="Shape"></path>
                <path d="M0.090182336,13.0926434 L28.8103472,13.0926434 C29.2156829,16.7501302 29.7676861,20.3621472 30.4983569,23.9429035 L10.9595781,23.9429035 C14.5702655,48.638755 31.5916965,68.6739395 54.2931602,74.9317376 C58.0051815,79.5241997 62.0452047,83.7784793 66.386563,87.7116276 C28.9116811,86.2168039 -0.552488021,53.0436538 0.090182336,13.0926434 Z" id="Shape"></path>
                <path d="M202.835346,13.0926434 L174.115181,13.0926434 C173.709846,16.7501302 173.171176,20.3621472 172.413838,23.9429035 L191.968617,23.9429035 C188.35793,48.638755 171.333832,68.6739395 148.629702,74.9317376 C144.931014,79.5241997 140.880324,83.7784793 136.536299,87.7116276 C174.016514,86.2168039 203.478017,53.0436538 202.835346,13.0926434 Z" id="Shape"></path>
            </g>
        </g>
    </g>
</svg>