<?xml version="1.0" encoding="UTF-8" standalone="no"?>
<svg width="59px" height="59px" viewBox="0 0 59 59" version="1.1" xmlns="http://www.w3.org/2000/svg" xmlns:xlink="http://www.w3.org/1999/xlink">
    <!-- Generator: Sketch 41.2 (35397) - http://www.bohemiancoding.com/sketch -->
    <title>cash invest  copy 23</title>
    <desc>Created with Sketch.</desc>
    <defs></defs>
    <g id="tax-final-page--07/02/17" stroke="none" stroke-width="1" fill="none" fill-rule="evenodd">
        <g id="cash-invest--copy-23">
            <g id="Group-3" transform="translate(1.000000, 1.000000)">
                <ellipse id="Oval" fill="#F2F2F2" cx="28.5" cy="28.5" rx="28.5" ry="28.5"></ellipse>
                <g id="Group" transform="translate(11.000000, 11.000000)" fill="#5FD8C0">
                    <path d="M7.74,20.2371795 C8.775,21.3141026 10.08,22.1217949 11.565,22.6153846 L11.565,13.1474359 C11.565,12.9230769 11.385,12.7435897 11.16,12.7435897 L8.19,12.7435897 C7.965,12.7435897 7.785,12.9230769 7.785,13.1474359 L7.785,20.2371795 L7.74,20.2371795 Z" id="Shape"></path>
                    <path d="M12.825,22.974359 C13.455,23.1089744 14.085,23.1538462 14.715,23.1538462 C15.345,23.1538462 16.02,23.1089744 16.605,22.974359 L16.605,16.3782051 C16.605,16.1538462 16.425,15.974359 16.2,15.974359 L13.23,15.974359 C13.005,15.974359 12.825,16.1538462 12.825,16.3782051 L12.825,22.974359 L12.825,22.974359 Z" id="Shape"></path>
                    <path d="M17.91,22.6153846 C19.395,22.1217949 20.7,21.2692308 21.735,20.2371795 L21.735,9.82692308 C21.735,9.6025641 21.555,9.42307692 21.33,9.42307692 L18.36,9.42307692 C18.135,9.42307692 17.955,9.6025641 17.955,9.82692308 L17.955,22.6153846 L17.91,22.6153846 Z" id="Shape"></path>
                    <path d="M34.425,28.5833333 L26.46,22.3012821 C28.17,20.0128205 29.205,17.2307692 29.205,14.1794872 C29.205,6.50641026 22.725,0.314102564 14.76,0.314102564 C6.795,0.314102564 0.27,6.55128205 0.27,14.224359 C0.27,21.8974359 6.75,28.0897436 14.715,28.0897436 C17.865,28.0897436 20.745,27.1474359 23.13,25.4871795 L29.7,33.3846154 C29.835,33.5641026 30.015,33.7435897 30.195,33.8782051 C31.68,35.0448718 33.795,34.775641 34.965,33.2948718 C36.135,31.8141026 35.865,29.75 34.425,28.5833333 Z M21.735,21.8974359 C20.745,22.7051282 19.575,23.3782051 18.27,23.7820513 C17.145,24.1410256 15.975,24.3653846 14.715,24.3653846 C13.59,24.3653846 12.51,24.1858974 11.52,23.9166667 C10.08,23.5128205 8.82,22.7948718 7.695,21.8974359 C5.445,20.0128205 4.005,17.275641 4.005,14.224359 C4.005,8.61538462 8.82,4.08333333 14.715,4.08333333 C20.61,4.08333333 25.425,8.61538462 25.425,14.224359 C25.425,17.275641 23.985,20.0576923 21.735,21.8974359 Z" id="Shape"></path>
                </g>
            </g>
        </g>
    </g>
</svg>