<?xml version="1.0" encoding="UTF-8" standalone="no"?>
<svg width="317px" height="270px" viewBox="0 0 317 270" version="1.1" xmlns="http://www.w3.org/2000/svg" xmlns:xlink="http://www.w3.org/1999/xlink">
    <!-- Generator: Sketch 41.2 (35397) - http://www.bohemiancoding.com/sketch -->
    <title>cash invest  copy 35</title>
    <desc>Created with Sketch.</desc>
    <defs></defs>
    <g id="Page-1" stroke="none" stroke-width="1" fill="none" fill-rule="evenodd">
        <g id="cash-invest--copy-35" fill="#CE678A">
            <g id="Group-10" transform="translate(20.000000, 16.000000)">
                <polygon id="Path" points="264.640411 137.606289 274.972364 137.606289 274.972364 91.2334802 264.739948 91.2334802"></polygon>
                <polygon id="Path" points="251.167808 137.431201 259.42634 137.431201 259.42634 105.638767 251.24737 105.638767"></polygon>
                <polygon id="Path" points="236.732877 138.126264 244.991409 138.126264 244.991409 114.281938 236.812439 114.281938"></polygon>
                <polygon id="Path" points="223.260274 137.860975 230.556477 137.860975 230.556477 121.964758 223.330565 121.964758"></polygon>
                <path d="M279.43542,140.998992 C279.763434,142.865973 280.174409,144.683333 280.706633,146.451072 L180.917808,146.329733 L180.917808,49.938326 L185.405343,49.938326 L185.405343,140.877653 L279.43542,140.998992 Z" id="Shape"></path>
                <path d="M262.388526,69.5455823 L269.898816,72.7381503 L267.063582,49.938326 L248.945355,63.818219 L256.385278,66.9811576 L246.162588,86.2322105 L236.996033,73.5114776 L225.298861,95.9942673 L213.559176,84.5069484 L200.164384,115.263748 L206.125118,117.906691 L215.755236,95.8194538 L227.012609,106.834184 L238.316894,85.12324 L247.253758,95.9942673 C251.426254,90.3951901 262.388526,69.5455823 262.388526,69.5455823 Z" id="Shape"></path>
                <path d="M247.908976,170.030007 C247.577091,173.977088 244.430999,177.104135 240.474885,177.419094 L174.332887,182.426575 C168.831008,182.767313 163.52026,180.351791 160.168343,175.984024 L139.518089,148.503946 L136.458792,217.509473 L28.7409504,217.509473 L2.21684679,177.663362 C-0.383531571,173.604808 -0.718402909,168.499317 1.32965071,164.137057 L12.8020139,139.710322 L23.2648091,117.451459 C27.2026011,109.049626 33.1105722,101.718312 40.4886503,96.078066 C48.6386568,89.9488662 57.2506794,84.4568834 66.2479298,79.6510866 L80.2595093,146.824608 L87.2347061,102.18475 L82.492796,94.5819285 L89.4679928,85.727237 L71.1122118,73.9718707 L71.1122118,66.8270506 C69.3637587,63.8719613 68.1714217,60.6227 67.5940204,57.239557 C66.2479298,57.239557 64.5347235,55.2548848 62.5767736,48.5375326 C59.9763712,39.3775069 62.7297384,37.9729696 65.085397,38.217237 C64.646567,36.9845987 64.3089309,35.718375 64.075829,34.431093 C63.1386656,30.413694 63.1386656,26.2351245 64.075829,22.2177254 C65.190998,17.5749681 67.5490609,13.3218308 70.898061,9.91275758 C72.8459493,7.84578746 75.0453338,6.03021129 77.4449562,4.50834241 C79.4017623,3.12638008 81.5439385,2.02654026 83.8082937,1.24126658 C85.6747587,0.607160637 87.6210316,0.237163592 89.5903647,0.142063492 C94.6364534,-0.410802982 99.7275924,0.658929464 104.122025,3.19540539 C107.031212,4.7026216 109.474264,6.97203228 111.189,9.76009048 C111.189,9.76009048 122.9367,10.5844928 118.959614,34.4005596 C118.726513,35.6878416 118.388876,36.9540653 117.950046,38.1867036 C120.305705,37.9729696 123.059072,39.3164401 120.45867,48.5069992 C118.561906,55.2243514 116.787514,57.1174234 115.441423,57.2090236 C114.864435,60.5539149 113.671579,63.7631828 111.923232,66.6743835 L111.923232,74.1550712 L93.5674506,85.9104375 L100.542647,94.765129 L95.8007373,102.36795 L102.775934,147.007809 L116.818107,79.8342871 C126.037782,84.7188482 134.855689,90.3239613 143.189245,96.5971341 C145.577744,98.4563037 147.817782,100.498019 149.889106,102.703818 C153.533792,106.552059 156.62285,110.888877 159.066996,115.588921 L180.482074,156.534236 L240.413699,161.358516 C242.560459,161.514704 244.556866,162.516528 245.962858,164.143158 C247.36885,165.769788 248.069,167.887685 247.908976,170.030007 Z M48.4753232,207.953508 L45.2018755,147.894273 L29.5688686,171.160738 C28.6368611,172.678348 28.6368611,174.589543 29.5688686,176.107152 L48.4753232,207.953508 Z" id="Shape"></path>
            </g>
        </g>
    </g>
</svg>