<?xml version="1.0" encoding="UTF-8" standalone="no"?>
<svg width="50px" height="50px" viewBox="0 0 50 50" version="1.1" xmlns="http://www.w3.org/2000/svg" xmlns:xlink="http://www.w3.org/1999/xlink">
    <!-- Generator: Sketch 41.2 (35397) - http://www.bohemiancoding.com/sketch -->
    <title>Dashboard  Copy 16</title>
    <desc>Created with Sketch.</desc>
    <defs></defs>
    <g id="FINAL-" stroke="none" stroke-width="1" fill="none" fill-rule="evenodd">
        <g id="Dashboard--Copy-16">
            <g id="Group-13" transform="translate(1.000000, 1.000000)">
                <ellipse id="Oval" fill="#F2F2F2" cx="24" cy="24" rx="24" ry="24"></ellipse>
                <path d="M38.7644082,26.1714286 L38.7644082,22.7936508 C38.7644082,21.5183673 37.7652245,20.4843537 36.532898,20.4843537 L35.1007347,20.2086168 L32.4362449,16.0725624 C32.4029388,16.0380952 32.3696327,15.969161 32.3363265,15.9346939 C31.9366531,15.3487528 31.2705306,14.9696145 30.5044898,14.9696145 L26.1746939,14.9696145 L22.2445714,14.9696145 L16.682449,14.9696145 C15.883102,14.9696145 15.2502857,15.6244898 15.2502857,16.4517007 L15.2502857,24.3102041 L15.2502857,24.5170068 L15.2502857,26.2058957 C14.6840816,26.3437642 14.2844082,26.8952381 14.2844082,27.4811791 L14.2844082,29.170068 C14.2844082,29.9283447 14.8839184,30.4798186 15.5500408,30.4798186 L17.3818776,30.4798186 C17.781551,31.9619048 19.1137959,33.0648526 20.6791837,33.0648526 C22.2778776,33.0648526 23.5768163,31.9619048 23.9764898,30.4798186 L26.1746939,30.4798186 L30.4378776,30.4798186 C30.837551,31.9619048 32.1697959,33.0648526 33.7351837,33.0648526 C35.3338776,33.0648526 36.6328163,31.9619048 37.0324898,30.4798186 L38.6311837,30.4798186 C39.3639184,30.4798186 39.8968163,29.8594104 39.8968163,29.170068 L39.8968163,27.4811791 C39.8968163,26.7918367 39.3972245,26.2403628 38.7644082,26.1714286 Z M20.7124898,31.2725624 C19.7466122,31.2725624 18.9805714,30.4453515 18.9805714,29.4802721 C18.9805714,28.5151927 19.7799184,27.6879819 20.7124898,27.6879819 C21.6783673,27.6879819 22.4444082,28.5151927 22.4444082,29.4802721 C22.4444082,30.4453515 21.6783673,31.2725624 20.7124898,31.2725624 Z M33.7351837,31.2725624 C32.7693061,31.2725624 32.0032653,30.4453515 32.0032653,29.4802721 C32.0032653,28.5151927 32.8026122,27.6879819 33.7351837,27.6879819 C34.7010612,27.6879819 35.467102,28.5151927 35.467102,29.4802721 C35.467102,30.4453515 34.6677551,31.2725624 33.7351837,31.2725624 Z M13.3851429,15.969161 C13.3851429,16.5206349 12.9521633,16.9687075 12.4192653,16.9687075 L8.08946939,16.9687075 C7.55657143,16.9687075 7.12359184,16.5206349 7.12359184,15.969161 C7.12359184,15.4176871 7.55657143,14.9696145 8.08946939,14.9696145 L12.4192653,14.9696145 C12.9521633,14.9351474 13.3851429,15.4176871 13.3851429,15.969161 L13.3851429,15.969161 Z M13.3851429,20.0018141 C13.3851429,20.553288 12.9521633,21.0013605 12.4192653,21.0013605 L9.22187755,21.0013605 C8.68897959,21.0013605 8.256,20.553288 8.256,20.0018141 C8.256,19.4503401 8.68897959,19.0022676 9.22187755,19.0022676 L12.4192653,19.0022676 C12.9521633,18.9678005 13.3851429,19.4503401 13.3851429,20.0018141 L13.3851429,20.0018141 Z M13.3851429,24.0344671 L13.3851429,24.0344671 C13.3851429,24.585941 12.9521633,25.0340136 12.4192653,25.0340136 L10.4875102,25.0340136 C9.95461224,25.0340136 9.52163265,24.585941 9.52163265,24.0344671 L9.52163265,24.0344671 C9.52163265,23.4829932 9.95461224,23.0349206 10.4875102,23.0349206 L12.4192653,23.0349206 C12.9521633,23.0349206 13.3851429,23.4829932 13.3851429,24.0344671 Z" id="Shape" fill="#4D4D4D"></path>
                <g id="Group" transform="translate(21.844898, 18.829932)" fill="#FFFFFF">
                    <g transform="translate(0.174344, 0.006378)" id="Shape">
                        <g transform="translate(0.022522, 0.115970)">
                            <path d="M3.11621658,0.0275440385 C1.49604637,0.0275440385 0.182758022,1.38661078 0.182758022,3.06325824 C0.182758022,4.73990581 1.49604637,6.09897243 3.11621658,6.09897243 C4.73638687,6.09897243 6.04967514,4.73990581 6.04967514,3.06325824 C6.04967514,1.38661078 4.73638687,0.0275440385 3.11621658,0.0275440385 Z M3.11621658,0.384686885 C4.54963098,0.384686885 5.70456237,1.57986243 5.70456237,3.06325824 C5.70456237,4.546654 4.54963098,5.74182959 3.11621658,5.74182959 C1.6828023,5.74182959 0.527870794,4.546654 0.527870794,3.06325824 C0.527870794,1.57986243 1.6828023,0.384686885 3.11621658,0.384686885 Z M2.14990082,1.49182971 L1.91982564,1.82516303 L2.57553991,1.82516303 C2.64344194,1.82516303 3.11987504,1.85058825 3.28877297,2.18230588 L2.14990082,2.18230588 L1.91982564,2.5156392 L3.34629176,2.5156392 C3.3459666,2.52243376 3.33537545,2.53336938 3.33478801,2.53944873 C3.33478801,2.53944873 3.33331519,3.27332802 2.04636699,3.14659157 L2.04636699,3.30135347 L2.04636699,3.46802013 L3.43832184,5.03944866 L3.96749475,5.03944866 L3.96749475,4.96802009 L2.6330587,3.42040108 L2.6330587,3.39659156 C2.6330587,3.39659156 3.67891348,3.4115164 3.85245716,2.52754397 C3.85245716,2.52754397 3.85173561,2.52171856 3.85245716,2.5156392 L4.28960001,2.5156392 L4.53117895,2.18230588 L3.8409534,2.18230588 C3.81486689,2.06000379 3.76155799,1.93473427 3.65689326,1.82516303 L4.30110377,1.82516303 L4.53117895,1.49182971 L2.14990082,1.49182971 Z"></path>
                        </g>
                    </g>
                </g>
            </g>
        </g>
    </g>
</svg>