<?xml version="1.0" encoding="UTF-8" standalone="no"?>
<svg width="50px" height="50px" viewBox="0 0 50 50" version="1.1" xmlns="http://www.w3.org/2000/svg" xmlns:xlink="http://www.w3.org/1999/xlink">
    <!-- Generator: Sketch 41.2 (35397) - http://www.bohemiancoding.com/sketch -->
    <title>Dashboard  Copy 16</title>
    <desc>Created with Sketch.</desc>
    <defs></defs>
    <g id="FINAL-" stroke="none" stroke-width="1" fill="none" fill-rule="evenodd">
        <g id="Dashboard--Copy-16">
            <g id="Group-23" transform="translate(1.000000, 1.000000)">
                <circle id="Oval" fill="#F2F2F2" cx="24" cy="24" r="24"></circle>
                <g id="Group-6" transform="translate(9.263158, 11.789474)" fill="#4D4D4D">
                    <path d="M29.9792153,3.07655728 C29.9023923,4.72673684 29.8217799,6.37691641 29.7494354,8.02674923 C29.736,8.33188854 29.6698565,8.59680495 29.3663541,8.76359133 C29.2719617,8.81525697 29.1896268,8.83710217 29.1155598,8.83710217 C28.9181627,8.83710217 28.7803636,8.68383901 28.6380861,8.54063158 C28.2422584,8.14186997 27.8478086,7.74206811 27.4502584,7.345387 C27.3982392,7.29337461 27.3434641,7.24344272 27.286622,7.19247059 L27.1195407,7.02429721 L26.5555981,7.5919257 L21.9048804,12.2730402 L21.4921722,12.6884458 L20.4734928,13.7134365 L15.6849761,18.5332508 L15.4097225,18.8103034 C15.1930335,19.0284087 14.9091675,19.1372879 14.6253014,19.1372879 C14.3414354,19.1372879 14.0575694,19.0284087 13.8408804,18.8103034 L13.5656268,18.5332508 L12.5472919,17.5082601 L7.75877512,12.6884458 L7.52486124,12.4530031 L2.50346411,17.5082601 C2.28677512,17.7263653 2.00290909,17.8352446 1.71904306,17.8352446 C1.43517703,17.8352446 1.151311,17.7263653 0.93462201,17.5082601 L0.659368421,17.2312074 C0.226334928,16.7953437 0.226334928,16.088322 0.659368421,15.6524582 L6.4662201,9.80765325 L6.74147368,9.53060062 C6.95816268,9.31249536 7.24202871,9.2036161 7.52589474,9.2036161 C7.80976077,9.2036161 8.09362679,9.31249536 8.31031579,9.53060062 L8.58556938,9.80765325 L9.60390431,10.832644 L14.3924211,15.6524582 L14.6263349,15.8879009 L18.6304306,11.8576347 L19.6487656,10.832644 L20.0614737,10.4172384 L24.7121914,5.73612384 L25.2850909,5.15947988 C24.7590431,4.64975851 24.2491866,4.12339319 23.7334737,3.6029226 C23.5550239,3.42295975 23.3906986,3.24473065 23.5350431,2.93057585 C23.6790431,2.61711455 23.9350048,2.60220433 24.197512,2.58972136 C25.8779713,2.50892879 27.5584306,2.42917647 29.2385455,2.35115789 C29.2650718,2.3497709 29.2909091,2.34942415 29.3160574,2.34942415 C29.7969761,2.34942415 30.0022967,2.57793189 29.9792153,3.07655728 Z M3.49423923,18.5051641 C3.26687081,18.7340186 3.00298565,18.9132879 2.71636364,19.0381176 L2.71636364,20.5988359 L2.71636364,23.1841981 C2.71636364,23.8007183 3.21312919,24.3007307 3.82564593,24.3007307 L6.31636364,24.3007307 C6.92888038,24.3007307 7.42564593,23.8007183 7.42564593,23.1841981 L7.42564593,20.5988359 L7.42564593,17.3081858 L7.42564593,14.7228235 C7.42564593,14.6676904 7.42047847,14.614291 7.41289952,14.5612384 L3.49423923,18.5051641 Z M12.8507943,19.8072074 L12.5755407,19.5301548 L11.5572057,18.5051641 L9.36895694,16.302613 C9.27215311,16.4683591 9.215311,16.660805 9.215311,16.8671207 L9.215311,17.307839 L9.215311,22.7431331 L9.215311,23.1838514 C9.215311,23.8003715 9.71207656,24.3003839 10.3245933,24.3003839 L12.815311,24.3003839 C13.4278278,24.3003839 13.9245933,23.8003715 13.9245933,23.1838514 L13.9245933,22.7431331 L13.9245933,22.7431331 L13.9245933,20.4473065 C13.5229091,20.330452 13.1546411,20.1130402 12.8507943,19.8072074 Z M16.6757512,19.5301548 L16.4004976,19.8072074 C16.1975885,20.0114427 15.9657416,20.1761486 15.7149474,20.2978576 L15.7149474,22.7434799 L15.7149474,22.7434799 L15.7149474,23.1841981 C15.7149474,23.8007183 16.2117129,24.3007307 16.8242297,24.3007307 L19.3149474,24.3007307 C19.9274641,24.3007307 20.4242297,23.8007183 20.4242297,23.1841981 L20.4242297,22.7434799 L20.4242297,17.3081858 L20.4242297,16.8674675 C20.4242297,16.5609412 20.301244,16.283195 20.1024689,16.081387 L16.6757512,19.5301548 Z M22.895311,13.270291 L22.4826029,13.6856966 L22.2145837,13.9554675 L22.2145837,14.7228235 L22.2145837,15.2516161 L22.2145837,17.3081858 L22.2145837,17.8369783 L22.2145837,20.5984892 L22.2145837,23.1838514 C22.2145837,23.8003715 22.7113493,24.3003839 23.323866,24.3003839 L25.8145837,24.3003839 C26.4271005,24.3003839 26.923866,23.8003715 26.923866,23.1838514 L26.923866,20.5984892 L26.923866,17.8369783 L26.923866,17.3081858 L26.923866,15.2516161 L26.923866,14.7228235 L26.923866,11.9613127 L26.923866,9.37595046 C26.923866,9.32532508 26.9193876,9.27573994 26.9128421,9.2268483 L22.895311,13.270291 Z" id="Shape"></path>
                    <path d="M17.9448503,1.21384201 L17.9448503,0 L10.1052632,0 L10.1052632,1.21398421 L13.2344579,1.21398421 C13.5171577,1.34054459 14.355509,1.77340952 14.6746588,2.56291876 L10.1052632,2.56291876 L10.1052632,3.77690297 L14.7150647,3.77690297 C14.1173121,5.8647226 10.8755178,5.90112648 10.8425997,5.90126868 L10.3811816,6.89896263 L15.1719619,12.6315789 L16.0947981,11.8501753 L12.0388114,6.99694027 C13.4181209,6.75476912 15.5425375,6.01773267 15.953095,3.77676077 L17.9448503,3.77676077 L17.9448503,2.56277655 L15.9364241,2.56277655 C15.8170431,2.03520464 15.5570892,1.58513318 15.2370917,1.21384201 L17.9448503,1.21384201 Z" id="Shape"></path>
                </g>
            </g>
        </g>
    </g>
</svg>