<?xml version="1.0" encoding="UTF-8" standalone="no"?>
<svg width="25px" height="25px" viewBox="0 0 25 25" version="1.1" xmlns="http://www.w3.org/2000/svg" xmlns:xlink="http://www.w3.org/1999/xlink">
    <!-- Generator: Sketch 41.2 (35397) - http://www.bohemiancoding.com/sketch -->
    <title>Dashboard  Copy 4</title>
    <desc>Created with Sketch.</desc>
    <defs></defs>
    <g id="FINAL-" stroke="none" stroke-width="1" fill="none" fill-rule="evenodd">
        <g id="Dashboard--Copy-4" fill="#6F6F6F">
            <path d="M12.8547363,3 C18.8544451,3 23.7094727,7.69636364 23.7094727,13.5 C23.7094727,19.3036364 18.8544451,24 12.8547363,24 C6.85502752,24 2,19.3036364 2,13.5 C2,7.69636364 6.85502752,3 12.8547363,3 Z M12.8547363,22.0909091 C17.7492356,22.0909091 21.7358842,18.2345455 21.7358842,13.5 C21.7358842,8.76545455 17.7492356,4.90909091 12.8547363,4.90909091 C7.96023704,4.90909091 3.97358842,8.76545455 3.97358842,13.5 C3.97358842,18.2345455 7.96023704,22.0909091 12.8547363,22.0909091 Z" id="Shape"></path>
            <polygon id="Shape" points="17.8415305 15.7272727 9.94717685 15.7272727 9.94717685 17.6363636 6 13.8181818 9.94717685 10 9.94717685 11.9090909 17.8415305 11.9090909"></polygon>
        </g>
    </g>
</svg>