<?xml version="1.0" encoding="UTF-8" standalone="no"?>
<svg width="50px" height="50px" viewBox="0 0 50 50" version="1.1" xmlns="http://www.w3.org/2000/svg" xmlns:xlink="http://www.w3.org/1999/xlink">
    <!-- Generator: Sketch 41.2 (35397) - http://www.bohemiancoding.com/sketch -->
    <title>Dashboard  Copy 16</title>
    <desc>Created with Sketch.</desc>
    <defs></defs>
    <g id="FINAL-" stroke="none" stroke-width="1" fill="none" fill-rule="evenodd">
        <g id="Dashboard--Copy-16">
            <g id="Group-17" transform="translate(1.000000, 1.000000)">
                <circle id="Oval" fill="#F2F2F2" cx="24" cy="24" r="24"></circle>
                <g id="Group" transform="translate(13.473684, 10.105263)" fill="#4D4D4D">
                    <path d="M19.8737833,1.86652632 C19.7439009,1.74002632 19.5685449,1.66910526 19.3848669,1.66910526 L16.926613,1.66910526 C16.939096,1.29828947 16.947418,0.918789474 16.947418,0.521921053 C16.947418,0.358368421 16.8112941,0.226078947 16.6436656,0.226078947 L3.56656347,0.226078947 C3.39893498,0.226078947 3.26281115,0.358657895 3.26281115,0.521921053 C3.26281115,0.922842105 3.27143034,1.30639474 3.28450774,1.68068421 L0.813770898,1.68068421 C0.633659443,1.68068421 0.460681115,1.75044737 0.333473684,1.87434211 C0.206266254,1.99852632 0.134934985,2.16671053 0.134934985,2.34213158 C0.134934985,2.44315789 0.159900929,4.83392105 2.14736842,6.55918421 C2.88178328,7.19660526 3.74637771,7.70260526 4.47841486,8.06878947 C5.56175851,10.7212368 7.29421672,12.3226053 9.05966563,13.8539211 C9.3075418,14.069 9.3904644,14.1520789 9.59494737,14.3254737 C8.76364087,15.1244211 8.06994427,17.6764211 4.75541796,20.0443158 L15.4551084,20.0443158 C12.1212632,17.6822105 11.4549102,15.1244211 10.651839,14.3260526 C10.825709,14.1708947 11.0004706,14.014 11.1728545,13.8620263 C12.9457337,12.2974211 14.6591703,10.7837632 15.7532136,8.06618421 C16.4799009,7.70057895 17.3334985,7.19834211 18.0598885,6.56844737 C20.0506254,4.84 20.0758885,2.44373684 20.0758885,2.34271053 C20.0761858,2.16410526 20.0033684,1.99273684 19.8737833,1.86652632 Z M3.05030341,5.57265789 C2.09000619,4.73868421 1.72116409,3.67718421 1.57998762,3.003 L3.36178328,3.003 C3.46105263,4.20026316 3.63254489,5.25307895 3.86585759,6.18431579 C3.58350464,5.99731579 3.30590712,5.79439474 3.05030341,5.57265789 Z M17.1406068,5.56368421 C16.8968916,5.77528947 16.6320743,5.96981579 16.3625015,6.14986842 C16.5874923,5.22992105 16.7530402,4.19273684 16.8499319,3.01457895 L18.6079505,3.01457895 C18.4679628,3.68471053 18.100904,4.73 17.1406068,5.56368421 Z" id="Shape"></path>
                    <path d="M16.3467492,26.4321316 L15.6370031,26.4321316 L15.6370031,20.9144737 C15.6370031,20.8166316 15.5555666,20.7376053 15.4551084,20.7376053 L4.75541796,20.7376053 C4.65495975,20.7376053 4.57352322,20.8166316 4.57352322,20.9144737 L4.57352322,26.4321316 L3.86377709,26.4321316 C3.54308359,26.4321316 3.28302167,26.6854211 3.28302167,26.9980526 C3.28302167,27.3101053 3.54308359,27.5633947 3.86377709,27.5633947 L16.3467492,27.5633947 C16.6674427,27.5633947 16.9275046,27.3101053 16.9275046,26.9980526 C16.9275046,26.6854211 16.6674427,26.4321316 16.3467492,26.4321316 Z M13.1956904,25.1338421 L7.01483591,25.1338421 L7.01483591,22.5873421 L13.1959876,22.5873421 L13.1959876,25.1338421 L13.1956904,25.1338421 Z" id="Shape"></path>
                </g>
            </g>
        </g>
    </g>
</svg>