<?xml version="1.0" encoding="UTF-8" standalone="no"?>
<svg width="50px" height="50px" viewBox="0 0 50 50" version="1.1" xmlns="http://www.w3.org/2000/svg" xmlns:xlink="http://www.w3.org/1999/xlink">
    <!-- Generator: Sketch 41.2 (35397) - http://www.bohemiancoding.com/sketch -->
    <title>Dashboard  Copy 16</title>
    <desc>Created with Sketch.</desc>
    <defs></defs>
    <g id="FINAL-" stroke="none" stroke-width="1" fill="none" fill-rule="evenodd">
        <g id="Dashboard--Copy-16">
            <g id="Group-20" transform="translate(2.000000, 1.000000)">
                <g id="Group-19">
                    <g id="Group-18">
                        <circle id="Oval" fill="#F2F2F2" cx="24" cy="24" r="24"></circle>
                        <path d="M31.9170724,29.098067 L31.9170724,25.1591061 L33.6928615,25.1591061 L33.6928615,29.098067 L31.9170724,29.098067 Z M35.0298456,29.098067 L36.809063,29.098067 L36.809063,23.3730325 L35.0298456,23.3730325 L35.0298456,29.098067 Z M30.5732319,29.0466445 L30.5732319,27.2194329 L28.8042991,27.2194329 L28.8042991,29.0466445 L30.5732319,29.0466445 Z M38.1323344,29.0466445 L39.9115517,29.0466445 L39.9115517,21.1618664 L38.1494752,21.1618664 L38.1323344,29.0466445 Z M35.3589494,32.5639412 C35.3217593,33.007103 34.9692168,33.3581946 34.5259055,33.393557 L27.1142141,33.955776 C26.4976885,33.9940326 25.9025806,33.7228279 25.5269739,33.2324333 L23.212963,30.1470853 L22.8701465,37.8947368 L10.7995797,37.8947368 L7.82736116,33.4209823 C7.53596987,32.9653049 7.4984451,32.3920818 7.72794439,31.9023055 L9.01350604,29.159774 L10.1859383,26.6606421 C10.6271965,25.7173195 11.2892276,24.8941902 12.1159948,24.260927 C13.0292623,23.5727661 13.994302,22.9561493 15.0025092,22.4165746 L16.5726085,29.9585363 L17.35423,24.9465599 L16.8228645,24.092947 L17.604486,23.0987793 L15.5475874,21.778936 L15.5475874,20.9767455 C15.3516605,20.6449605 15.2180505,20.280147 15.1533485,19.9003019 C15.0025092,19.9003019 14.810532,19.6774712 14.5911295,18.9232751 C14.2997355,17.8948258 14.6082703,17.7371302 14.872239,17.7645555 C14.8230649,17.62616 14.7852303,17.4839937 14.7591096,17.3394631 L14.7591096,17.3394631 C14.6540936,16.8884064 14.6540936,16.4192541 14.7591096,15.9681974 C14.8840724,15.446928 15.1483104,14.9694036 15.5235902,14.5866471 C15.7418653,14.3545764 15.9883223,14.1507311 16.2572174,13.979862 C16.4764918,13.8247011 16.7165382,13.7012157 16.9702756,13.6130484 L16.9702756,13.6130484 C17.1794266,13.5418537 17.3975206,13.5003119 17.6181987,13.4896345 C18.1836496,13.427561 18.7541487,13.5476661 19.2465768,13.8324509 C19.5725723,14.0016749 19.8463341,14.2564748 20.0384827,14.5695063 C20.0384827,14.5695063 21.3548979,14.6620667 20.9092365,17.336035 C20.8831157,17.4805656 20.8452812,17.6227319 20.7961071,17.7611273 C21.0600757,17.7371302 21.3686105,17.8879694 21.0772166,18.9198469 C20.8646704,19.6740431 20.6658368,19.8865893 20.5149976,19.8968738 C20.4503419,20.2724241 20.3166737,20.6327473 20.1207587,20.9596047 L20.1207587,21.799505 L18.06386,23.1193483 L18.8454815,24.113516 L18.314116,24.9671289 L19.0957375,29.9791053 L20.669265,22.4371436 C21.7023966,22.9855616 22.6905071,23.6148803 23.6243427,24.3192058 C23.8919913,24.5279456 24.1430038,24.7571808 24.3751107,25.0048387 L24.3751107,25.0048387 C24.7835243,25.4369031 25.1296757,25.9238228 25.40356,26.4515241 L27.8032751,31.0486925 L34.5190491,31.5903425 C34.7596092,31.6078787 34.9833211,31.7203592 35.1408727,31.9029905 C35.2984243,32.0856217 35.3768812,32.3234103 35.3589494,32.5639412 Z M13.0758808,36.5474682 L12.7090673,29.8042689 L10.9572753,32.4165301 C10.852837,32.586921 10.852837,32.8015019 10.9572753,32.9718928 L13.0758808,36.5474682 Z" id="Shape" fill="#4D4D4D"></path>
                    </g>
                </g>
            </g>
        </g>
    </g>
</svg>