<?xml version="1.0" encoding="UTF-8" standalone="no"?>
<svg width="71px" height="71px" viewBox="0 0 71 71" version="1.1" xmlns="http://www.w3.org/2000/svg" xmlns:xlink="http://www.w3.org/1999/xlink">
    <!-- Generator: Sketch 41.2 (35397) - http://www.bohemiancoding.com/sketch -->
    <title>Landing page  Copy 36</title>
    <desc>Created with Sketch.</desc>
    <defs></defs>
    <g id="final-new-" stroke="none" stroke-width="1" fill="none" fill-rule="evenodd">
        <g id="Landing-page--Copy-36" stroke="#53ADD0" stroke-width="2.4832">
            <g id="Group-Copy" transform="translate(2.000000, 2.000000)">
                <path d="M4.90801587,50.0080556 C10.6163095,59.8735397 21.2820714,66.5107937 33.5,66.5107937 C45.7179286,66.5107937 56.3836905,59.8735397 62.0919841,50.0080556" id="Shape"></path>
                <path d="M50.6509365,43.4016429 C47.2259603,49.3215714 40.830119,53.3059444 33.5,53.3059444 C26.1693492,53.3059444 19.7740397,49.3215714 16.3495952,43.4016429" id="Shape"></path>
                <path d="M33.5,0.489206349 C15.2685556,0.489206349 0.489206349,15.2685556 0.489206349,33.5 C0.489206349,39.5140476 2.09826984,45.151619 4.90801587,50.0080556" id="Shape"></path>
                <path d="M16.3495952,43.4016429 C14.6634286,40.4887381 13.6935238,37.1084286 13.6935238,33.5 C13.6935238,22.5609206 22.5609206,13.6935238 33.5,13.6935238" id="Shape"></path>
                <path d="M33.5,13.6935238 C44.4390794,13.6935238 53.3064762,22.5609206 53.3064762,33.5 C53.3064762,37.1084286 52.3365714,40.4887381 50.6509365,43.4016429" id="Shape"></path>
                <path d="M62.0919841,50.0080556 C64.9022619,45.1510873 66.5113254,39.5140476 66.5113254,33.5 C66.5113254,15.2685556 51.7314444,0.489206349 33.5005317,0.489206349" id="Shape"></path>
                <polyline id="Shape" points="33.5 0.489206349 38.4925635 7.09136508 33.5 13.6935238"></polyline>
                <polyline id="Shape" points="4.90801587 50.0080556 8.12933333 42.3833492 16.3432143 43.4053651"></polyline>
                <polyline id="Shape" points="62.0919841 50.0080556 53.8786349 51.0306032 50.6573175 43.4053651"></polyline>
            </g>
        </g>
    </g>
</svg>