<?xml version="1.0" encoding="UTF-8" standalone="no"?>
<svg width="158px" height="120px" viewBox="0 0 158 120" version="1.1" xmlns="http://www.w3.org/2000/svg" xmlns:xlink="http://www.w3.org/1999/xlink">
    <!-- Generator: Sketch 41.2 (35397) - http://www.bohemiancoding.com/sketch -->
    <title>Dashboard  Copy 32</title>
    <desc>Created with Sketch.</desc>
    <defs></defs>
    <g id="final-" stroke="none" stroke-width="1" fill="none" fill-rule="evenodd">
        <g id="Dashboard--Copy-32" stroke="#53ADD0">
            <g id="Group-2" transform="translate(2.000000, 2.000000)">
                <path d="M37.4893,38.2959392 L47.053687,44.4935785 L49.1505737,44.2955016 L58.8031843,38.39962 L58.8031843,35.4122186 C58.8031843,35.4122186 58.8031843,31.1315146 60.9221269,29.5256219 C63.4309864,27.566518 63.6995959,24.144276 63.6995959,24.144276 C63.6995959,24.144276 63.9602622,21.8914572 63.6995959,21.0353977 C63.4389295,20.1793382 61.40972,22.0331325 62.2431182,19.3610293 C63.0765165,16.688926 63.0765165,13.1471415 63.0765165,13.1471415 C63.0765165,13.1471415 62.8717116,8.30006144 59.0739599,4.79193453 C55.1163029,1.39116374 55.0339871,0.958450911 49.3451383,0.0121696577 C44.05545,-0.256496814 38.5944586,4.01239376 38.5944586,4.01239376 C38.5944586,4.01239376 33.8047818,8.52715346 33.390052,12.4941068 C32.5331029,15.5746871 34.2329028,19.6914153 34.2329028,19.6914153 C34.2329028,19.6914153 33.1096269,19.6914153 32.5133296,21.0353977 C31.9170324,22.3793802 32.5040735,24.7798801 33.1096269,26.6117256 C33.7151802,28.4435711 35.3199439,29.5256219 35.3199439,29.5256219 L36.1533422,31.9729544 L37.6098198,35.4122186 L37.4893,38.2959392 Z" id="Path-2" stroke-width="3.5"></path>
                <path d="M34.7118346,42.7846019 L23.8292133,49.4464839 L18.8800251,53.428912 L15.7012173,56.6492085 L13.9028731,59.2605733 L7.23332408,72.8884161 L0.71344013,86.5758367 C0.71344013,86.5758367 -0.831261142,90.3594142 0.625216498,92.549092 C2.08169414,94.7387698 15.0608083,114.45206 15.0608083,114.45206 L71.5058154,113.969248 L73.5853725,78.6883542 L84.8701203,93.5062056 C84.8701203,93.5062056 87.424667,96.2042291 90.9693665,96.2042291 C94.5140661,96.2042291 122.775845,94.7603762 127.923253,93.2299812 C133.07066,91.6995862 131.783037,85.7657333 128.020141,85.1885249 C115.368321,83.485915 95.3490397,82.5415681 95.3490397,82.5415681 C95.3490397,82.5415681 82.1506471,58.7149196 80.3864693,55.9915314 C78.6222914,53.2681432 74.9284197,51.0179452 74.9284197,51.0179452 L61.7563164,43.0360667 L54.4731405,77.5494122 L50.4006746,54.3968579 L52.8488804,50.2589085 L49.0056384,45.8029529 L47.3569593,46.0010297 L43.531047,50.2078418 L45.9792528,54.1894962 L44.6582614,63.2232712 L42.4203745,76.131151 C38.71372,60.0964495 34.7118346,42.7846019 34.7118346,42.7846019 Z M24.1781693,77.0093433 L25.6787587,107.937962 L15.8721506,91.8836776 C15.8721506,91.8836776 15.2187443,89.8796968 16.3987354,88.1987516 C17.5787265,86.5178064 24.1781693,77.0093433 24.1781693,77.0093433 Z" id="Path-3" stroke-width="3.5"></path>
                <path d="M96.2746126,39.7254794 C96.2746126,39.7254794 97.5809388,35.9094763 98.0954065,35.3209773 C98.6098742,34.7324783 99.5349484,34.6400881 100.008363,35.4544471 C100.481777,36.268806 101.719271,39.6736389 101.719271,39.6736389 C101.719271,39.6736389 105.510721,39.8231638 106.426632,39.944834 C107.342543,40.0665043 108.126709,41.1513813 106.829054,41.9455264 C105.138724,43.0833077 103.342842,44.6230458 103.342842,44.6230458 C103.342842,44.6230458 104.342546,47.7762205 104.681655,48.9186443 C104.917279,49.9447173 104.226242,50.2678577 103.457355,50.081282 C101.959523,49.193031 99.0170284,47.7762205 99.0170284,47.7762205 C99.0170284,47.7762205 97.7328626,48.507306 96.1620684,49.3024182 C94.3554532,50.1913462 93.5763085,50.0610681 93.5763085,48.9186443 C93.5763085,47.7762205 95.041451,44.7683151 95.041451,44.7683151 C95.041451,44.7683151 93.4567734,43.6006481 92.2052975,42.7754568 C90.9538217,41.9502655 89.5672534,40.7625781 90.8561455,40.1518089 C92.1119538,39.944834 96.2746126,39.7254794 96.2746126,39.7254794 Z" id="Path-4" stroke-width="2"></path>
                <path d="M109.18047,57.1562431 C109.18047,57.1562431 110.486796,53.34024 111.001264,52.7517411 C111.515731,52.1632421 112.440805,52.0708518 112.91422,52.8852108 C113.387634,53.6995698 114.625128,57.1044027 114.625128,57.1044027 C114.625128,57.1044027 118.416578,57.2539275 119.332489,57.3755978 C120.2484,57.497268 121.032566,58.5821451 119.734911,59.3762901 C118.044581,60.5140715 116.248699,62.0538096 116.248699,62.0538096 C116.248699,62.0538096 117.248403,65.2069843 117.587512,66.3494081 C117.823136,67.375481 117.132099,67.6986214 116.363212,67.5120457 C114.86538,66.6237948 111.922885,65.2069843 111.922885,65.2069843 C111.922885,65.2069843 110.63872,65.9380697 109.067925,66.733182 C107.26131,67.6221099 106.482166,67.4918318 106.482166,66.3494081 C106.482166,65.2069843 107.947308,62.1990788 107.947308,62.1990788 C107.947308,62.1990788 106.36263,61.0314119 105.111155,60.2062206 C103.859679,59.3810293 102.47311,58.1933418 103.762003,57.5825726 C105.017811,57.3755978 109.18047,57.1562431 109.18047,57.1562431 Z" id="Path-4" stroke-width="2"></path>
                <path d="M133.378952,57.1562431 C133.378952,57.1562431 134.685278,53.34024 135.199746,52.7517411 C135.714213,52.1632421 136.639287,52.0708518 137.112702,52.8852108 C137.586116,53.6995698 138.82361,57.1044027 138.82361,57.1044027 C138.82361,57.1044027 142.61506,57.2539275 143.530971,57.3755978 C144.446882,57.497268 145.231048,58.5821451 143.933393,59.3762901 C142.243063,60.5140715 140.447181,62.0538096 140.447181,62.0538096 C140.447181,62.0538096 141.446885,65.2069843 141.785994,66.3494081 C142.021618,67.375481 141.330581,67.6986214 140.561694,67.5120457 C139.063862,66.6237948 136.121367,65.2069843 136.121367,65.2069843 C136.121367,65.2069843 134.837202,65.9380697 133.266407,66.733182 C131.459792,67.6221099 130.680647,67.4918318 130.680647,66.3494081 C130.680647,65.2069843 132.14579,62.1990788 132.14579,62.1990788 C132.14579,62.1990788 130.561112,61.0314119 129.309636,60.2062206 C128.058161,59.3810293 126.671592,58.1933418 127.960484,57.5825726 C129.216293,57.3755978 133.378952,57.1562431 133.378952,57.1562431 Z" id="Path-4" stroke-width="2"></path>
                <path d="M120.473094,39.7254794 C120.473094,39.7254794 121.779421,35.9094763 122.293888,35.3209773 C122.808356,34.7324783 123.73343,34.6400881 124.206845,35.4544471 C124.680259,36.268806 125.917753,39.6736389 125.917753,39.6736389 C125.917753,39.6736389 129.709203,39.8231638 130.625114,39.944834 C131.541025,40.0665043 132.325191,41.1513813 131.027536,41.9455264 C129.337206,43.0833077 127.541324,44.6230458 127.541324,44.6230458 C127.541324,44.6230458 128.541027,47.7762205 128.880137,48.9186443 C129.115761,49.9447173 128.424724,50.2678577 127.655837,50.081282 C126.158005,49.193031 123.21551,47.7762205 123.21551,47.7762205 C123.21551,47.7762205 121.931344,48.507306 120.36055,49.3024182 C118.553935,50.1913462 117.77479,50.0610681 117.77479,48.9186443 C117.77479,47.7762205 119.239933,44.7683151 119.239933,44.7683151 C119.239933,44.7683151 117.655255,43.6006481 116.403779,42.7754568 C115.152304,41.9502655 113.765735,40.7625781 115.054627,40.1518089 C116.310436,39.944834 120.473094,39.7254794 120.473094,39.7254794 Z" id="Path-4" stroke-width="2"></path>
                <path d="M144.671576,39.7254794 C144.671576,39.7254794 145.977903,35.9094763 146.49237,35.3209773 C147.006838,34.7324783 147.931912,34.6400881 148.405327,35.4544471 C148.878741,36.268806 150.116235,39.6736389 150.116235,39.6736389 C150.116235,39.6736389 153.907685,39.8231638 154.823596,39.944834 C155.739507,40.0665043 156.523673,41.1513813 155.226018,41.9455264 C153.535688,43.0833077 151.739806,44.6230458 151.739806,44.6230458 C151.739806,44.6230458 152.739509,47.7762205 153.078619,48.9186443 C153.314243,49.9447173 152.623206,50.2678577 151.854319,50.081282 C150.356487,49.193031 147.413992,47.7762205 147.413992,47.7762205 C147.413992,47.7762205 146.129826,48.507306 144.559032,49.3024182 C142.752417,50.1913462 141.973272,50.0610681 141.973272,48.9186443 C141.973272,47.7762205 143.438415,44.7683151 143.438415,44.7683151 C143.438415,44.7683151 141.853737,43.6006481 140.602261,42.7754568 C139.350786,41.9502655 137.964217,40.7625781 139.253109,40.1518089 C140.508918,39.944834 144.671576,39.7254794 144.671576,39.7254794 Z" id="Path-4" stroke-width="2"></path>
            </g>
        </g>
    </g>
</svg>