<?xml version="1.0" encoding="UTF-8" standalone="no"?>
<svg width="40px" height="46px" viewBox="0 0 40 46" version="1.1" xmlns="http://www.w3.org/2000/svg" xmlns:xlink="http://www.w3.org/1999/xlink">
    <!-- Generator: Sketch 41.2 (35397) - http://www.bohemiancoding.com/sketch -->
    <title>Group 20</title>
    <desc>Created with Sketch.</desc>
    <defs></defs>
    <g id="final-new-" stroke="none" stroke-width="1" fill="none" fill-rule="evenodd">
        <g id="Landing-page--Copy-36" transform="translate(0.000000, -1.000000)" fill="#53ADD0">
            <g id="Group-20" transform="translate(0.000000, 1.000000)">
                <path d="M37.457037,11.2751935 C37.4533333,12.0913226 37.1992593,12.8495806 36.7688889,13.4772581 C35.1333333,11.4124516 33.122963,9.65480645 30.8437037,8.31264516 C31.5496296,7.69312903 32.4792593,7.31770968 33.4940741,7.32216129 C35.6888889,7.32958065 37.462963,9.09909677 37.457037,11.2751935 Z" id="Shape"></path>
                <path d="M2.24962963,11.2751935 C2.25333333,12.0913226 2.50740741,12.8495806 2.93777778,13.4772581 C4.57333333,11.4124516 6.5837037,9.65480645 8.86296296,8.31264516 C8.15703704,7.69312903 7.22740741,7.31770968 6.21259259,7.32216129 C4.01777778,7.32958065 2.2437037,9.09909677 2.24962963,11.2751935 Z" id="Shape"></path>
                <path d="M38.9437037,23.3872903 C37.3637037,15.1889032 31.5251852,9.33725806 23.3244444,7.73467742 C21.657037,7.40896774 21.5622222,7.11145161 21.722963,5.40574194 L21.7644444,4.95687097 L22.2162963,4.95687097 C22.5074074,4.95687097 22.7955556,4.95909677 23.0785185,4.96058065 C23.3540741,4.96280645 23.6259259,4.96429032 23.8955556,4.96429032 C24.2859259,4.96429032 24.6051852,4.96058065 24.9044444,4.95019355 C25.7607407,4.92274194 26.162963,4.58293548 26.2503704,3.81058065 C26.3511111,2.93880645 26.3555556,2.00990323 26.2659259,1.04835484 C26.2325926,0.684806452 26.0555556,0.0734516129 25.2548148,0.0697419355 C23.3555556,0.0556451613 21.6266667,0.0497096774 19.9718519,0.0497096774 C18.1340741,0.0497096774 16.4274074,0.0578709677 14.7577778,0.0734516129 C14.0318519,0.0793870968 13.5444444,0.593548387 13.5148148,1.38370968 C13.497037,1.88006452 13.5007407,2.39274194 13.5051852,2.88687097 L13.5074074,3.14729032 C13.5155556,4.43825806 14.0288889,4.94425806 15.337037,4.95835484 C15.9874074,4.96429032 16.6392593,4.96206452 17.2837037,4.96058065 C17.5733333,4.96058065 17.8607407,4.95835484 18.1459259,4.95835484 L18.5940741,4.95835484 L18.64,5.405 C18.8066667,7.06916129 18.7074074,7.38670968 17.1037037,7.63451613 C16.9666667,7.65454839 16.8340741,7.68422581 16.6933333,7.71612903 C16.5740741,7.74358065 16.4555556,7.76954839 16.3362963,7.79180645 C11.4422222,8.68806452 6.97777778,11.6483871 4.08888889,15.9115484 C1.16666667,20.2259032 0.104444444,25.3215161 1.09111111,30.2553871 C2.94296296,39.4961935 10.7155556,45.9495484 19.9933333,45.9495484 C21.3614815,45.9495484 22.7466667,45.8063548 24.1125926,45.5229355 C34.0674074,43.4618387 40.8592593,33.3255161 38.9437037,23.3872903 Z M31.0896296,37.9121613 C28.1103704,40.882871 24.1888889,42.5188387 20.0451852,42.5188387 L20.042963,42.5188387 L19.9,42.5188387 C11.2133333,42.4394516 4.17925926,35.2812581 4.21925926,26.5627742 C4.25925926,17.9533548 11.34,10.948 20.0074074,10.948 L20.0962963,10.9502258 C24.3325926,10.9739677 28.2814815,12.6299677 31.2177778,15.6162581 C34.1518519,18.6003226 35.7577778,22.5919355 35.74,26.8550968 C35.7222222,31.0121613 34.0711111,34.9392258 31.0896296,37.9121613 Z" id="Shape"></path>
                <path d="M20,13.9476452 C12.9311111,13.9476452 7.17925926,19.7080323 7.17925926,26.7890645 C7.17925926,27.2104839 7.52074074,27.5525161 7.94148148,27.5525161 C8.36222222,27.5525161 8.7037037,27.2104839 8.7037037,26.7890645 C8.7037037,20.550129 13.7711111,15.4738065 20,15.4738065 C26.2288889,15.4738065 31.297037,20.5493871 31.297037,26.7890645 C31.297037,33.028 26.2296296,38.1035806 20,38.1035806 C16.5555556,38.1035806 13.3533333,36.5618387 11.1948148,33.8738065 L12.1014815,33.1949355 C12.4674074,32.9211613 12.4,32.3535806 11.98,32.1732903 L8.36518519,30.6204194 C7.94592593,30.440129 7.48814815,30.7821613 7.54222222,31.2362258 L8.00666667,35.1484516 C8.06074074,35.6025161 8.58518519,35.8280645 8.95111111,35.5542903 L9.97259259,34.7893548 C12.4222222,37.8661613 16.0725926,39.6304839 20,39.6304839 C27.0696296,39.6304839 32.8207407,33.8700968 32.8207407,26.7890645 C32.8207407,19.7080323 27.0696296,13.9476452 20,13.9476452 Z" id="Shape"></path>
                <path d="M16.5931327,20.0339413 L25.8862809,20.0339413 C25.3388117,20.8757501 25.0296451,21.3152749 24.9588889,21.3718724 L22.4761574,21.3718724 C22.8174074,21.7614273 23.0493364,22.2355628 23.1716204,22.7945946 L25.8185494,22.7945946 C25.8506327,22.8009066 25.8667284,22.8134254 25.8667284,22.8322561 C25.274213,23.6991026 24.9715278,24.1324206 24.9587809,24.1324206 L23.2393519,24.1324206 C23.200787,24.5784677 22.981713,25.115618 22.5824537,25.7435556 C22.054321,26.3780156 21.5488735,26.7893469 21.065787,26.9778649 C20.1641049,27.3987694 19.3012037,27.6090638 18.4768673,27.6090638 C18.4768673,27.690804 20.3412654,29.8484521 24.0700617,34.1008387 L21.6067747,34.1008387 C17.9745525,29.9741659 16.1584414,27.9013089 16.1584414,27.8824781 L16.1584414,26.629338 L16.1777778,26.5822085 C16.4996914,26.626182 16.8764815,26.6481688 17.3080401,26.6481688 C19.3430093,26.6481688 20.6085185,26.0043459 21.1045679,24.7167003 C21.1818056,24.5281822 21.2203704,24.3335626 21.2203704,24.1325258 L15.6947994,24.1325258 C15.6689815,24.1325258 15.6561265,24.120007 15.6561265,24.0948642 C16.2678704,23.2280178 16.5801698,22.7945946 16.5931327,22.7945946 L20.9788272,22.7945946 C20.7276698,22.2796416 20.2413426,21.8933479 19.5201698,21.6168828 C19.004784,21.4536127 18.541142,21.3718724 18.1291358,21.3718724 L15.675463,21.3718724 L15.675463,21.3247429 C16.2678704,20.4642085 16.5737963,20.0339413 16.5931327,20.0339413 Z" id="Shape"></path>
            </g>
        </g>
    </g>
</svg>