<?xml version="1.0" encoding="UTF-8" standalone="no"?>
<svg width="40px" height="40px" viewBox="0 0 40 40" version="1.1" xmlns="http://www.w3.org/2000/svg" xmlns:xlink="http://www.w3.org/1999/xlink">
    <!-- Generator: Sketch 41.2 (35397) - http://www.bohemiancoding.com/sketch -->
    <title>Dashboard  Copy 16</title>
    <desc>Created with Sketch.</desc>
    <defs></defs>
    <g id="FINAL-" stroke="none" stroke-width="1" fill="none" fill-rule="evenodd">
        <g id="Dashboard--Copy-16">
            <g id="Group-24" transform="translate(31.000000, 34.000000)">
                <circle id="Oval-3" fill="#FFFFFF" cx="18.5" cy="18.5" r="18.5"></circle>
                <g id="Group-4" transform="translate(6.000000, 5.000000)"></g>
            </g>
            <ellipse id="Oval" fill="#FFFFFF" cx="19.7140107" cy="19.5" rx="17.7140107" ry="18.5"></ellipse>
            <g id="Group-3" transform="translate(7.000000, 6.000000)" fill="#53ADD0">
                <polygon id="Shape" points="4.61847032 7.45853333 9.82267803 4.53735935 13.3652705 2.54886667 22.0420278 7.45853333"></polygon>
                <path d="M13.3633689,0 L0.377232557,7.45882222 L0.377232557,9.64946667 L26.3491883,9.64946667 L26.3491883,7.45882222 L13.3633689,0 Z M2.4693272,8.0366 L13.3633689,1.86015556 L24.2596291,8.0366 L2.4693272,8.0366 Z" id="Shape"></path>
                <path d="M23.6279756,11.6638889 L23.6279756,10.3702444 L22.9002905,10.3702444 L18.8717168,10.3702444 L18.1440317,10.3702444 L18.1440317,11.6638889 L18.8717168,11.6638889 L18.8717168,20.3438444 L18.1440317,20.3438444 L18.1440317,21.6377778 L18.8717168,21.6377778 L22.9006075,21.6377778 L23.6282926,21.6377778 L23.6282926,20.3441333 L22.9006075,20.3441333 L22.9006075,11.6638889 L23.6279756,11.6638889 Z M21.5200342,20.3441333 L20.2519732,20.3441333 L20.2519732,11.6638889 L21.5200342,11.6638889 L21.5200342,20.3441333 Z" id="Shape"></path>
                <path d="M8.58270601,11.6638889 L8.58270601,10.3702444 L7.85502092,10.3702444 L3.82613028,10.3702444 L3.09844519,10.3702444 L3.09844519,11.6638889 L3.82613028,11.6638889 L3.82613028,20.3438444 L3.09844519,20.3438444 L3.09844519,21.6377778 L3.82613028,21.6377778 L7.85502092,21.6377778 L8.58270601,21.6377778 L8.58270601,20.3441333 L7.85502092,20.3441333 L7.85502092,11.6638889 L8.58270601,11.6638889 Z M6.47476457,20.3441333 L5.20670357,20.3441333 L5.20670357,11.6638889 L6.47476457,11.6638889 L6.47476457,20.3441333 Z" id="Shape"></path>
                <rect id="Rectangle-path" x="2.20722111" y="22.3155111" width="22.3122955" height="1.55335556"></rect>
                <rect id="Rectangle-path" x="0.608912785" y="24.4466444" width="25.5085953" height="1.55335556"></rect>
                <path d="M11.1151086,11.1428571 L16.1210483,11.1428571 L16.1210483,11.1539395 C15.8261431,11.6382822 15.6596043,11.8969533 15.6214901,11.9302623 L14.2841172,11.9302623 C14.4679383,12.1595249 14.5928715,12.4385653 14.6587422,12.7675691 L16.0845633,12.7675691 C16.1018457,12.7712839 16.1105159,12.7786515 16.1105159,12.7897339 C15.7913457,13.2998942 15.6282983,13.5549124 15.6214319,13.5549124 L14.6952271,13.5549124 C14.6744534,13.8174221 14.5564448,14.1335481 14.3413758,14.5031048 C14.0568866,14.8765 13.7846172,15.1185785 13.5243931,15.229526 C13.038684,15.4772386 12.5738651,15.601002 12.1298198,15.601002 L12.1298198,15.6120843 C12.1298198,15.6491081 13.1341151,16.9189367 15.1427056,19.4215702 L13.8158069,19.4215702 C11.8592379,16.9929224 10.8809534,15.7729953 10.8809534,15.761913 L10.8809534,15.0244094 L10.8913694,14.9966725 C11.0647745,15.022552 11.2677401,15.0354917 11.5002077,15.0354917 C12.5963845,15.0354917 13.2780763,14.6565863 13.5452832,13.8987753 C13.5868888,13.7878278 13.6076625,13.6732894 13.6076625,13.5549743 L10.6312034,13.5549743 C10.6172961,13.5549743 10.6103715,13.5476067 10.6103715,13.5328096 C10.9398995,13.0226493 11.1081258,12.7675691 11.1151086,12.7675691 L13.4775504,12.7675691 L13.4775504,12.7564868 C13.3422595,12.4645067 13.0802896,12.2371634 12.6918155,12.0744569 C12.4141927,11.9783685 12.1644427,11.9302623 11.9425073,11.9302623 L10.6207875,11.9302623 L10.6207875,11.9025255 C10.9398995,11.3960799 11.1046927,11.1428571 11.1151086,11.1428571 Z" id="Shape"></path>
            </g>
        </g>
    </g>
</svg>