<?xml version="1.0" encoding="UTF-8" standalone="no"?>
<svg width="25px" height="25px" viewBox="0 0 25 25" version="1.1" xmlns="http://www.w3.org/2000/svg" xmlns:xlink="http://www.w3.org/1999/xlink">
    <!-- Generator: Sketch 41.2 (35397) - http://www.bohemiancoding.com/sketch -->
    <title>Dashboard  Copy 4</title>
    <desc>Created with Sketch.</desc>
    <defs></defs>
    <g id="FINAL-" stroke="none" stroke-width="1" fill="none" fill-rule="evenodd">
        <g id="Dashboard--Copy-4">
            <circle id="Oval-7" fill="#D8D8D8" cx="12.5" cy="12.5" r="12.5"></circle>
            <path d="M7.37947126,5 L7.37947126,9.52592 L7.29144828,9.52592 C6.88029885,9.52592 6.66933333,9.83424 6.65710345,10.15184 C6.65324138,10.1816 6.65066667,10.212 6.65066667,10.24432 L6.6468046,12.97488 L6.28554023,12.97488 L6.28554023,11.13856 C5.90802299,11.34992 5.36041379,11.8176 5.36041379,12.73856 L5.36025287,13.68272 L5.05804598,13.68272 L5.05804598,12.57808 C4.69742529,12.76752 4,13.23312 4,14.21872 L4,20.88176 L8.01832184,20.88176 L8.01832184,19.11936 C8.01832184,19.11936 8.35770115,18.80304 8.73731034,18.36704 L17.7888736,18.36704 L17.7888736,5 L7.37947126,5 Z M17.1765747,17.7584 L9.22167816,17.7584 C9.52517241,17.33392 9.76671264,16.88304 9.76671264,16.52336 L9.76671264,16.08432 L15.9296092,16.08432 L15.9296092,15.45408 L9.76671264,15.45408 L9.7663908,14.44144 L15.9296092,14.44144 L15.9296092,13.81152 L9.76590805,13.81152 L9.76542529,12.79888 L15.9296092,12.79888 L15.9296092,12.1688 L9.76526437,12.1688 L9.76526437,11.852 C9.76526437,11.4904 9.57602299,11.25632 9.33754023,11.15632 L12.1349655,11.15632 L12.1349655,10.52624 L9.23873563,10.52624 L9.23873563,11.12352 C8.84689655,11.02336 8.38006897,11.2568 8.38006897,11.85216 L8.38151724,14.55408 C8.38151724,14.69568 8.02202299,14.70112 7.99209195,14.57152 L7.99209195,5.6088 L17.1767356,5.6088 L17.1767356,17.7584 L17.1765747,17.7584 Z" id="Shape" fill="#494949"></path>
        </g>
    </g>
</svg>