<?xml version="1.0" encoding="UTF-8" standalone="no"?>
<svg width="25px" height="25px" viewBox="0 0 25 25" version="1.1" xmlns="http://www.w3.org/2000/svg" xmlns:xlink="http://www.w3.org/1999/xlink">
    <!-- Generator: Sketch 41.2 (35397) - http://www.bohemiancoding.com/sketch -->
    <title>Dashboard  Copy 4</title>
    <desc>Created with Sketch.</desc>
    <defs></defs>
    <g id="FINAL-" stroke="none" stroke-width="1" fill="none" fill-rule="evenodd">
        <g id="Dashboard--Copy-4">
            <circle id="Oval-7" fill="#D8D8D8" cx="12.5" cy="12.5" r="12.5"></circle>
            <path d="M10.1144681,16.4630795 L11.4980851,13.6325795 L11.4980851,19.8020795 L6.58319149,19.8020795 C6.23278444,19.8020795 5.9487234,19.5159895 5.9487234,19.1630795 L5.9487234,13.1510795 L9.82106383,13.1510795 L8.56702128,15.7010795 C8.53615741,15.7648136 8.54640824,15.8409916 8.59300209,15.8941533 C8.63959594,15.947315 8.71337666,15.9670136 8.78,15.9440795 L9.53659574,15.6845795 L9.79425532,16.4465795 C9.81830916,16.512621 9.87919298,16.5578162 9.94894739,16.5614106 C10.0187018,16.5650049 10.0838476,16.5263037 10.1144681,16.4630795 Z M15.3644681,15.7010795 C15.395332,15.7648136 15.3850811,15.8409916 15.3384873,15.8941533 C15.2918934,15.947315 15.2181127,15.9670136 15.1514894,15.9440795 L14.3948936,15.6845795 L14.137234,16.4465795 C14.114669,16.5140268 14.053892,16.5610699 13.9833715,16.5656733 C13.9128511,16.5702767 13.846553,16.5315288 13.8155319,16.4675795 L12.4334043,13.6340795 L12.4334043,19.8020795 L17.3482979,19.8020795 C17.6987049,19.8020795 17.982766,19.5159895 17.982766,19.1630795 L17.982766,13.1510795 L14.1104255,13.1510795 L15.3644681,15.7010795 Z M11.4921277,9.82107951 L5.63446809,9.82107951 C5.28752137,9.82104485 5.00488657,10.1016893 5,10.4510795 L5,11.5970795 C5,11.9499895 5.28406104,12.2360795 5.63446809,12.2360795 L11.4980851,12.2360795 L11.4921277,9.82107951 Z M18.2910638,9.82107951 L12.4334043,9.82107951 L12.4334043,12.2420795 L18.2970213,12.2420795 C18.6474283,12.2420795 18.9314894,11.9559895 18.9314894,11.6030795 L18.9314894,10.4510795 C18.9290339,10.0999282 18.6456908,9.8165708 18.2970213,9.81657951 L18.2910638,9.82107951 Z M14.5751064,8.95107951 L11.9657447,8.95107951 L11.9657447,8.96007951 L11.9657447,8.95107951 L9.35638298,8.95107951 C8.45608363,8.95186316 7.67084974,8.33528638 7.45202165,7.455748 C7.23319357,6.57620963 7.63696474,5.65956869 8.43125372,5.23269628 C9.2255427,4.80582387 10.2063819,4.97833771 10.81,5.65107951 L11.9657447,6.94107951 L13.12,5.65107951 C13.7233698,4.97861413 14.7036934,4.80593329 15.4978703,5.23222532 C16.2920472,5.65851735 16.6963146,6.57440807 16.4784603,7.45380747 C16.260606,8.33320687 15.4765252,8.95048657 14.5765957,8.95107951 L14.5751064,8.95107951 Z M10.7519149,7.60107951 L9.81659574,6.55107951 C9.69916695,6.41999433 9.53167768,6.34575082 9.35638298,6.34707951 C9.0133789,6.34707951 8.73531916,6.6271254 8.73531916,6.97257951 C8.73531916,7.31803361 9.0133789,7.5980795 9.35638298,7.59807951 L10.7519149,7.60107951 Z M13.1795745,7.60107951 L14.5751064,7.60107951 C14.9181105,7.6010795 15.1961702,7.32103361 15.1961702,6.97557951 C15.1961702,6.6301254 14.9181105,6.35007951 14.5751064,6.35007951 C14.400313,6.34817611 14.2329711,6.42126345 14.1148936,6.55107951 L13.1795745,7.60107951 Z" id="Shape" fill="#494949"></path>
        </g>
    </g>
</svg>