<?xml version="1.0" encoding="UTF-8" standalone="no"?>
<svg width="40px" height="40px" viewBox="0 0 40 40" version="1.1" xmlns="http://www.w3.org/2000/svg" xmlns:xlink="http://www.w3.org/1999/xlink">
    <!-- Generator: Sketch 41.2 (35397) - http://www.bohemiancoding.com/sketch -->
    <title>cash invest  copy 40</title>
    <desc>Created with Sketch.</desc>
    <defs></defs>
    <g id="-main-file-" stroke="none" stroke-width="1" fill="none" fill-rule="evenodd">
        <g id="cash-invest--copy-40">
            <rect id="Rectangle-9" fill="#F2F2F2" x="0" y="0" width="40" height="40"></rect>
            <path d="M33.7372586,22.2150278 C33.7372586,20.7799394 31.3639513,20 29.1708953,20 C26.9177555,20 24.604532,20.811137 24.5144064,22.1838303 C24.4543227,22.2462254 24.4242809,22.3086206 24.4242809,22.4022133 L24.4242809,23.2757454 C23.4929831,22.6829915 22.0209318,22.3710157 20.5789223,22.3710157 C18.1755732,22.3710157 15.7121404,23.2445478 15.7121404,24.7108338 L15.7121404,24.8356241 L15.7121404,24.9292169 L15.7121404,25.8651441 C14.8108845,25.2411926 13.2787495,24.8980193 11.8066982,24.8980193 C9.43339095,24.8980193 7,25.7715514 7,27.2378374 L7,27.3314302 L7,27.4250229 L7,29.5152604 C7,30.9815464 9.46343281,31.7614858 11.8066982,31.7614858 C13.5190844,31.7614858 15.3215962,31.3247198 16.1627684,30.4823852 C16.9738987,31.3247198 18.8064524,31.7614858 20.5188386,31.7614858 C22.2312248,31.7614858 24.0337366,31.3247198 24.8448669,30.4823852 C25.6259554,31.3247198 27.3683835,31.7302883 29.0807697,31.7302883 C31.7244537,31.7302883 33.7372586,30.7319658 33.7372586,29.4216677 L33.7372586,27.3938253 C33.7372586,27.3314302 33.7372586,27.269035 33.7072167,27.2066399 C33.7372586,27.1130471 33.7372586,27.0194544 33.7372586,26.9258617 L33.7372586,24.8980193 C33.7372586,24.8356241 33.7372586,24.773229 33.7072167,24.7108338 C33.7372586,24.6172411 33.7372586,24.5236484 33.7372586,24.4300557 L33.7372586,22.4022133 L33.7372586,22.3086206 L33.7372586,22.2150278 Z M32.8360026,26.9258617 C32.8360026,27.487418 31.3639513,28.298555 29.0807697,28.298555 C26.7675462,28.298555 25.3255368,27.5186156 25.3255368,26.9882568 L25.3255368,26.9570593 L25.3255368,25.8963417 C26.2267927,26.4578981 27.6688021,26.7698738 29.0807697,26.7698738 C30.6729885,26.7698738 31.9948305,26.4267005 32.8360026,25.8651441 L32.8360026,26.9258617 Z M16.6133963,26.0523296 C17.5446941,26.6450835 19.0768291,26.9258617 20.5789223,26.9258617 C22.0209318,26.9258617 23.523025,26.6138859 24.4242809,26.021132 L24.4242809,26.9258617 C24.4242809,27.487418 22.7719784,28.298555 20.5188386,28.298555 C18.1755732,28.298555 16.6133963,27.5186156 16.6133963,26.9882568 L16.6133963,26.0523296 Z M32.8360026,24.4300557 C32.8360026,24.991612 31.3639513,25.802749 29.0807697,25.802749 C26.7675462,25.802749 25.3255368,25.0228096 25.3255368,24.4924508 L25.3255368,23.5565236 C26.2267927,24.1492775 27.698844,24.4300557 29.1708953,24.4300557 C30.552821,24.4300557 31.9647886,24.1180799 32.8360026,23.5565236 L32.8360026,24.4300557 Z M29.1708953,20.9047297 C31.4240351,20.9047297 32.8660445,21.6846691 32.8660445,22.2150278 C32.8660445,22.7453866 31.4240351,23.525326 29.1708953,23.525326 C26.8877137,23.525326 25.3856205,22.7765842 25.3856205,22.2462254 C25.3555786,21.7158666 26.9477974,20.9047297 29.1708953,20.9047297 Z M20.5789223,23.306943 C22.9221877,23.306943 24.4242809,24.1180799 24.4242809,24.6484387 C24.4242809,25.1787975 22.9221877,25.9899344 20.5789223,25.9899344 C18.2056151,25.9899344 16.6133963,25.209995 16.6133963,24.6796363 C16.6133963,24.1180799 18.2656988,23.306943 20.5789223,23.306943 Z M11.8066982,25.802749 C14.1199217,25.802749 15.6220148,26.6138859 15.6220148,27.1442447 C15.6220148,27.6746035 14.1499635,28.4857404 11.8066982,28.4857404 C9.46343281,28.4857404 7.90125591,27.7058011 7.90125591,27.1754423 C7.90125591,26.6450835 9.5535584,25.802749 11.8066982,25.802749 Z M11.8066982,30.794361 C9.46343281,30.794361 7.90125591,30.0144216 7.90125591,29.4840628 L7.90125591,28.5481356 C8.83255368,29.1408895 10.3346469,29.4216677 11.8066982,29.4216677 C13.2787495,29.4216677 14.8108845,29.0784944 15.7121404,28.4545429 L15.7121404,29.4216677 C15.7121404,29.983224 14.1499635,30.794361 11.8066982,30.794361 Z M20.5188386,30.794361 C18.1755732,30.794361 16.6133963,30.0144216 16.6133963,29.4840628 L16.6133963,29.4528653 L16.6133963,28.3297526 C17.5446941,28.9225065 19.0467873,29.2344822 20.5188386,29.2344822 C21.9908899,29.2344822 23.4929831,28.8913089 24.4242809,28.298555 L24.4242809,29.4216677 C24.4242809,29.983224 22.862104,30.794361 20.5188386,30.794361 Z M29.0807697,30.794361 C26.7675462,30.794361 25.3255368,30.0144216 25.3255368,29.4840628 L25.3255368,29.4528653 L25.3255368,28.3921477 C26.2267927,28.9537041 27.6688021,29.2656798 29.0807697,29.2656798 C30.6729885,29.2656798 31.9948305,28.9225065 32.8360026,28.3609501 L32.8360026,29.4528653 C32.8360026,29.983224 31.3639513,30.794361 29.0807697,30.794361 Z" id="Shape" fill="#53ADD0"></path>
            <path d="M33.4606337,10.6335654 L33.4606337,10.5087751 C33.4606337,10.4775775 33.4305919,10.4151823 33.4305919,10.3839848 C33.4305919,10.3527872 33.40055,10.3215896 33.40055,10.290392 C33.3705081,10.2279969 33.3705081,10.1967993 33.3404663,10.1656017 C33.3404663,10.1344042 33.3104244,10.1032066 33.3104244,10.072009 C33.2803826,10.0096139 33.2202988,9.94721872 33.1602151,9.88482357 C33.1001314,9.79123084 33.0400476,9.76003327 32.9799639,9.72883569 C32.9499221,9.69763811 32.9198802,9.69763811 32.8898383,9.66644054 C32.8597965,9.63524296 32.7997127,9.60404539 32.7696709,9.60404539 C32.739629,9.57284781 32.7095871,9.57284781 32.6795453,9.57284781 C32.6495034,9.54165024 32.5894197,9.54165024 32.5593778,9.54165024 C32.529336,9.54165024 32.4992941,9.51045266 32.4392104,9.51045266 C32.4091685,9.51045266 32.3791266,9.51045266 32.3791266,9.47925509 L29.1346054,9.01129146 C28.4736844,8.91769874 27.8428053,9.41685994 27.7526797,10.1032066 C27.6625541,10.7895532 28.1432239,11.4447023 28.8041449,11.538295 L29.4049822,11.6318878 L22.9760234,17.4970319 L18.1392833,14.2212865 C17.6886554,13.9093108 17.11786,13.9405083 16.6972739,14.2836817 L7.47442177,21.7710997 C6.93366823,22.2078657 6.84354264,23.0190027 7.26412873,23.5493615 C7.50446363,23.8613372 7.864966,24.0485227 8.22546836,24.0485227 C8.49584513,24.0485227 8.7662219,23.95493 8.97651495,23.7677445 L17.5084042,16.8418828 L22.405228,20.1800234 C22.8558559,20.4919991 23.486735,20.4608015 23.9073211,20.0552331 L30.9972009,13.5349399 L30.9972009,14.1588914 C30.9972009,14.8764356 31.5379545,15.4379919 32.2289173,15.4379919 C32.9198802,15.4379919 33.4606337,14.8764356 33.4606337,14.1588914 L33.4606337,10.7271581 L33.4606337,10.6335654 Z" id="Shape" fill="#53ADD0"></path>
        </g>
    </g>
</svg>