<?xml version="1.0" encoding="UTF-8" standalone="no"?>
<svg width="40px" height="40px" viewBox="0 0 40 40" version="1.1" xmlns="http://www.w3.org/2000/svg" xmlns:xlink="http://www.w3.org/1999/xlink">
    <!-- Generator: Sketch 41.2 (35397) - http://www.bohemiancoding.com/sketch -->
    <title>cash invest  copy 40</title>
    <desc>Created with Sketch.</desc>
    <defs></defs>
    <g id="-main-file-" stroke="none" stroke-width="1" fill="none" fill-rule="evenodd">
        <g id="cash-invest--copy-40">
            <rect id="Rectangle-9" fill="#F2F2F2" x="0" y="0" width="40" height="40"></rect>
            <g id="Group" transform="translate(6.000000, 4.000000)" fill="#53ADD0">
                <g id="Shape">
                    <path d="M28.81005,12.4886406 C28.77235,12.2265938 28.63315,11.9359688 28.5828833,11.745125 C28.4190333,11.1222188 28.2455167,10.5104531 28.0033667,9.91273438 C27.5181,8.71535938 26.8375667,7.60275 26.0004333,6.61995313 C23.6408,3.84884375 20.6446167,2.35454688 17.197,1.80042188 C16.5396667,1.71759375 15.8949,1.67157813 15.2926667,1.64929688 L15.2926667,1.2031875 C15.2926667,0.9861875 15.20035,0.7769375 15.0394,0.63065625 C14.8977833,0.50084375 14.7136333,0.429640625 14.5203,0.429640625 C14.3574167,0.429640625 14.2017833,0.480015625 14.0698333,0.5754375 C13.9610833,0.65778125 13.8852,0.74884375 13.8320333,0.8525 C13.7812833,0.958578125 13.7566333,1.05351563 13.75035,1.150875 C13.7440667,1.19882813 13.7411667,1.24048438 13.7406833,1.2806875 C13.7397167,1.39839063 13.7392333,1.28601563 13.7382667,1.64978125 C13.1234667,1.67303125 12.4559833,1.71904688 11.8059,1.80042188 C8.35441667,2.35503125 5.35823333,3.84932813 2.9986,6.6204375 C2.16146667,7.60323438 1.48093333,8.71535938 0.995666667,9.91321875 C0.753516667,10.5109375 0.58,11.1227031 0.41615,11.7456094 C0.365883333,11.9364531 0.226683333,12.2270781 0.188983333,12.489125 C0.157566667,12.706125 0.196233333,12.9042344 0.413733333,13.0093438 C0.557283333,13.0776406 0.72645,13.0698906 0.850666667,12.9885156 C0.90625,12.9526719 0.953133333,12.9013281 0.984066667,12.8354531 C1.13438333,12.512375 1.41906667,12.3622188 1.70665,12.2212656 C2.4215,11.8720313 3.18951667,11.7611094 3.97735,11.749 C4.95658333,11.7339844 5.91358333,11.8405469 6.8121,12.2658281 C6.9919,12.3510781 7.15623333,12.4237344 7.15478333,12.6896563 C7.15381667,12.8935781 7.32588333,13.0292031 7.53855,13.0476094 C7.76233333,13.0684375 7.95228333,12.9686563 7.99481667,12.7472969 C8.04895,12.4687813 8.24131667,12.3627031 8.45688333,12.2580781 C8.59898333,12.1888125 8.74253333,12.12875 8.88801667,12.0774063 C9.01175,12.0323594 9.13693333,11.993125 9.2626,11.9592188 C9.57966667,11.8734844 9.90301667,11.8192344 10.22975,11.78775 C10.469,11.7645 10.71115,11.7533594 10.95475,11.7509375 C11.9702333,11.7475469 12.88325,11.8570156 13.7363333,12.2638906 C13.9369167,12.3607656 14.0712833,12.4377813 14.1263833,12.6271719 C14.1626333,12.7531094 14.1350833,12.8398125 14.2293333,12.9473438 C14.3753,13.113 14.64645,13.1449688 14.7880667,12.9521875 C14.8818333,12.8252813 14.83785,12.6760938 14.90455,12.5448281 C14.9698,12.4164688 15.0925667,12.34575 15.2167833,12.2852031 C15.2419167,12.2730938 15.26705,12.2609844 15.2921833,12.248875 C16.13705,11.8541094 17.03895,11.7475469 17.9621167,11.7504531 C18.6199333,11.7577188 19.1868833,11.8105156 19.7354667,11.9592188 C20.0090333,12.0328438 20.2777667,12.1306875 20.5411833,12.2580781 C20.75675,12.3627031 20.9491167,12.4687813 21.00325,12.7472969 C21.0457833,12.9681719 21.23525,13.0684375 21.4595167,13.0476094 C21.6721833,13.0287188 21.84425,12.8935781 21.8432833,12.6896563 C21.8418333,12.4237344 22.0061667,12.3510781 22.1859667,12.2658281 C23.0849667,11.8410313 24.0414833,11.7339844 25.0207167,11.749 C25.80855,11.7611094 26.57705,11.8720313 27.2914167,12.2212656 C27.5785167,12.3622188 27.8632,12.5118906 28.014,12.8354531 C28.0449333,12.9013281 28.0918167,12.9526719 28.1474,12.9885156 C28.2716167,13.070375 28.4407833,13.078125 28.5843333,13.0093438 C28.8028,12.90375 28.8414667,12.706125 28.81005,12.4886406 Z"></path>
                    <g transform="translate(5.316667, 13.562500)">
                        <path d="M9.88948333,6.67807812 C10.5753333,6.85923437 11.5598833,6.63884375 12.1601833,6.26296875 C12.1925667,6.28864062 12.2264,6.31285937 12.2607167,6.33659375 C12.3211333,6.37776562 12.38445,6.417 12.45115,6.4538125 C12.5304167,6.49401562 12.63675,6.54148437 12.7745,6.58895312 C12.78175,6.59234375 12.7899667,6.59573437 12.7972167,6.599125 C12.8813167,6.63496875 12.9639667,6.66015625 13.0495167,6.676625 C13.1287833,6.69164062 13.2070833,6.6979375 13.2858667,6.696 C13.3651333,6.6979375 13.4434333,6.69164062 13.5251167,6.67614062 C13.6077667,6.66015625 13.6909,6.63496875 13.7745167,6.599125 C13.78225,6.59573437 13.7899833,6.59234375 13.7977167,6.59089062 C13.9349833,6.54196875 14.0413167,6.4945 14.1210667,6.4538125 C14.1872833,6.417 14.2506,6.37825 14.3115,6.33707812 C14.355,6.30753125 14.39705,6.27653125 14.43765,6.24359375 C15.2781667,6.6591875 16.3569667,6.83695312 17.2293833,6.44654687 C17.3304,6.40101562 17.3333,6.28476562 17.2511333,6.20920312 C17.2202,6.180625 17.1834667,6.1593125 17.1496333,6.134125 C16.9766,6.0043125 16.8190333,5.86626562 16.6779,5.71998437 C16.1965,5.219625 15.9040833,4.62045312 15.8112833,3.909875 C15.7958167,3.79217187 15.78615,3.67059375 15.7818,3.54659375 C15.7784167,3.45359375 15.7731,3.36059375 15.76585,3.26807812 C15.73975,2.93046875 15.6894833,2.59334375 15.6339,2.25960937 C15.6261667,2.21165625 15.6165,2.1641875 15.6049,2.11671875 C15.5391667,1.83432812 15.4130167,1.57276562 15.1926167,1.36690625 C14.26365,0.501328125 12.85425,0.375875 11.7778667,1.0481875 C11.4395333,1.259375 11.1886833,1.52578125 11.0393333,1.871625 C10.9943833,1.97528125 10.9591,2.08620312 10.933,2.204875 C10.8537333,2.56573437 10.81555,2.9295 10.788,3.29520312 C10.7822,3.37076562 10.7773667,3.44632812 10.77205,3.522375 C10.7648,3.62942187 10.76045,3.7374375 10.75175,3.84448437 C10.7435333,3.94426562 10.7324167,4.0435625 10.7121167,4.1404375 C10.5821,4.76528125 10.3012833,5.29228125 9.88126667,5.72628125 C9.72901667,5.8841875 9.55743333,6.0295 9.36893333,6.1631875 C9.00015,6.42232812 9.69566667,6.62673437 9.88948333,6.67807812 Z"></path>
                        <path d="M2.54426667,3.98979687 C2.55151667,4.11234375 2.57616667,4.2334375 2.59115,4.3555 C2.6245,4.62626562 2.75113333,4.88685937 3.00971667,5.01570312 C3.06385,5.0588125 3.09913333,5.10289062 3.11895,5.17990625 C3.2741,5.78489062 3.57618333,6.27265625 4.06628333,6.60832812 C4.1267,6.6495 4.19001667,6.68873437 4.25671667,6.72554687 C4.33598333,6.76623437 4.44231667,6.81370312 4.57958333,6.8606875 C4.58731667,6.86407812 4.59505,6.86746875 4.60278333,6.87085937 C4.6864,6.90670312 4.76953333,6.932375 4.85508333,6.94835937 C4.93386667,6.963375 5.01265,6.96967187 5.09143333,6.96773437 C5.17021667,6.96967187 5.249,6.96289062 5.3302,6.947875 C5.41285,6.932375 5.49598333,6.90670312 5.58008333,6.87085937 C5.58781667,6.86746875 5.59555,6.86407812 5.60328333,6.862625 C5.74055,6.81370312 5.84688333,6.76623437 5.92663333,6.72554687 C5.99285,6.68873437 6.05616667,6.6495 6.11658333,6.60832812 C6.3713,6.43492187 6.58638333,6.20678125 6.74781667,5.94473437 C6.82998333,5.81104687 6.8962,5.67009375 6.9542,5.52478125 C7.01075,5.38382812 7.01026667,5.22785937 7.10838333,5.10579687 C7.1804,5.0161875 7.27513333,4.94885937 7.35971667,4.870875 C7.51196667,4.73089062 7.56658333,4.557 7.59123333,4.3555 C7.60621667,4.2334375 7.63086667,4.11234375 7.63811667,3.98979687 C7.6415,3.92973437 7.64391667,3.86821875 7.64005,3.8071875 C7.64053333,3.79895312 7.64101667,3.79071875 7.6415,3.78248437 C7.64826667,3.6521875 7.5748,3.47442187 7.4356,3.44148437 C7.36503333,3.42501562 7.30075,3.45407812 7.26691667,3.37803125 C7.24758333,3.33492187 7.27996667,3.220125 7.28528333,3.173625 C7.29833333,3.05834375 7.30461667,2.93482812 7.33265,2.82196875 C7.38485,2.61223437 7.41723333,2.39717187 7.42545,2.18114062 C7.44961667,1.51560937 7.12143333,0.96778125 6.51436667,0.697015625 C6.44525,0.666015625 6.37516667,0.637921875 6.30508333,0.611765625 C5.91358333,0.4669375 5.5071,0.39621875 5.09143333,0.392828125 C5.00153333,0.391859375 4.91115,0.39428125 4.82076667,0.399609375 C4.53028333,0.417046875 4.21998333,0.4398125 3.95366667,0.56865625 C3.92708333,0.581734375 3.90195,0.59578125 3.8773,0.61128125 C3.77918333,0.67425 3.69701667,0.759984375 3.63225,0.857828125 C3.56603333,0.957125 3.54428333,1.0133125 3.44713333,1.09129687 C3.36158333,1.16007812 3.28473333,1.2109375 3.18951667,1.25307812 C3.10493333,1.29085937 3.02905,1.3504375 2.98361667,1.43229687 C2.88936667,1.59989062 2.85601667,1.80284375 2.84828333,1.99271875 C2.83861667,2.23054687 2.84876667,2.468375 2.86568333,2.70571875 C2.87148333,2.79 2.88743333,2.87428125 2.90435,2.95807812 C2.93045,3.0864375 2.95751667,3.21528125 2.95268333,3.34460937 C2.95123333,3.3848125 2.93431667,3.40757812 2.90966667,3.42259375 C2.90193333,3.42453125 2.89371667,3.42598437 2.88501667,3.42695312 C2.8391,3.43228125 2.79221667,3.43034375 2.74678333,3.441 C2.60758333,3.4739375 2.53363333,3.65170312 2.54088333,3.782 C2.54136667,3.79023437 2.54185,3.79846875 2.54233333,3.80670312 C2.53846667,3.86773437 2.54088333,3.92973437 2.54426667,3.98979687 Z"></path>
                        <path d="M18.10905,9.75676562 C17.9548667,8.6548125 16.878,7.77857812 15.7692333,7.77857812 C15.7605333,7.77857812 15.7547333,7.77857812 15.7465167,7.78148437 C15.6778833,7.78729687 15.5981333,7.81296875 15.5464167,7.85317187 C14.8721667,8.4029375 14.1607,8.69792187 13.4038,8.714875 C13.3351667,8.71778125 13.2636333,8.7206875 13.1925833,8.71778125 C13.14425,8.71778125 13.0954333,8.71778125 13.0471,8.714875 C12.3158167,8.68048437 11.62465,8.38840625 10.9702167,7.85317187 C10.9131833,7.80715625 10.8247333,7.78148437 10.7503,7.77857812 C10.7333833,7.77857812 10.7188833,7.77857812 10.7014833,7.78148437 C10.3186833,7.78729687 9.94168333,7.90160937 9.60721667,8.08760937 C9.46705,8.16753125 9.30996667,8.20482812 9.15578333,8.19659375 C9.02141667,8.1936875 8.88705,8.15639062 8.76718333,8.08760937 C8.4187,7.89289062 8.0243,7.77857812 7.62458333,7.77857812 C7.61878333,7.77857812 7.61298333,7.77857812 7.60766667,7.78148437 C7.53613333,7.78439062 7.45638333,7.8100625 7.40176667,7.85317187 C6.73041667,8.4029375 6.01895,8.69792187 5.26205,8.714875 C5.19341667,8.71778125 5.12188333,8.7206875 5.05083333,8.71778125 C5.0025,8.71778125 4.95368333,8.71778125 4.90535,8.714875 C4.17406667,8.68048437 3.48,8.38840625 2.82846667,7.85317187 C2.77143333,7.80715625 2.68008333,7.78148437 2.60565,7.77857812 C2.59115,7.77857812 2.57713333,7.77857812 2.56263333,7.78148437 C1.46836667,7.80134375 0.417116667,8.66885937 0.265833333,9.75676562 C0.0227166667,11.5024531 0.875316667,13.2011562 1.97103333,14.5491719 C2.40506667,15.0844062 2.93963333,15.5939687 3.59358333,16.0207031 C3.97928333,16.2183281 4.41331667,16.4445312 4.74488333,16.6247187 C5.05325,16.7937656 5.27075,16.9226094 5.27075,16.9540937 C5.27655,16.9109844 5.28525,16.8683594 5.29056667,16.82525 C5.33068333,16.5675625 5.37321667,16.309875 5.44475,16.0609062 C5.61343333,15.4685156 5.9218,14.9875312 6.57865,14.8301094 C6.72993333,14.7928125 6.84448333,14.8073437 6.95855,14.9076094 C6.96435,14.9134219 6.97305,14.9192344 6.97836667,14.9245625 C7.45541667,15.3769687 8.04653333,15.5886406 8.68646667,15.6259375 C8.84645,15.6346562 9.00353333,15.6346562 9.15481667,15.6172187 C9.74351667,15.565875 10.2747,15.3367656 10.74595,14.9245625 C10.8257,14.852875 10.9803667,14.8155781 11.0886333,14.8330156 C11.1799833,14.8499687 11.2684333,14.8732187 11.3486667,14.9076094 C11.70585,15.0422656 11.9571833,15.3198125 12.09445,15.6835781 C12.2515333,16.1045 12.3230667,16.554 12.4231167,16.9947812 C12.4318167,17.0262656 12.5173667,17.0035 12.6604333,16.9347187 C12.6633333,16.9347187 12.6691333,16.9318125 12.6749333,16.9289062 C12.7919,16.8974219 12.90645,16.8630312 13.0176167,16.8257344 C13.2061167,16.7656719 13.3888167,16.6997969 13.5633,16.6252031 C13.9833167,16.45325 14.3661167,16.2502969 14.7117,16.0211875 C15.36855,15.5944531 15.9031167,15.0848906 16.33715,14.5496562 C17.1655833,13.5305312 17.9795167,12.0759531 18.1196833,10.6761094 C18.1312833,10.5729375 18.1366,10.4697656 18.1395,10.3670781 C18.1462667,10.1607344 18.1375667,9.95729687 18.10905,9.75676562 Z M7.71641667,14.2861563 C7.45348333,14.0027969 7.27658333,13.6734219 7.16783333,13.3072344 C7.14801667,13.2326406 7.1166,13.1871094 7.03636667,13.1638594 C6.9078,13.1236563 6.83046667,13.0151563 6.80775,12.8892188 C6.77053333,12.6775469 6.75361667,12.431 6.76763333,12.2164219 C6.76763333,12.2106094 6.76473333,12.2047969 6.76473333,12.1994688 C6.75893333,12.0962969 6.81886667,11.9592188 6.93341667,11.9330625 C6.97063333,11.9243438 7.00785,11.9243438 7.04506667,11.9214375 C7.05376667,11.9214375 7.05956667,11.9185313 7.06488333,11.9185313 C7.0876,11.9069063 7.0992,11.8870469 7.1021,11.8555625 C7.105,11.7552969 7.08228333,11.6550313 7.06198333,11.5547656 C7.04748333,11.4888906 7.03636667,11.4230156 7.03056667,11.3571406 C7.01606667,11.1711406 7.00785,10.9851406 7.01606667,10.8015625 C7.02186667,10.6528594 7.05038333,10.4925313 7.12481667,10.3636875 C7.16203333,10.2978125 7.22486667,10.2522813 7.2935,10.2232188 C7.37083333,10.1888281 7.43366667,10.148625 7.50471667,10.0972813 C7.58205,10.0343125 7.60186667,9.99120313 7.6531,9.9141875 C7.70723333,9.8366875 7.77296667,9.7708125 7.8532,9.722375 C7.87301667,9.71075 7.89331667,9.69960938 7.91603333,9.68798438 C8.13305,9.58771875 8.38438333,9.57076563 8.6217,9.55623438 C8.69613333,9.55332813 8.76718333,9.55042188 8.84161667,9.55042188 C8.94746667,9.55042188 9.04993333,9.55623438 9.15578333,9.57028125 C9.3844,9.59304688 9.61011667,9.64196875 9.83003333,9.72189063 C9.88706667,9.74175 9.9441,9.765 10.0016167,9.78776563 C10.4955833,9.9994375 10.7614167,10.4261719 10.7416,10.9473594 C10.7358,11.1164063 10.7101833,11.2825469 10.6671667,11.4482031 C10.64445,11.5339375 10.63865,11.6312969 10.62705,11.7228438 C10.62415,11.7572344 10.5956333,11.8487813 10.61255,11.8802656 C10.6410667,11.9403281 10.6927833,11.9175625 10.7498167,11.9316094 C10.8638833,11.9572813 10.9243,12.0948438 10.9185,12.1980156 C10.9185,12.2038281 10.9185,12.2096406 10.9156,12.2149688 C10.8957833,12.481375 10.9528167,12.7589219 10.82135,13.0020781 C10.7870333,13.0679531 10.7184,13.1309219 10.6497667,13.1565938 C10.5642167,13.1880781 10.5328,13.237 10.5096,13.3169219 C10.3897333,13.7092656 10.1954333,14.0614063 9.90108333,14.3476719 C9.67536667,14.5680625 9.41823333,14.7114375 9.1553,14.7715 C8.6536,14.8930781 8.12193333,14.7298438 7.71641667,14.2861563 Z"></path>
                    </g>
                </g>
            </g>
        </g>
    </g>
</svg>