<?xml version="1.0" encoding="UTF-8" standalone="no"?>
<svg width="40px" height="40px" viewBox="0 0 40 40" version="1.1" xmlns="http://www.w3.org/2000/svg" xmlns:xlink="http://www.w3.org/1999/xlink">
    <!-- Generator: Sketch 41.2 (35397) - http://www.bohemiancoding.com/sketch -->
    <title>cash invest  copy 40</title>
    <desc>Created with Sketch.</desc>
    <defs></defs>
    <g id="-main-file-" stroke="none" stroke-width="1" fill="none" fill-rule="evenodd">
        <g id="cash-invest--copy-40">
            <ellipse id="Oval" fill="#F2F2F2" cx="20.4285714" cy="20" rx="19.4285714" ry="20"></ellipse>
            <g id="Group-2" transform="translate(9.000000, 10.000000)" fill="#53ADD0">
                <path d="M21.2782093,3.71586486 L20.5261628,3.71586486 L19.0218023,3.71586486 L17.5174419,3.71586486 L17.1414186,3.71586486 L16.0130814,3.71586486 L16.0130814,1.72058108 C16.0130814,0.683635135 15.2383023,0.124297297 14.5087209,0.124297297 L8.86730233,0.124297297 C7.48783721,0.124297297 6.9869186,1.07922973 6.9869186,1.72058108 L6.9869186,3.71586486 L5.48255814,3.71586486 L3.97819767,3.71586486 L3.60217442,3.71586486 L1.7217907,3.71586486 C0.891116279,3.71586486 0.217430233,4.4747027 0.217430233,5.35641892 L0.217430233,11.6972838 L0.217430233,12.4952838 L22.7828372,12.4952838 L22.7828372,11.6972838 L22.7828372,5.35641892 C22.7828372,4.4747027 22.1091512,3.71586486 21.2782093,3.71586486 Z M14.5087209,3.71586486 L8.49127907,3.71586486 L8.49127907,1.79351351 C8.52069767,1.77308108 8.62152326,1.72058108 8.86730233,1.72058108 L14.4873256,1.72058108 C14.4934767,1.72058108 14.5015,1.72171622 14.5087209,1.72341892 L14.5087209,3.71586486 Z" id="Shape"></path>
                <path d="M13.3803837,14.8898514 L9.61961628,14.8898514 L9.61961628,13.2935676 L0.217162791,13.2935676 L0.217162791,17.3286892 L0.217162791,19.2797027 C0.217162791,20.1611351 0.890848837,20.8759865 1.72152326,20.8759865 L3.60190698,20.8759865 L3.97793023,20.8759865 L5.48255814,20.8759865 L6.9869186,20.8759865 L17.1414186,20.8759865 L17.5174419,20.8759865 L19.0218023,20.8759865 L20.5261628,20.8759865 L21.2782093,20.8759865 C22.1088837,20.8759865 22.7825698,20.1611351 22.7825698,19.2797027 L22.7825698,17.3286892 L22.7825698,13.2935676 L13.3803837,13.2935676 L13.3803837,14.8898514 Z" id="Shape"></path>
            </g>
        </g>
    </g>
</svg>