<?xml version="1.0" encoding="UTF-8" standalone="no"?>
<svg width="40px" height="40px" viewBox="0 0 40 40" version="1.1" xmlns="http://www.w3.org/2000/svg" xmlns:xlink="http://www.w3.org/1999/xlink">
    <!-- Generator: Sketch 41.2 (35397) - http://www.bohemiancoding.com/sketch -->
    <title>cash invest  copy 40</title>
    <desc>Created with Sketch.</desc>
    <defs></defs>
    <g id="-main-file-" stroke="none" stroke-width="1" fill="none" fill-rule="evenodd">
        <g id="cash-invest--copy-40">
            <rect id="Rectangle-9" fill="#F2F2F2" x="0" y="0" width="40" height="40"></rect>
            <g id="Group" transform="translate(6.000000, 11.000000)">
                <g id="Shape">
                    <path d="M16.6266667,7.66333333 L16.5944444,7.63166667 C15.66,6.80833333 14.9833333,5.82666667 14.5644444,4.78166667 C14.1455556,5.85833333 13.4688889,6.84 12.5344444,7.63166667 L12.5022222,7.66333333 C10.6333333,9.31 8.12,9.84833333 5.83222222,9.37333333 L5.83222222,9.46833333 C5.83222222,14.1866667 9.76333333,18.05 14.5644444,18.05 C19.3655556,18.05 23.2966667,14.2183333 23.2966667,9.5 L23.2966667,9.34166667 C21.0088889,9.84833333 18.4955556,9.31 16.6266667,7.66333333 Z M11.6322222,10.9566667 C11.6322222,10.5766667 11.9544444,10.26 12.3411111,10.26 C12.7277778,10.26 13.05,10.5766667 13.05,10.9566667 C13.05,11.3366667 12.7277778,11.6533333 12.3411111,11.6533333 C11.9544444,11.6533333 11.6322222,11.3366667 11.6322222,10.9566667 Z M14.5644444,16.5616667 C13.3077778,16.5616667 12.5988889,15.5483333 12.5666667,15.5166667 L13.2433333,15.0733333 C13.2433333,15.105 13.7266667,15.77 14.5644444,15.77 C15.4022222,15.77 15.8855556,15.0733333 15.8855556,15.0733333 L16.5622222,15.5166667 C16.53,15.5483333 15.8211111,16.5616667 14.5644444,16.5616667 Z M16.7877778,11.6533333 C16.4011111,11.6533333 16.0788889,11.3366667 16.0788889,10.9566667 C16.0788889,10.5766667 16.4011111,10.26 16.7877778,10.26 C17.1744444,10.26 17.4966667,10.5766667 17.4966667,10.9566667 C17.4966667,11.3366667 17.1744444,11.6533333 16.7877778,11.6533333 Z"></path>
                    <path d="M27.6144444,9.27833333 C26.6155556,8.455 25.3588889,8.20166667 24.1666667,8.48666667 C24.4244444,6.14333333 23.5544444,3.73666667 21.6533333,2.05833333 C19.6233333,0.316666667 16.9488889,-0.19 14.5644444,0.443333333 C12.18,-0.221666667 9.50555556,0.285 7.50777778,2.02666667 L7.47555556,2.05833333 C5.57444444,3.73666667 4.70444444,6.14333333 4.96222222,8.48666667 C3.77,8.20166667 2.51333333,8.455 1.51444444,9.27833333 C0.418888889,10.1966667 -2.73478462e-12,11.59 0.225555556,12.8883333 C1.48222222,13.3316667 2.96444444,13.11 4.06,12.1916667 C4.54333333,11.78 4.89777778,11.2733333 5.12333333,10.735 C5.76777778,15.295 9.76333333,18.81 14.5644444,18.81 C19.3655556,18.81 23.3611111,15.295 24.0055556,10.735 C24.2311111,11.2733333 24.5855556,11.78 25.0688889,12.1916667 C26.1644444,13.11 27.6466667,13.3316667 28.9033333,12.8883333 C29.1611111,11.59 28.71,10.1966667 27.6144444,9.27833333 Z M14.5644444,18.05 C9.76333333,18.05 5.83222222,14.1866667 5.83222222,9.46833333 L5.83222222,9.37333333 C8.12,9.88 10.6333333,9.31 12.5022222,7.66333333 L12.5344444,7.63166667 C13.4688889,6.84 14.1455556,5.85833333 14.5644444,4.78166667 C14.9833333,5.82666667 15.66,6.80833333 16.5944444,7.63166667 L16.6266667,7.66333333 C18.4955556,9.31 21.0088889,9.84833333 23.2966667,9.34166667 L23.2966667,9.5 C23.2966667,14.2183333 19.3655556,18.05 14.5644444,18.05 Z" fill="#53ADD0"></path>
                    <path d="M14.5644444,15.77 C13.7266667,15.77 13.2433333,15.105 13.2433333,15.0733333 L12.5666667,15.5166667 C12.5988889,15.5483333 13.3077778,16.5616667 14.5644444,16.5616667 C15.8211111,16.5616667 16.53,15.5483333 16.5622222,15.5166667 L15.8855556,15.0733333 C15.8855556,15.0733333 15.4022222,15.77 14.5644444,15.77 Z" fill="#53ADD0"></path>
                    <path d="M13.05,10.9566667 C13.05,10.5766667 12.7277778,10.26 12.3411111,10.26 C11.9544444,10.26 11.6322222,10.5766667 11.6322222,10.9566667 C11.6322222,11.3366667 11.9544444,11.6533333 12.3411111,11.6533333 C12.7277778,11.6533333 13.05,11.3366667 13.05,10.9566667 Z" fill="#53ADD0"></path>
                    <path d="M16.7877778,10.26 C16.4011111,10.26 16.0788889,10.5766667 16.0788889,10.9566667 C16.0788889,11.3366667 16.4011111,11.6533333 16.7877778,11.6533333 C17.1744444,11.6533333 17.4966667,11.3366667 17.4966667,10.9566667 C17.4966667,10.5766667 17.1744444,10.26 16.7877778,10.26 Z" fill="#53ADD0"></path>
                </g>
            </g>
        </g>
    </g>
</svg>