<?xml version="1.0" encoding="UTF-8" standalone="no"?>
<svg width="40px" height="40px" viewBox="0 0 40 40" version="1.1" xmlns="http://www.w3.org/2000/svg" xmlns:xlink="http://www.w3.org/1999/xlink">
    <!-- Generator: Sketch 41.2 (35397) - http://www.bohemiancoding.com/sketch -->
    <title>cash invest  copy 40</title>
    <desc>Created with Sketch.</desc>
    <defs></defs>
    <g id="-main-file-" stroke="none" stroke-width="1" fill="none" fill-rule="evenodd">
        <g id="cash-invest--copy-40">
            <rect id="Rectangle-9" fill="#F2F2F2" x="0" y="0" width="40" height="40"></rect>
            <g id="Group" transform="translate(10.000000, 6.000000)">
                <g id="Shape">
                    <path d="M17.3252917,11.2319767 C16.3415,11.2319767 15.5388333,12.0319767 15.5388333,13.0125 C15.5388333,13.993314 16.3415,14.7930233 17.3252917,14.7930233 C18.309375,14.7930233 19.1120417,13.993314 19.1120417,13.0125 C19.1120417,12.0319767 18.309375,11.2319767 17.3252917,11.2319767 Z" fill="#53ADD0"></path>
                    <path d="M20.8145,19.1014535 L19.562375,17.1563953 L18.3105417,15.2116279 C18.309375,15.2075581 18.3085,15.2037791 18.3073333,15.1997093 L17.318875,15.1997093 L16.3307083,15.1997093 C16.328375,15.2081395 16.3263333,15.2168605 16.3242917,15.2255814 L15.0809167,17.156686 L13.8290833,19.1017442 L15.5239583,18.3450581 C15.29675,19.2313953 15.06925,20.118314 14.8420417,21.0043605 L15.82525,21.0043605 L16.300375,22.9357558 L16.7787083,24.8799419 L17.2570417,22.9357558 L17.31975,22.6811047 L17.3821667,22.9357558 L17.8607917,24.8799419 L18.3388333,22.9357558 L18.8139583,21.0043605 L19.7971667,21.0043605 C19.569375,20.1168605 19.3415833,19.2296512 19.1137917,18.3424419 L20.8145,19.1014535 Z" fill="#53ADD0"></path>
                    <polygon fill="#53ADD0" points="5.63879167 14.652907 5.63879167 14.6502907 5.637625 14.6502907 5.63733333 14.6494186 5.63470833 14.6502907 2.26741667 14.6392442 2.26741667 14.6421512 2.26654167 14.6418605 1.47816667 16.7212209 0.690083333 18.8 2.26741667 17.6534884 2.26741667 18.5802326 3.09633333 24.3505814 3.95675 21.0875 4.81016667 24.3505814 5.63879167 18.5802326 5.63879167 17.6622093 7.21379167 18.8072674 6.42541667 16.7281977"></polygon>
                    <path d="M3.96258333,10.765407 C3.01641667,10.765407 2.244375,11.534593 2.244375,12.4781977 C2.244375,13.4212209 3.016125,14.1906977 3.96258333,14.1906977 C4.90904167,14.1906977 5.68108333,13.4215116 5.68108333,12.4781977 C5.68108333,11.5348837 4.90904167,10.765407 3.96258333,10.765407 Z" fill="#53ADD0"></path>
                    <path d="M11.1862917,18.7671512 C11.1862917,19.2081395 11.5470833,19.5677326 11.9895417,19.5677326 C12.4322917,19.5677326 12.7930833,19.2081395 12.7930833,18.7671512 C12.7930833,18.3258721 12.4322917,17.9662791 11.9895417,17.9662791 C11.5470833,17.9662791 11.1862917,18.3258721 11.1862917,18.7671512 Z" fill="#53ADD0"></path>
                    <path d="M12.4212083,19.7502907 L11.986625,19.7502907 L11.5424167,19.7502907 C11.54125,19.7543605 11.540375,19.7581395 11.5392083,19.7622093 L10.980375,20.6305233 L10.42475,21.4936047 L10.0540417,20.515407 L9.68129167,19.5319767 L9.68129167,19.5311047 L9.68041667,19.5311047 L9.680125,19.5305233 L9.67866667,19.5311047 L8.24366667,19.5264535 L7.24645833,18.8017442 L7.61979167,19.7866279 L8.08354167,21.0063953 L8.08354167,21.3927326 L8.476125,23.3375 L8.883875,21.7915698 L9.288125,23.3375 L9.68070833,21.3927326 L9.68070833,20.9578488 L10.4224167,21.4968023 L10.416875,21.5052326 L11.1792917,21.1648256 C11.0769167,21.5633721 10.9748333,21.9622093 10.8724583,22.3607558 L11.314625,22.3607558 L11.743375,23.5976744 L11.9583333,22.7232558 L11.986625,22.6087209 L12.0149167,22.7232558 L12.229875,23.5976744 L12.658625,22.3607558 L13.1007917,22.3607558 C12.9890833,21.9258721 12.877375,21.4906977 12.76625,21.055814 C12.7484583,20.9866279 12.7306667,20.9171512 12.712875,20.8479651 L13.2585833,20 L13.8217917,19.125 L12.709375,19.6215116 L12.4212083,19.7502907 Z" fill="#53ADD0"></path>
                    <path d="M8.88679167,17.6906977 C8.4385,17.6906977 8.07304167,18.0549419 8.07304167,18.5017442 C8.07304167,18.9485465 8.4385,19.3130814 8.88679167,19.3130814 C9.33508333,19.3130814 9.70083333,18.9485465 9.70083333,18.5017442 C9.70083333,18.0549419 9.33508333,17.6906977 8.88679167,17.6906977 Z" fill="#53ADD0"></path>
                    <polygon fill="#000000" points="12.2395 17.8787791 12.4944167 18.0252907 12.4944167 17.7319767 12.4944167 17.4386628 12.2395 17.5851744 12.0009167 17.7226744 11.7506667 17.5790698 11.49575 17.4322674 11.49575 17.7258721 11.49575 18.0188953 11.7506667 17.872093 11.9895417 17.7351744"></polygon>
                    <path d="M8.34166667,9.41075581 C8.53620833,9.2494186 8.78354167,9.11598837 9.07083333,9.01802326 C9.09708333,9.00901163 9.12304167,8.9997093 9.149875,8.99098837 C9.205,8.97383721 9.26158333,8.95872093 9.31933333,8.94418605 C9.359875,8.93401163 9.40070833,8.9247093 9.44241667,8.91569767 C9.49316667,8.90494186 9.54420833,8.89476744 9.59641667,8.88604651 C9.65358333,8.87645349 9.71220833,8.86918605 9.77141667,8.8625 C9.81341667,8.85755814 9.85395833,8.85174419 9.89654167,8.84825581 C10.00125,8.83953488 10.1077083,8.83401163 10.2162083,8.83401163 C10.327625,8.83401163 10.4364167,8.83953488 10.5434583,8.84854651 C10.57875,8.85145349 10.6122917,8.85639535 10.647,8.86046512 C10.717875,8.86802326 10.787875,8.87703488 10.8564167,8.88866279 C10.8698333,8.89098837 10.8844167,8.89186047 10.8975417,8.89418605 C10.9232083,8.89883721 10.9468333,8.90610465 10.9719167,8.91133721 C11.03375,8.92412791 11.094125,8.9377907 11.1533333,8.95319767 C11.1915417,8.96337209 11.228875,8.97383721 11.2659167,8.98517442 C11.3225,9.00261628 11.3773333,9.02093023 11.431,9.04069767 C11.466,9.05377907 11.5007083,9.06627907 11.53425,9.08023256 C11.5885,9.10261628 11.6398333,9.12732558 11.6905833,9.15232558 C11.7194583,9.16686047 11.7489167,9.18023256 11.776625,9.19505814 C11.8372917,9.22790698 11.8935833,9.26366279 11.9484167,9.3005814 C11.962125,9.30988372 11.9781667,9.31831395 11.9912917,9.32790698 C12.053125,9.37209302 12.1105833,9.41889535 12.163375,9.46744186 C12.0852083,3.92267442 11.1113333,0.12005814 10.2334167,0.12005814 C9.35841667,0.12005814 8.385125,3.9119186 8.30404167,9.43953488 C8.31570833,9.42965116 8.32970833,9.42063953 8.34166667,9.41075581 Z" fill="#53ADD0"></path>
                    <path d="M4.088875,9.40813953 C4.109875,9.39069767 4.134375,9.3752907 4.15654167,9.35843023 C4.17783333,9.34244186 4.199125,9.32645349 4.221875,9.31075581 C4.270875,9.27703488 4.32308333,9.24534884 4.37704167,9.21482558 C4.39745833,9.20319767 4.41670833,9.19069767 4.43770833,9.17965116 C4.51325,9.13982558 4.59229167,9.10261628 4.67570833,9.06918605 C4.69525,9.06133721 4.717125,9.05494186 4.73725,9.04738372 C4.802875,9.02267442 4.869375,8.9994186 4.93908333,8.97906977 C4.972625,8.96889535 5.007625,8.96046512 5.04233333,8.95116279 C5.10241667,8.93546512 5.16366667,8.92122093 5.226375,8.90872093 C5.26370833,8.90116279 5.30104167,8.89418605 5.33925,8.8877907 C5.40633333,8.87645349 5.474875,8.86773256 5.544,8.85988372 C5.578125,8.85610465 5.611375,8.85174419 5.64608333,8.84883721 C5.75079167,8.84040698 5.85695833,8.83459302 5.96545833,8.83459302 C6.77075,8.83459302 7.4725,9.07732558 7.89133333,9.45348837 C7.952,5.51918605 8.50179167,1.55290698 9.48266667,0.198255814 C6.60245833,0.777325581 4.314625,4.63662791 4.088875,9.40813953 Z" fill="#53ADD0"></path>
                    <path d="M14.114625,8.8497093 C14.2286667,8.83953488 14.3450417,8.83430233 14.46375,8.83430233 C14.5742917,8.83430233 14.6822083,8.83982558 14.7880833,8.84854651 C14.8225,8.85145349 14.85575,8.85610465 14.889875,8.85988372 C14.96075,8.86773256 15.03075,8.87674419 15.0995833,8.8880814 C15.1375,8.89447674 15.1745417,8.90203488 15.211875,8.90959302 C15.2745833,8.92238372 15.336125,8.93633721 15.3965,8.95203488 C15.432375,8.96133721 15.4676667,8.97063953 15.5026667,8.98139535 C15.563625,8.9997093 15.62225,9.02005814 15.68,9.04127907 C15.70975,9.05232558 15.7400833,9.0622093 15.7689583,9.07412791 C15.8404167,9.10348837 15.9086667,9.13517442 15.974,9.16889535 C15.9856667,9.175 15.9985,9.17994186 16.0101667,9.18633721 C16.0862917,9.22732558 16.1574583,9.27151163 16.22425,9.31831395 C16.2423333,9.33081395 16.2577917,9.34476744 16.275,9.35784884 C16.310875,9.38488372 16.3479167,9.41104651 16.3802917,9.43953488 C16.1644583,4.64447674 13.8812917,0.775 10.9844583,0.197383721 C11.963,1.54709302 12.511625,5.49273256 12.5749167,9.42122093 C12.9330833,9.11802326 13.477625,8.90639535 14.114625,8.8497093 Z" fill="#53ADD0"></path>
                    <path d="M3.672375,9.48313953 C3.847375,5.32296512 5.56441667,1.81337209 7.91145833,0.389534884 C3.7905,1.35901163 0.616875,4.8497093 0.1855,9.17732558 C0.603458333,8.95872093 1.1445,8.83430233 1.712375,8.83430233 C2.53545833,8.83459302 3.257625,9.08982558 3.672375,9.48313953 Z" fill="#53ADD0"></path>
                    <path d="M16.792125,9.44447674 C16.7959167,9.44127907 16.7985417,9.4377907 16.8023333,9.43459302 L16.8615417,9.38517442 C16.863,9.38401163 16.8965417,9.35813953 16.898,9.35697674 L17.1129583,9.21656977 C17.1144167,9.21569767 17.1514583,9.19505814 17.1529167,9.19418605 C17.1532083,9.19389535 17.1943333,9.17238372 17.194625,9.17209302 L17.2695833,9.13488372 C17.2704583,9.13430233 17.3019583,9.11947674 17.3028333,9.11918605 L17.33375,9.10523256 L17.6152083,8.99854651 C17.6175417,8.99796512 17.6572083,8.98517442 17.6589583,8.98459302 L17.705625,8.97093023 C17.7067917,8.97063953 17.7482083,8.95901163 17.749375,8.95872093 L17.7776667,8.95116279 C17.7797083,8.9505814 17.8255,8.93895349 17.8278333,8.93837209 C17.828125,8.93837209 17.8759583,8.92703488 17.8765417,8.92703488 C17.8785833,8.92645349 17.927875,8.91540698 17.929625,8.91511628 C17.9302083,8.91482558 17.9762917,8.90552326 17.976875,8.90523256 L18.006625,8.8994186 C18.0080833,8.89912791 18.0562083,8.89040698 18.0576667,8.89011628 C18.059125,8.89011628 18.1075417,8.88197674 18.1087083,8.88168605 L18.1390417,8.87703488 C18.1405,8.87703488 18.1906667,8.86976744 18.192125,8.86947674 C18.1927083,8.86947674 18.241125,8.86337209 18.242,8.8630814 C18.242875,8.8630814 18.2982917,8.85668605 18.2991667,8.85668605 L18.4076667,8.84680233 C18.4094167,8.84651163 18.4575417,8.84302326 18.4592917,8.84302326 L18.7112917,8.83488372 L18.8717083,8.83837209 C18.8731667,8.83837209 18.9005833,8.83953488 18.90175,8.83953488 L19.424125,8.90145349 C19.4299583,8.90261628 19.4474583,8.90610465 19.4532917,8.90755814 L19.569375,8.93197674 C19.5705417,8.93226744 19.597375,8.93866279 19.5985417,8.93924419 L19.6702917,8.95755814 C19.670875,8.95784884 19.7017917,8.96627907 19.7026667,8.96656977 L19.733,8.975 C19.7350417,8.9755814 19.7744167,8.9875 19.7761667,8.9880814 L19.8277917,9.00465116 C19.8286667,9.00494186 19.8552083,9.01366279 19.8557917,9.01395349 C19.8569583,9.01424419 19.8899167,9.0255814 19.8910833,9.02587209 L19.921125,9.03662791 C19.9234583,9.0375 19.961375,9.05174419 19.9637083,9.05261628 L20.010375,9.07093023 C20.0124167,9.07180233 20.04975,9.0872093 20.0515,9.0880814 C20.052375,9.08837209 20.099625,9.10872093 20.1005,9.10930233 C20.1007917,9.10930233 20.1273333,9.12151163 20.127625,9.12151163 C20.1343333,9.1247093 20.1655417,9.13953488 20.1719583,9.14331395 C20.17225,9.14360465 20.2101667,9.16162791 20.2104583,9.16162791 L20.265,9.19011628 C20.2652917,9.19040698 20.2769583,9.19651163 20.285125,9.20116279 C19.8627917,4.8630814 16.6935417,1.36424419 12.5661667,0.39127907 C14.9059167,1.81046512 16.60925,5.29796512 16.792125,9.44447674 Z" fill="#53ADD0"></path>
                </g>
            </g>
        </g>
    </g>
</svg>