<?xml version="1.0" encoding="UTF-8" standalone="no"?>
<svg width="25px" height="25px" viewBox="0 0 25 25" version="1.1" xmlns="http://www.w3.org/2000/svg" xmlns:xlink="http://www.w3.org/1999/xlink">
    <!-- Generator: Sketch 41.2 (35397) - http://www.bohemiancoding.com/sketch -->
    <title>Dashboard  Copy 4</title>
    <desc>Created with Sketch.</desc>
    <defs></defs>
    <g id="FINAL-" stroke="none" stroke-width="1" fill="none" fill-rule="evenodd">
        <g id="Dashboard--Copy-4">
            <circle id="Oval-7" fill="#D8D8D8" cx="12.5" cy="12.5" r="12.5"></circle>
            <g id="Group-8" transform="translate(5.000000, 7.000000)" fill="#000000">
                <polygon id="Shape" points="0 8.94789348 0 1.09221178 0.392435698 1.09221178 0.392435698 8.94789348"></polygon>
                <polygon id="Shape" points="14.911751 8.94789348 14.911751 1.09221178 15.3040256 1.09221178 15.3040256 8.94789348"></polygon>
                <path d="M0,8.94878947 L0.392435698,8.94878947 C0.39324119,9.31041103 0.655348284,9.60250376 0.981089245,9.60339975 L0.981089245,9.60339975 L0.981089245,10.0397469 C0.439154233,10.0395677 0,9.55161153 0,8.94878947 L0,8.94878947 Z" id="Shape"></path>
                <polygon id="Shape" points="0.980928146 10.0399261 0.980928146 9.60357895 14.322292 9.60357895 14.322292 10.0399261"></polygon>
                <path d="M14.322292,9.60357895 C14.6485162,9.60268296 14.9109455,9.31076942 14.911751,8.94861028 L14.911751,8.94861028 L15.3043478,8.94861028 C15.3043478,9.55107393 14.8653547,10.0393885 14.322292,10.0402845 L14.322292,10.0402845 L14.322292,9.60357895 L14.322292,9.60357895 Z" id="Shape"></path>
                <path d="M0,1.09167419 C0,0.488672932 0.438348741,0.000895989975 0.98060595,0.000895989975 L0.98060595,0.000895989975 L0.98060595,0.436347118 C0.655670481,0.436884712 0.392757895,0.72933584 0.391630206,1.09167419 L0.391630206,1.09167419 L0,1.09167419 L0,1.09167419 Z" id="Shape"></path>
                <path d="M14.911751,1.09167419 C14.9109455,0.729515038 14.6478719,0.43706391 14.3232586,0.43706391 L14.3232586,0.43706391 L14.3232586,0.000716791979 C14.8650325,0.000716791979 15.3040256,0.488672932 15.3040256,1.09149499 L15.3040256,1.09149499 L14.911751,1.09167419 L14.911751,1.09167419 Z" id="Shape"></path>
                <polygon id="Shape" points="0.980928146 0.436884712 0.980928146 0 14.3232586 0 14.3232586 0.436884712"></polygon>
                <rect id="Rectangle-path" x="0.196217849" y="1.5282005" width="14.9483204" height="1.74592607"></rect>
                <rect id="Rectangle-path" x="1.23626911" y="5.02023183" width="5.23859771" height="0.436526316"></rect>
                <rect id="Rectangle-path" x="11.3116851" y="5.45675815" width="2.61913776" height="3.05550501"></rect>
            </g>
        </g>
    </g>
</svg>