<?xml version="1.0" encoding="UTF-8" standalone="no"?>
<svg width="25px" height="25px" viewBox="0 0 25 25" version="1.1" xmlns="http://www.w3.org/2000/svg" xmlns:xlink="http://www.w3.org/1999/xlink">
    <!-- Generator: Sketch 41.2 (35397) - http://www.bohemiancoding.com/sketch -->
    <title>Dashboard  Copy 4</title>
    <desc>Created with Sketch.</desc>
    <defs></defs>
    <g id="FINAL-" stroke="none" stroke-width="1" fill="none" fill-rule="evenodd">
        <g id="Dashboard--Copy-4">
            <circle id="Oval-7" fill="#D8D8D8" cx="12.5" cy="12.5" r="12.5"></circle>
            <path d="M9.85294118,7.77777778 L6.3242986,7.77777778 C5.59327162,7.77777778 5,8.37582956 5,9.11291356 L5,12.4444444 L10.5147059,12.4444444 L10.5147059,11.7777778 C10.5147059,11.532318 10.7122274,11.3333333 10.9558824,11.3333333 L14.0441176,11.3333333 C14.2877726,11.3333333 14.4852941,11.532318 14.4852941,11.7777778 L14.4852941,12.4444444 L20,12.4444444 L20,9.11291356 C20,8.37512622 19.407397,7.77777778 18.6757014,7.77777778 L15.1470588,7.77777778 L15.1470588,6.44444444 C15.1470588,6.19898467 14.9495373,6 14.7058824,6 L10.2941176,6 C10.0504627,6 9.85294118,6.19898467 9.85294118,6.44444444 L9.85294118,7.77777778 Z M10.7352941,6.88888889 L14.2647059,6.88888889 L14.2647059,7.77777778 L10.7352941,7.77777778 L10.7352941,6.88888889 Z M5,13.3333333 L5,16.6648642 C5,17.4026516 5.59260301,18 6.3242986,18 L18.6757014,18 C19.4067284,18 20,17.4019482 20,16.6648642 L20,13.3333333 L14.4852941,13.3333333 L14.4852941,14 C14.4852941,14.2454598 14.2877726,14.4444444 14.0441176,14.4444444 L10.9558824,14.4444444 C10.7122274,14.4444444 10.5147059,14.2454598 10.5147059,14 L10.5147059,13.3333333 L5,13.3333333 L5,13.3333333 Z M13.6029412,12.2222222 L13.6029412,13.5555556 L11.3970588,13.5555556 L11.3970588,12.2222222 L13.6029412,12.2222222 Z" id="Shape" fill="#494949"></path>
        </g>
    </g>
</svg>