<?xml version="1.0" encoding="UTF-8" standalone="no"?>
<svg width="25px" height="25px" viewBox="0 0 25 25" version="1.1" xmlns="http://www.w3.org/2000/svg" xmlns:xlink="http://www.w3.org/1999/xlink">
    <!-- Generator: Sketch 41.2 (35397) - http://www.bohemiancoding.com/sketch -->
    <title>Dashboard  Copy 4</title>
    <desc>Created with Sketch.</desc>
    <defs></defs>
    <g id="FINAL-" stroke="none" stroke-width="1" fill="none" fill-rule="evenodd">
        <g id="Dashboard--Copy-4">
            <g id="Group-7">
                <circle id="Oval-7" fill="#D8D8D8" cx="12.5" cy="12.5" r="12.5"></circle>
                <path d="M12.8039803,9.87256915 C12.7969502,10.5620286 12.6411161,11.2164867 12.3647657,11.8475006 C12.2278459,12.1618518 12.0224662,12.4321212 11.7792578,12.6743235 C11.5290193,12.928248 11.217351,13.0469552 10.9033393,13.0353982 C10.5893276,13.0471203 10.2776593,12.928248 10.02491,12.6743235 C9.78170161,12.4321212 9.57866527,12.1620169 9.4394021,11.8475006 C9.16556249,11.2163216 9.00721758,10.5618635 9.00253084,9.87256915 C9.00253084,9.77482969 8.99550073,9.67923654 9.00487421,9.58149708 C9.0284753,9.29273641 9.1041327,9.03418913 9.23619838,8.81526595 C9.40391677,8.53575092 9.6611854,8.31682774 10.0177125,8.17005345 C10.301093,8.05365764 10.5985337,8.00231141 10.9031719,8 C11.2054667,8.00231141 11.5029074,8.05349254 11.7862879,8.17005345 C12.2584771,8.36338606 12.5537418,8.67773729 12.7000351,9.0994038 C12.751924,9.2484895 12.785066,9.40913222 12.801637,9.58149708 C12.8111778,9.67923654 12.8039803,9.77466459 12.8039803,9.87256915 Z" id="Shape" fill="#494949"></path>
                <path d="M14.8651891,13.6075696 C14.7023248,14.045416 14.4661465,14.4576718 14.1615083,14.827992 C13.424853,15.7223411 12.3812161,16.2650262 11.2217498,16.3604543 C11.108431,16.3696999 10.992769,16.3744878 10.8794503,16.3744878 C9.16293119,16.3744878 7.65882194,15.3591201 7,13.8755276 C7.09206099,13.7706888 7.21492057,13.6635387 7.34229951,13.6310139 C7.72242772,13.5284865 8.10255593,13.4330584 8.48268414,13.3376304 C8.92892888,13.2258574 9.37517362,13.1187072 9.82141836,13.0069342 C9.85204957,13 9.88284815,13.0023114 9.93239371,13 C9.93942382,13.0209678 9.94427794,13.0419355 9.95130806,13.0652147 C10.0386823,13.3818773 10.1213698,13.7010165 10.2181176,14.0155328 C10.336123,14.3881645 10.4683561,14.7607962 10.6005891,15.1311164 C10.6148167,15.1707405 10.6337311,15.2103646 10.6548214,15.2498236 C10.6996802,14.9145047 10.7728269,14.3718195 10.812999,14.0620911 C10.8295699,13.9270389 10.8412868,13.8385451 10.8412868,13.8291344 C10.8223724,13.7825761 10.8011147,13.7383292 10.7822004,13.6917708 C10.779857,13.687148 10.7775136,13.6825252 10.7751703,13.6777373 C10.763286,13.6521467 10.7515692,13.6242447 10.7396849,13.6008005 C10.7373416,13.5938663 10.7326548,13.5867669 10.7278007,13.5798327 C10.7254573,13.5752099 10.7231139,13.5728985 10.7231139,13.5705871 C10.7041996,13.5355858 10.6852852,13.4984382 10.6852852,13.4541913 C10.6852852,13.4332235 10.689972,13.4145672 10.6946587,13.3982223 C10.6946587,13.3609096 10.7088863,13.3283848 10.7324874,13.3051056 C10.7348308,13.3027942 10.7348308,13.3004828 10.7371742,13.2981714 L10.7395175,13.29586 C10.7418609,13.2889258 10.7418609,13.2866144 10.7442043,13.2841379 C10.7678054,13.2491366 10.7960932,13.2422023 10.8150076,13.2398909 L10.840952,13.2398909 C10.8503255,13.2329567 10.8598664,13.2329567 10.8692398,13.2329567 C10.9094119,13.2306453 11.0131898,13.2306453 11.1454228,13.2306453 C11.2776559,13.2306453 11.3816011,13.2306453 11.4216058,13.2329567 C11.4262925,13.2329567 11.4381768,13.2329567 11.4475503,13.2398909 L11.4781815,13.2398909 C11.4900657,13.2422023 11.5064693,13.2445137 11.5206969,13.2562359 C11.5300704,13.2631701 11.5396113,13.2702694 11.5466414,13.2841379 C11.5466414,13.2864493 11.5489847,13.2887607 11.5513281,13.2910721 L11.5536715,13.2980063 C11.5607016,13.3072519 11.5678991,13.318974 11.5702425,13.3282197 C11.5725858,13.3351539 11.5725858,13.3374653 11.5749292,13.3445646 L11.5819593,13.3562867 C11.5938436,13.3841887 11.6079038,13.41919 11.6079038,13.4540262 C11.6079038,13.4982731 11.5866461,13.5355858 11.5700751,13.570422 C11.563045,13.5796676 11.5581908,13.5913898 11.5511607,13.6006354 C11.5392765,13.6239145 11.5275596,13.6518165 11.5181862,13.6775722 C11.5134994,13.6845064 11.511156,13.6916057 11.5088127,13.6962285 C11.4898983,13.738164 11.470984,13.782411 11.4497263,13.8289693 C11.4497263,13.8430028 11.4992718,14.2366023 11.5536715,14.6440701 C11.5819593,14.8606819 11.6127579,15.0819165 11.636359,15.2496585 C11.6576167,15.2100344 11.6765311,15.1704103 11.6905913,15.1309513 C11.8228244,14.7606311 11.9550574,14.3879994 12.0730629,14.0153677 C12.1698106,13.7010165 12.2524981,13.3841887 12.3398724,13.0675261 C12.3445591,13.0442469 12.3517566,13.0209678 12.3564433,13 C12.4083323,13.0023114 12.4391309,13 12.4674187,13.0069342 C12.9655524,13.1304293 13.4661968,13.251448 13.9644978,13.3772545 C14.2654536,13.4515497 14.565405,13.5284865 14.8651891,13.6075696 Z" id="Shape" fill="#494949"></path>
                <path d="M20.5248902,18.0081024 C19.9393823,17.5492883 19.3490202,17.0904741 18.7633449,16.6339714 C18.1164072,16.1355332 17.4741563,15.6347836 16.8223644,15.1294112 C18.4587067,11.9969606 17.221407,8.51268099 14.5697156,6.91269266 C11.9156809,5.31039293 8.4423033,5.86463509 6.46834823,8.20757538 C4.44953434,10.5993854 4.52502435,14.0394181 6.61715227,16.3498336 C8.68551171,18.632182 12.6098208,19.2656724 15.4834628,16.8202047 C15.5330084,16.8738624 15.5850647,16.9436999 15.6486705,16.994881 C16.8175103,17.9101978 17.9863502,18.8232032 19.1597094,19.7337321 C19.6862982,20.1413651 20.3687213,20.073839 20.7629097,19.5800236 C21.1529135,19.0909961 21.0536551,18.4226696 20.5248902,18.0081024 Z M15.9369051,14.4307061 C15.4953471,15.318121 14.7940097,16.0795642 13.9157478,16.5920359 C13.2641234,16.9739132 12.5155838,17.2232149 11.7009277,17.2884296 C10.5320878,17.3838576 9.38216235,17.078752 8.4330972,16.463918 C7.89010473,16.1145655 7.4130614,15.664997 7.03527656,15.134034 C6.56074399,14.4726416 6.23953481,13.6854427 6.13324621,12.8003393 C5.78374921,9.93568164 7.85930614,7.4203765 10.7848371,7.10602527 C13.5545339,6.80554248 16.1165077,8.8574107 16.4256652,11.6172296 C16.5485248,12.6048604 16.3620595,13.5759812 15.9369051,14.4307061 Z" id="Shape" fill="#494949"></path>
            </g>
        </g>
    </g>
</svg>