<?xml version="1.0" encoding="UTF-8" standalone="no"?>
<svg width="14px" height="16px" viewBox="0 0 14 16" version="1.1" xmlns="http://www.w3.org/2000/svg" xmlns:xlink="http://www.w3.org/1999/xlink">
    <!-- Generator: Sketch 41.2 (35397) - http://www.bohemiancoding.com/sketch -->
    <title>cash invest  copy 34</title>
    <desc>Created with Sketch.</desc>
    <defs></defs>
    <g id="-" stroke="none" stroke-width="1" fill="none" fill-rule="evenodd">
        <g id="cash-invest--copy-34" fill="#57AFD1">
            <g id="Group-13">
                <path d="M10.3563158,0 L1.64368421,0 C0.798631579,0 0.111789474,0.710530612 0.111789474,1.584 L0.111789474,14.0897959 C0.111789474,14.9632653 0.798947368,15.6737959 1.644,15.6737959 L10.3566316,15.6737959 C11.2016842,15.6737959 11.8888421,14.9632653 11.8888421,14.0897959 L11.8888421,1.584 C11.8882105,0.710530612 11.2013684,0 10.3563158,0 Z M6.86842105,12.4150204 L6.86842105,13.8912653 L5.13189474,13.8912653 L5.13189474,12.4150204 L6.86842105,12.4150204 Z M6.86842105,9.57844898 L6.86842105,11.0543673 L5.13189474,11.0543673 L5.13189474,9.57844898 L6.86842105,9.57844898 Z M6.86842105,6.70693878 L6.86842105,8.18285714 L5.13189474,8.18285714 L5.13189474,6.70693878 L6.86842105,6.70693878 Z M3.83463158,12.4150204 L3.83463158,13.8912653 L2.09810526,13.8912653 L2.09810526,12.4150204 L3.83463158,12.4150204 Z M3.83463158,9.57844898 L3.83463158,11.0543673 L2.09810526,11.0543673 L2.09810526,9.57844898 L3.83463158,9.57844898 Z M9.90221053,6.70693878 L9.90221053,8.18285714 L8.16536842,8.18285714 L8.16536842,6.70693878 L9.90221053,6.70693878 Z M9.22831579,4.79346939 L2.77168421,4.79346939 C2.41547368,4.79346939 2.12557895,4.52702041 2.12557895,4.19918367 L2.12557895,2.45126531 C2.12557895,2.1237551 2.41547368,1.85697959 2.77168421,1.85697959 L9.228,1.85697959 C9.58421053,1.85697959 9.87410526,2.1237551 9.87410526,2.45126531 L9.87410526,4.19918367 C9.87442105,4.52702041 9.58452632,4.79346939 9.22831579,4.79346939 Z M3.83463158,6.70693878 L3.83463158,8.18285714 L2.09810526,8.18285714 L2.09810526,6.70693878 L3.83463158,6.70693878 Z M9.90221053,9.57844898 L9.90221053,11.0543673 L8.16536842,11.0543673 L8.16536842,9.57844898 L9.90221053,9.57844898 Z M9.90221053,12.4150204 L9.90221053,13.8912653 L8.16536842,13.8912653 L8.16536842,12.4150204 L9.90221053,12.4150204 Z" id="Shape"></path>
            </g>
        </g>
    </g>
</svg>