<?xml version="1.0" encoding="UTF-8" standalone="no"?>
<svg width="40px" height="40px" viewBox="0 0 40 40" version="1.1" xmlns="http://www.w3.org/2000/svg" xmlns:xlink="http://www.w3.org/1999/xlink">
    <!-- Generator: Sketch 41.2 (35397) - http://www.bohemiancoding.com/sketch -->
    <title>cash invest  copy 40</title>
    <desc>Created with Sketch.</desc>
    <defs></defs>
    <g id="-main-file-" stroke="none" stroke-width="1" fill="none" fill-rule="evenodd">
        <g id="cash-invest--copy-40">
            <rect id="Rectangle-9" fill="#F2F2F2" x="0" y="0" width="40" height="40"></rect>
            <g id="Group-5" transform="translate(14.000000, 7.000000)" fill="#53ADD0">
                <path d="M5.76681818,4.62908333 C6.04036364,4.7376875 6.42845455,4.5508125 6.62890909,4.21389583 C6.82963636,3.87725 7.06772727,3.63945833 7.15854545,3.68577083 C7.24881818,3.73235417 7.34918182,3.417375 7.38136364,2.98620833 C7.41354545,2.55504167 7.49454545,2.18914583 7.56109091,2.17316667 C7.62763636,2.15664583 8.44472727,2.74570833 8.27536364,2.30560417 C8.27536364,2.30560417 7.43809091,0.134875 5.50527273,0.14625 C4.99036364,0.1495 4.72145455,0.587166667 4.72145455,0.587166667 C4.47409091,0.989625 4.26709091,1.704625 4.26190909,2.175875 L4.62163636,3.86452083 C4.97781818,4.17625 5.49327273,4.52047917 5.76681818,4.62908333 Z" id="Shape"></path>
                <path d="M5.42481818,24.6054792 C5.29118182,25.0935208 5.59909091,25.4583333 6.108,25.4583333 L8.46545455,25.4583333 C8.97409091,25.4583333 9.10718182,25.3047708 8.75945455,25.0751042 C8.41281818,24.844625 7.65790909,24.2639583 7.59572727,23.7618333 L7.33854545,18.3118542 C7.27609091,17.8102708 7.10072727,17.0086042 6.94854545,16.5259792 L5.24918182,11.1480417 C5.09672727,10.6656875 4.81718182,9.888125 4.62790909,9.41877083 L4.47381818,9.03635417 C4.33636364,8.69483333 4.36281818,8.4930625 4.51663636,8.4930625 C4.57418182,8.4930625 4.64972727,8.52122917 4.74081818,8.5808125 C4.74081818,8.5808125 4.74081818,8.5808125 6.70363636,9.9945625 C8.28272727,11.1315208 10.1683636,11.2485208 10.8758182,11.2485208 C11.058,11.2485208 11.1621818,11.2409375 11.1621818,11.2409375 C11.67,11.20275 11.7043636,11.0039583 11.2388182,10.7992083 C11.2388182,10.7992083 9.40418182,9.99158333 6.86563636,7.97441667 C4.76181818,6.30310417 6.573,5.12010417 4.34072727,4.21335417 C4.17818182,4.147 4.01181818,4.11504167 3.846,4.11504167 C2.25109091,4.11504167 0.635181818,7.07389583 1.63554545,11.3468333 C1.63936364,11.35875 1.64236364,11.3712083 1.644,11.3839375 C1.85754545,12.2841875 2.187,13.2253333 2.65745455,14.2260625 C6.20345455,21.7725625 5.42481818,24.6054792 5.42481818,24.6054792 Z" id="Shape"></path>
                <path d="M1.005,7.43735417 C0.261545455,8.68670833 0.196090909,9.24652083 0.236454545,9.4810625 C0.330272727,10.0238125 0.726,10.5094167 1.10536364,10.8636667 C0.977181818,10.1768333 0.909272727,9.503 0.905727273,8.85245833 C0.902727273,8.36225 0.937090909,7.88802083 1.005,7.43735417 Z" id="Shape"></path>
                <path d="M2.90972727,25.0751042 C2.53936364,24.844625 2.05281818,24.17675 2.26309091,23.5679167 L4.16290909,19.108375 C3.74836364,17.8251667 3.14727273,16.2703125 2.27590909,14.4159167 C2.11418182,14.0716875 1.96690909,13.7290833 1.833,13.3835 L1.88263636,16.8336458 C1.89190909,17.4771458 1.75745455,18.5114583 1.584,19.1316667 L0.110727273,24.36525 C-0.0627272727,24.9854583 0.325636364,25.4583333 0.973909091,25.4583333 L2.40490909,25.4583333 C3.05290909,25.4583333 3.28009091,25.3047708 2.90972727,25.0751042 Z" id="Shape"></path>
                <path d="M11.4949091,25.7364792 C11.0648182,25.7364792 11.3318182,25.3984792 11.3318182,25.2831042 L11.2846364,12.6267917 C11.2846364,12.4594167 11.2325455,12.3315833 11.1409091,12.2757917 C11.0500909,12.2197292 10.9112727,12.2305625 10.761,12.3050417 L9.98345455,12.6974792 C9.83645455,12.7706042 9.65781818,12.7115625 9.58418182,12.5653125 C9.51027273,12.4187917 9.57027273,12.2413958 9.71754545,12.1682708 L10.5725455,11.743875 C10.8561818,11.6030417 11.1441818,11.5989792 11.3620909,11.7325 C11.5805455,11.8662917 11.7057273,12.1238542 11.7057273,12.4391042 L11.6574545,25.2831042 C11.6577273,25.3984792 11.9255455,25.7364792 11.4949091,25.7364792 Z" id="Shape"></path>
            </g>
        </g>
    </g>
</svg>