<?xml version="1.0" encoding="UTF-8" standalone="no"?>
<svg width="156px" height="147px" viewBox="0 0 156 147" version="1.1" xmlns="http://www.w3.org/2000/svg" xmlns:xlink="http://www.w3.org/1999/xlink">
    <!-- Generator: Sketch 41.2 (35397) - http://www.bohemiancoding.com/sketch -->
    <title>CHECK YOUR KYC STATUS  Copy 17</title>
    <desc>Created with Sketch.</desc>
    <defs></defs>
    <g id="Page-1" stroke="none" stroke-width="1" fill="none" fill-rule="evenodd">
        <g id="CHECK-YOUR-KYC-STATUS--Copy-17" fill="#FC4F4F">
            <g id="Group" transform="translate(78.023324, 73.813015) rotate(-24.000000) translate(-78.023324, -73.813015) translate(10.023324, 9.813015)">
                <ellipse id="Oval" cx="39.1439373" cy="41.0666667" rx="8.38348978" ry="8.35555556"></ellipse>
                <ellipse id="Oval" cx="91.050225" cy="41.0666667" rx="8.38348978" ry="8.35555556"></ellipse>
                <path d="M109.95767,4.44444444 C96.2230166,1.95555556 82.1316189,0.533333333 68.2185933,0.533333333 C54.4839398,0.355555556 40.3925421,1.42222222 26.4795165,3.73333333 C16.3123055,5.51111111 6.14509451,15.2888889 4.00462903,25.6 C1.50741931,38.4 0.258814453,51.2 0.258814453,64 C0.258814453,76.8 1.50741931,89.6 4.00462903,102.577778 C6.14509451,112.711111 16.1339334,122.488889 26.4795165,124.444444 C39.5006815,126.577778 52.8785907,127.644444 65.8997557,127.644444 L68.0402212,127.644444 C81.9532468,127.466667 95.8662723,126.222222 109.779298,123.733333 L109.779298,123.733333 C119.946509,121.777778 129.935348,112 132.075813,101.866667 C134.573023,89.4222222 135.821628,76.6222222 135.821628,64.1777778 C135.821628,51.7333333 134.573023,38.9333333 132.075813,26.4888889 C130.11372,16.1777778 120.124881,6.4 109.95767,4.44444444 Z M119.946509,99.2 C118.876276,104.177778 112.811624,110.222222 107.638832,111.288889 C94.6176675,113.6 81.2397583,115.022222 68.2185933,115.022222 C55.0190562,115.2 41.8195191,114.133333 28.7983541,112 C23.6255626,111.111111 17.5609104,105.066667 16.4906776,100.088889 C14.17184,88.1777778 12.9232352,76.0888889 12.9232352,64 C12.9232352,52.0888889 14.17184,39.8222222 16.4906776,28.0888889 C17.5609104,22.9333333 23.6255626,16.8888889 28.7983541,16 C41.2844027,14.0444444 53.7704513,12.9777778 66.2564999,12.9777778 L68.3969654,12.9777778 C81.5965025,13.1555556 94.7960396,14.4 107.817205,16.7111111 C112.989996,17.7777778 119.23302,23.6444444 120.124881,28.6222222 C122.443719,40.3555556 123.513951,52.2666667 123.513951,64 C123.513951,75.7333333 122.265347,87.6444444 119.946509,99.2 Z" id="Shape"></path>
                <path d="M94.2609232,75.2 C91.7637135,72.8888889 88.0178989,73.0666667 85.6990613,75.3777778 L79.456037,81.6 L72.4995242,75.2 C70.0023145,72.8888889 66.2564999,73.0666667 63.9376623,75.3777778 L57.5162659,81.7777778 L50.5597531,75.3777778 C48.0625434,73.0666667 44.3167288,73.2444444 41.9978912,75.5555556 L31.2955638,86.0444444 C28.7983541,88.5333333 28.7983541,92.4444444 31.2955638,94.7555556 C33.7927736,97.2444444 37.7169603,97.2444444 40.21417,94.7555556 L46.6355664,88.5333333 L53.5920792,94.9333333 C54.8406841,96 56.2676611,96.5333333 57.8730102,96.5333333 L57.8730102,96.5333333 C59.4783593,96.5333333 61.0837084,96 62.3323132,94.7555556 L68.7537097,88.5333333 L74.8183618,94.2222222 C74.996734,94.4 75.1751061,94.5777778 75.3534782,94.7555556 C76.6020831,96 78.2074322,96.5333333 79.8127813,96.5333333 L79.9911534,96.5333333 C81.5965025,96.5333333 83.3802237,95.8222222 84.6288286,94.5777778 C84.8072007,94.4 84.9855728,94.2222222 85.163945,93.8666667 L90.6934808,88.3555556 L97.6499936,94.7555556 C98.8985984,95.8222222 100.325575,96.3555556 101.930925,96.3555556 C103.536274,96.3555556 105.319995,95.6444444 106.5686,94.4 C108.887437,91.9111111 108.709065,88 106.211855,85.6888889 L94.2609232,75.2 Z" id="Shape"></path>
            </g>
        </g>
    </g>
</svg>