<?xml version="1.0" encoding="UTF-8" standalone="no"?>
<svg width="80px" height="60px" viewBox="0 0 80 60" version="1.1" xmlns="http://www.w3.org/2000/svg" xmlns:xlink="http://www.w3.org/1999/xlink">
    <!-- Generator: Sketch 41.2 (35397) - http://www.bohemiancoding.com/sketch -->
    <title>Landing page  Copy 34</title>
    <desc>Created with Sketch.</desc>
    <defs></defs>
    <g id="final-new-" stroke="none" stroke-width="1" fill="none" fill-rule="evenodd">
        <g id="Landing-page--Copy-34" fill="#53ADD0">
            <path d="M55.0833333,30.9333333 C53.4733333,30.9333333 52.1666667,32.2176 52.1666667,33.8 L52.1666667,32.3666667 C52.1666667,30.7842667 50.86,29.5 49.25,29.5 C47.64,29.5 46.3333333,30.7842667 46.3333333,32.3666667 L46.3333333,30.9333333 C46.3333333,29.3509333 45.0266667,28.0666667 43.4166667,28.0666667 C41.8066667,28.0666667 40.5,29.3509333 40.5,30.9333333 L40.5,22.3333333 C40.5,20.7509333 39.1933333,19.4666667 37.5833333,19.4666667 C35.9733333,19.4666667 34.6666667,20.7509333 34.6666667,22.3333333 L34.6666667,38.1 C34.6666667,39.4889 32.9575,40.2055667 31.75,38.7278 L28.8333333,35.5472333 C27.9904167,34.6069667 27.3516667,33.8 25.9166667,33.8 C24.299375,33.8 23,35.0986 23,36.6666667 C23,37.5395667 23.319375,38.1903 24.435,39.5333333 L33.2083333,49.2757 C34.2116667,50.3277667 34.80375,51 36.125,51 L55.0833333,51 C56.7472917,51 58,49.6784667 58,48.1333333 L58,33.8 C58,32.2176 56.6933333,30.9333333 55.0833333,30.9333333 Z M30.8939583,33.5090333 L31.75,34.4464333 L31.75,22.3333333 C31.75,19.1714 34.36625,16.6 37.5833333,16.6 C40.8004167,16.6 43.4166667,19.1714 43.4166667,22.3333333 L43.4166667,25.2 C45.0266667,25.2 46.485,25.8435667 47.5422917,26.8841667 C48.081875,26.7207667 48.6564583,26.6333333 49.25,26.6333333 C49.9908333,26.6333333 50.69375,26.7838333 51.3485417,27.0332333 C51.8691667,25.5583333 52.1666667,23.9816667 52.1666667,22.3333333 C52.1666667,14.4170333 45.6377083,8 37.5833333,8 C29.5289583,8 23,14.4170333 23,22.3333333 C23,25.5655 24.1010417,28.5368 25.9370833,30.9347667 C28.604375,30.9433667 29.9825,32.4856333 30.8939583,33.5090333 Z" id="Shape"></path>
        </g>
    </g>
</svg>