<?xml version="1.0" encoding="UTF-8" standalone="no"?>
<svg width="80px" height="60px" viewBox="0 0 80 60" version="1.1" xmlns="http://www.w3.org/2000/svg" xmlns:xlink="http://www.w3.org/1999/xlink">
    <!-- Generator: Sketch 41.2 (35397) - http://www.bohemiancoding.com/sketch -->
    <title>Landing page  Copy 34</title>
    <desc>Created with Sketch.</desc>
    <defs></defs>
    <g id="final-new-" stroke="none" stroke-width="1" fill="none" fill-rule="evenodd">
        <g id="Landing-page--Copy-34" fill="#53ADD0">
            <g id="Group-8" transform="translate(16.000000, 4.000000)">
                <polygon id="Shape" points="17.3670886 15.6 8.74556962 26.7770115 10.3582278 27.9126437 17.8012658 18.2298851 25.3063291 23.3103448 43.5417722 3.64597701 43.5417722 5.91724138 45.5265823 5.91724138 45.5265823 0.298850575 39.2620253 0.298850575 39.2620253 2.21149425 42.1772152 2.21149425 24.9962025 20.8"></polygon>
                <path d="M17.9873418,46.5011494 C17.9873418,47.337931 17.9873418,48.4137931 17.9253165,48.9517241 C17.8632911,49.3701149 17.8012658,49.4298851 17.8012658,49.4298851 C17.7392405,49.4896552 17.6772152,49.4896552 17.6151899,49.5494253 C17.4291139,49.6689655 17.1189873,49.8482759 16.5607595,50.0275862 L14.4518987,50.0275862 L14.4518987,51.9402299 L34.3,51.9402299 L34.3,50.0275862 L32.1291139,50.0275862 C31.5708861,49.7885057 31.2607595,49.6689655 31.1367089,49.5494253 C31.0746835,49.4896552 31.0126582,49.4896552 30.9506329,49.4298851 C30.9506329,49.3701149 30.8886076,49.2505747 30.8265823,48.891954 C30.7025316,48.354023 30.7025316,47.337931 30.764557,46.5011494 L30.764557,45.8436782 L46.5189873,45.8436782 C47.9455696,45.8436782 48.7518987,44.5885057 48.7518987,43.3931034 L48.7518987,38.4321839 L48.6898734,12.1931034 C48.6898734,10.937931 47.635443,9.9816092 46.3949367,9.9816092 L40.0063291,9.9816092 L40.0063291,11.8942529 L46.3949367,11.8942529 C46.5810127,11.8942529 46.7050633,12.0137931 46.7050633,12.1931034 L46.7050633,38.4321839 L44.3481013,38.4321839 L44.3481013,15.4206897 L37.835443,15.4206897 L37.835443,38.3724138 L34.8582278,38.3724138 L34.8582278,29.1678161 L28.2835443,29.1678161 L28.2835443,38.4321839 L25.3063291,38.4321839 L25.3063291,26.5977011 L18.7316456,26.5977011 L18.7316456,38.4321839 L15.7544304,38.4321839 L15.7544304,32.9333333 L9.17974684,32.9333333 L9.17974684,38.4321839 L1.98481013,38.4321839 L1.98481013,35.5632184 L1.98481013,33.6505747 L1.98481013,31.0206897 L1.98481013,29.108046 L1.98481013,26.4781609 L1.98481013,24.5655172 L1.98481013,21.9356322 L1.98481013,20.0229885 L1.98481013,17.3333333 L1.98481013,15.4206897 L1.98481013,12.1931034 C1.98481013,12.0137931 2.10886076,11.8942529 2.29493671,11.8942529 L31.1367089,11.8942529 L31.1367089,9.9816092 L2.35696203,9.9816092 C1.1164557,9.9816092 0.0620253165,10.9977011 0.0620253165,12.1931034 L0.0620253165,38.4321839 L0,43.2735632 C0,44.5885057 1.24050633,45.783908 2.54303797,45.783908 L17.9873418,45.783908 L17.9873418,46.5011494 Z M1.98481013,43.2735632 L1.98481013,40.3448276 L46.7670886,40.3448276 L46.7670886,43.3333333 C46.7670886,43.6321839 46.5810127,43.9310345 46.5189873,43.9310345 L2.54303797,43.9310345 C2.35696203,43.9310345 1.98481013,43.5724138 1.98481013,43.2735632 Z" id="Shape"></path>
                <path d="M24.8721519,41.3609195 C24.8101266,41.3011494 24.7481013,41.3011494 24.6860759,41.3011494 C24.6240506,41.3011494 24.5620253,41.2413793 24.5,41.2413793 C24.1898734,41.1816092 23.8177215,41.3011494 23.6316456,41.4804598 C23.4455696,41.6597701 23.321519,41.8988506 23.321519,42.137931 C23.321519,42.3770115 23.4455696,42.616092 23.6316456,42.7954023 C23.8177215,42.9747126 24.0658228,43.0942529 24.3139241,43.0942529 C24.5620253,43.0942529 24.8101266,42.9747126 24.9962025,42.7954023 C25.1202532,42.7356322 25.1822785,42.616092 25.2443038,42.4965517 C25.3063291,42.3770115 25.3063291,42.2574713 25.3063291,42.137931 C25.3063291,41.8988506 25.1822785,41.6597701 24.9962025,41.4804598 C24.9962025,41.4206897 24.9341772,41.3609195 24.8721519,41.3609195 Z" id="Shape"></path>
            </g>
        </g>
    </g>
</svg>