<?xml version="1.0" encoding="UTF-8" standalone="no"?>
<svg width="80px" height="60px" viewBox="0 0 80 60" version="1.1" xmlns="http://www.w3.org/2000/svg" xmlns:xlink="http://www.w3.org/1999/xlink">
    <!-- Generator: Sketch 41.2 (35397) - http://www.bohemiancoding.com/sketch -->
    <title>Landing page  Copy 34</title>
    <desc>Created with Sketch.</desc>
    <defs></defs>
    <g id="final-new-" stroke="none" stroke-width="1" fill="none" fill-rule="evenodd">
        <g id="Landing-page--Copy-34" fill="#53ADD0">
            <path d="M36.443609,27.5639098 L16.112782,27.5639098 L16.112782,25.518797 L36.443609,25.518797 L36.443609,27.5639098 L36.443609,27.5639098 Z M36.443609,28.8270677 L16.112782,28.8270677 L16.112782,30.8721805 L36.443609,30.8721805 L36.443609,28.8270677 L36.443609,28.8270677 Z M16.112782,34.1804511 L36.443609,34.1804511 L36.443609,32.1353383 L16.112782,32.1353383 L16.112782,34.1804511 Z M11,40.6165414 L11,36.406015 C11,36.406015 11,36.406015 11,36.3458647 L11,13.1278195 C11,11.3834586 12.443609,10 14.1278195,10 L51.1804511,10 C52.924812,10 54.3082707,11.443609 54.3082707,13.1278195 L54.3082707,15.8947368 L54.0075188,15.8947368 C53.2857143,15.9548872 52.6240602,16.075188 51.9022556,16.3157895 L51.7819549,16.3759398 L51.7819549,16.3759398 L51.7218045,16.3759398 L51.7218045,13.1278195 C51.7218045,12.8270677 51.481203,12.5864662 51.1804511,12.5864662 L14.1278195,12.5864662 C13.8270677,12.5864662 13.5864662,12.8270677 13.5864662,13.1278195 L13.5864662,36.3458647 C13.5864662,36.6466165 13.8270677,36.887218 14.1278195,36.887218 L45.7067669,36.887218 C43.8421053,37.9699248 41.3157895,39.5338346 38.8496241,41.518797 C37.5864662,42.5413534 36.8646617,44.1052632 36.8646617,45.7293233 L36.8646617,50 L36.8646617,50 L23.3909774,50 C22.7293233,50 22.1879699,49.4586466 22.1879699,48.7969925 C22.1879699,48.1353383 22.7293233,47.593985 23.3909774,47.593985 L23.2706767,47.593985 C27.481203,47.0526316 27.8421053,44.2255639 27.8421053,43.6240602 L13.7669173,43.6240602 C12.2631579,43.6240602 11.0601504,42.4210526 11,40.9774436 L11,40.9774436 L11,40.9172932 L11,40.8571429 L11,40.6165414 C11,40.6766917 11,40.6165414 11,40.6165414 Z M31.1503759,40.556391 C31.1503759,41.3984962 31.8120301,42.1203008 32.7142857,42.1203008 C33.556391,42.1203008 34.2781955,41.4586466 34.2781955,40.556391 C34.2781955,39.6541353 33.4962406,39.0526316 32.6541353,39.0526316 C31.8120301,39.0526316 31.1503759,39.7142857 31.1503759,40.556391 Z M47.6917293,19.1428571 C48.1729323,18.6616541 48.7142857,18.1804511 49.2556391,17.7593985 L49.2556391,15.2330827 L16.112782,15.2330827 L16.112782,22.8721805 L45.406015,22.8721805 C45.8270677,21.4887218 46.6090226,20.2255639 47.6917293,19.1428571 Z M46.1879699,33.7593985 C45.3458647,32.8571429 44.9849624,31.5338346 44.8045113,30.8120301 C44.443609,29.6090226 44.1428571,27.8045113 45.0451128,26.481203 C44.9849624,26.1804511 44.9849624,25.8796992 44.9849624,25.5789474 L39.3909774,25.5789474 L39.3909774,34.2406015 L46.3684211,34.2406015 C46.3082707,34.0601504 46.2481203,33.8796992 46.1879699,33.7593985 Z M49.3157895,37.7894737 C48.4736842,38.2105263 44.3233083,40.3157895 40.4736842,43.443609 C39.8120301,43.9849624 39.3909774,44.887218 39.3909774,45.7293233 L39.3909774,50 L52.5037594,50 L53.8270677,44.0451128 C51.1804511,40.3759398 54.0075188,40.1954887 54.4887218,40.1954887 L54.4887218,40.1954887 L54.4887218,40.1954887 C54.9699248,40.1954887 57.7969925,40.3759398 55.1503759,44.0451128 L56.4736842,50 L69.5864662,50 L69.5864662,45.7293233 C69.5864662,44.8270677 69.1654135,43.9849624 68.5037594,43.443609 C64.6541353,40.2556391 60.5037594,38.1503759 59.6616541,37.7894737 C59.5413534,37.7293233 59.481203,37.6691729 59.481203,37.5488722 L59.481203,34.962406 C59.8421053,34.1804511 60.0827068,33.3383459 60.2030075,32.556391 C60.5639098,32.7969925 61.1052632,32.6766917 61.7669173,30.4511278 C62.3082707,28.6466165 61.9473684,28.0451128 61.5263158,27.8646617 C62.9699248,21.0075188 59.6616541,20.7669173 59.6616541,20.7669173 C59.6616541,20.7669173 59.1804511,19.8045113 57.8571429,19.0827068 C56.9548872,18.5413534 55.7518797,18.1804511 54.1879699,18.3007519 C53.6466165,18.3007519 53.1654135,18.4210526 52.7443609,18.6015038 L52.7443609,18.6015038 C52.1428571,18.7819549 51.6015038,19.0827068 51.1203008,19.443609 C50.518797,19.8045113 49.9774436,20.2857143 49.4360902,20.8270677 C48.6541353,21.6090226 47.9323308,22.6917293 47.6315789,23.9548872 C47.3308271,25.037594 47.3308271,26.2406015 47.8120301,27.5037594 C47.2105263,27.443609 46.5488722,27.8045113 47.2105263,30.0902256 C47.6917293,31.7744361 48.112782,32.2556391 48.4736842,32.2556391 C48.593985,33.2180451 48.9548872,34.3007519 49.4962406,35.2631579 L49.4962406,37.4887218 C49.4962406,37.6691729 49.4360902,37.7293233 49.3157895,37.7894737 Z" id="Shape"></path>
        </g>
    </g>
</svg>