<?xml version="1.0" encoding="utf-8"?>
<!-- Generator: Adobe Illustrator 16.0.0, SVG Export Plug-In . SVG Version: 6.00 Build 0)  -->
<!DOCTYPE svg PUBLIC "-//W3C//DTD SVG 1.1//EN" "http://www.w3.org/Graphics/SVG/1.1/DTD/svg11.dtd">
<svg version="1.1" id="Layer_1" xmlns="http://www.w3.org/2000/svg" xmlns:xlink="http://www.w3.org/1999/xlink" x="0px" y="0px"
	 width="114px" height="114px" viewBox="0 0 114 114" enable-background="new 0 0 114 114" xml:space="preserve">
<g>
	<path fill="none" stroke="#225E82" stroke-width="4" stroke-linecap="round" stroke-linejoin="round" d="M73.246,12.47
		c-1.783-0.121-3.332,1.223-3.459,3.01c-0.123,1.787,1.104,2.539,3.01,3.435c1.908,0.894,4.859,2.563,4.67,5.299"/>
	<path fill="#225E82" d="M68.494,37.462c0,0,0-5.981,0-7.646s0.912-2.582,2.506-2.582c1.596,0,4.715,0,6.172,0
		c1.455,0,2.396,0.918,2.396,2.791c0,1.871,0,18.555,0,18.555"/>
	<path fill="#225E82" d="M25.595,55.959c2.359-2.36,23.578-23.577,26.051-26.051c2.475-2.474,6.346-1.814,8.112-0.048
		c1.77,1.769,24.148,24.148,26.227,26.225c2.731,2.729,3.252,5.272-1.844,5.272c-5.1,0-52.208,0.004-56.521,0.004
		C23.301,61.361,22.474,59.079,25.595,55.959z"/>
	<path fill="#225E82" d="M28.917,62.219c0,0,0,19.424,0,22.475c0,3.052,2.424,5.793,5.127,5.793c2.705,0,14.538,0,14.538,0V75.419
		h14.327v15.065c0,0,8.853,0,12.594,0c5.34,0,6.997-2.604,6.997-7.526c0-3.604,0-20.737,0-20.737"/>
	
		<line fill="none" stroke="#FFFFFF" stroke-width="3.5" stroke-linecap="round" stroke-linejoin="round" x1="53.651" y1="36.187" x2="34.033" y2="55.808"/>
	
		<line fill="none" stroke="#FFFFFF" stroke-width="3.5" stroke-linecap="round" stroke-linejoin="round" x1="53.651" y1="43.754" x2="41.599" y2="55.808"/>
</g>
</svg>
