<?xml version="1.0" encoding="utf-8"?>
<!-- Generator: Adobe Illustrator 16.0.0, SVG Export Plug-In . SVG Version: 6.00 Build 0)  -->
<!DOCTYPE svg PUBLIC "-//W3C//DTD SVG 1.1//EN" "http://www.w3.org/Graphics/SVG/1.1/DTD/svg11.dtd">
<svg version="1.1" id="Layer_1" xmlns="http://www.w3.org/2000/svg" xmlns:xlink="http://www.w3.org/1999/xlink" x="0px" y="0px"
	 width="164px" height="164px" viewBox="0 0 164 164" enable-background="new 0 0 164 164" xml:space="preserve">
<g>
	<g>
		<g>
			<g transform="translate(0,-952.36218)">
				<g>
					<path fill="#225E82" d="M-92.372,1080.159h-20c-1.027,0-1.895-0.867-1.895-1.895v-2.771c-1.461-1.482-3.444-3.596-5.157-5.968
						c-2.467-3.415-3.667-6.329-3.667-8.909v-4.705c0-2.914,1.956-5.424,4.706-6.244v-17.287c0-2.99,2.433-5.423,5.424-5.423
						c2.991,0,5.424,2.433,5.424,5.423v9.534c0.521-0.165,1.071-0.251,1.636-0.251c2.446,0,4.521,1.629,5.193,3.859
						c0.59-0.217,1.218-0.33,1.865-0.33c2.446,0,4.521,1.629,5.192,3.859c0.59-0.219,1.219-0.33,1.864-0.33
						c2.991,0,5.425,2.434,5.425,5.425v7.647c0,3.984-1.457,7.771-4.117,10.717v5.754
						C-90.479,1079.292-91.346,1080.159-92.372,1080.159z"/>
				</g>
			</g>
			<g>
				<rect x="-118.385" y="98.365" fill="#225E82" width="2.611" height="7.92"/>
			</g>
		</g>
		<g>
			<path fill="#225E82" d="M-74.529,92.143c-8.25,0-14.961-6.711-14.961-14.958c0-8.25,6.711-14.961,14.961-14.961
				c8.248,0,14.961,6.711,14.961,14.961C-59.568,85.432-66.281,92.143-74.529,92.143z"/>
		</g>
		<g>
			<path fill="#225E82" d="M-139.475,91.904c-8.249,0-14.96-6.711-14.96-14.959c0-8.25,6.711-14.961,14.96-14.961
				c8.25,0,14.96,6.711,14.96,14.961C-124.514,85.193-131.225,91.904-139.475,91.904z"/>
		</g>
		<g>
			<path fill="#225E82" d="M-106.156,71.191c-10.706,0-19.416-8.709-19.416-19.416s8.709-19.416,19.416-19.416
				c10.705,0,19.414,8.709,19.414,19.416S-95.451,71.191-106.156,71.191z"/>
		</g>
		<g>
			<rect x="-140.589" y="71.029" fill="#FFFFFF" width="2.137" height="12.661"/>
		</g>
		<g>
			<rect x="-145.388" y="76.291" fill="#FFFFFF" width="11.828" height="2.139"/>
		</g>
		<g>
			<path fill="#FFFFFF" d="M-102.915,49.407c-0.36,2.776-2.556,4.471-5.665,4.638c2,2.083,4.305,4.831,6.525,7.581h-3.693
				c-1.86-2.25-3.971-4.776-6.358-7.331v-2.333h1.639c2.638,0,4.026-1.026,4.304-2.555h-5.942v-1.694h5.831
				c-0.417-1.25-1.666-1.971-3.804-1.971h-2.027v-2.416h12.302v1.693h-4.442c0.692,0.64,1.166,1.527,1.333,2.693h3.139v1.694
				L-102.915,49.407L-102.915,49.407z"/>
		</g>
		<g>
			<rect x="-79.848" y="76.291" fill="#FFFFFF" width="11.828" height="2.139"/>
		</g>
	</g>
	<circle fill="none" stroke="#225E82" stroke-width="3" stroke-miterlimit="10" cx="-105" cy="77" r="63.167"/>
</g>
<g>
	<path fill="none" stroke="#225E82" stroke-width="3" stroke-miterlimit="10" d="M151.368,136.118c0,6.511-5.278,11.79-11.79,11.79
		H27.969c-6.51,0-11.789-5.279-11.789-11.79V30.8c0-6.513,5.279-11.791,11.789-11.791h111.609c6.512,0,11.791,5.278,11.791,11.791
		L151.368,136.118L151.368,136.118z"/>
	<g>
		<g>
			<g>
				<path fill="#225E82" d="M65.9,57.55c-0.406,0-0.817-0.136-1.154-0.41L49.665,44.823L34.586,57.14
					c-0.78,0.636-1.931,0.521-2.568-0.26c-0.639-0.781-0.523-1.932,0.258-2.569l17.39-14.203l17.392,14.203
					c0.779,0.635,0.896,1.788,0.258,2.569C66.954,57.321,66.43,57.55,65.9,57.55z"/>
			</g>
		</g>
		<g>
			<g>
				<path fill="#225E82" d="M60.02,52.745c-1.009,0-1.826-0.816-1.826-1.826v-8.452c0-1.01,0.817-1.825,1.826-1.825
					c1.008,0,1.824,0.815,1.824,1.825v8.452C61.844,51.929,61.027,52.745,60.02,52.745z"/>
			</g>
		</g>
		<g>
			<g>
				<path fill="#225E82" d="M135.295,45.771c-0.407,0-0.816-0.136-1.154-0.411l-15.078-12.315l-15.08,12.315
					c-0.778,0.639-1.93,0.521-2.57-0.259c-0.639-0.782-0.521-1.933,0.261-2.571l17.39-14.2l17.388,14.2
					c0.781,0.638,0.9,1.788,0.262,2.571C136.348,45.543,135.821,45.771,135.295,45.771z"/>
			</g>
		</g>
		<g>
			<g>
				<path fill="#225E82" d="M129.414,40.968c-1.012,0-1.83-0.817-1.83-1.827V30.69c0-1.009,0.821-1.828,1.83-1.828
					c1.006,0,1.823,0.818,1.823,1.828v8.451C131.237,40.151,130.42,40.968,129.414,40.968z"/>
			</g>
		</g>
		<g>
			<g>
				<path fill="#225E82" d="M100.801,72.17c-0.405,0-0.816-0.134-1.153-0.41L84.568,59.443L69.49,71.76
					c-0.783,0.636-1.934,0.523-2.572-0.259c-0.637-0.784-0.521-1.934,0.258-2.57l17.393-14.201l17.389,14.201
					c0.781,0.637,0.897,1.787,0.257,2.57C101.856,71.944,101.33,72.17,100.801,72.17z"/>
			</g>
		</g>
		<g>
			<g>
				<path fill="#225E82" d="M94.92,67.369c-1.01,0-1.829-0.818-1.829-1.828v-8.453c0-1.009,0.819-1.826,1.829-1.826
					c1.008,0,1.824,0.816,1.824,1.826v8.453C96.747,66.55,95.928,67.369,94.92,67.369z"/>
			</g>
		</g>
		<g>
			<path fill="#225E82" d="M55.528,103.569c0-8.461,3.567-12.584,4.4-14.013c0.831-1.433,1.781-2.277,2.841-3.536l0.006-26.647
				L49.385,48.617L36.336,59.388l0.416,79.198h26.003l0.006-15.826c-1.06-1.259-2.587-2.673-3.479-4.401
				C57.924,115.728,55.528,112.459,55.528,103.569z"/>
		</g>
		<g>
			<path fill="#225E82" d="M110.018,117.459c-0.807,1.569-1.754,3.047-2.829,4.429l0.038,16.698h23.604l0.006-92.059l-12.064-9.688
				L107.02,46.6l0.091,40.208c1.08,1.375,2.538,3.142,3.354,4.702c0.764,1.274,3.149,4.855,3.149,11.336
				C114.117,110.363,110.018,117.459,110.018,117.459"/>
		</g>
		<g>
			<g>
				<path fill="#225E82" d="M93.016,77.012c1.167,0.424,3.42,1.386,4.338,1.845v-5.114l-13.071-10.5l-12.28,10.196v5.422
					c0.92-0.461,1.863-0.93,3.104-1.43c2.703-1.088,5.701-1.712,9.574-1.712C87.941,75.719,91.557,76.485,93.016,77.012z"/>
			</g>
			<g>
				<path fill="#225E82" d="M74.842,131.167c-1.13-0.528-1.92-0.772-2.84-1.229v8.647h25.351v-8.646
					c-0.918,0.454-1.599,0.786-2.844,1.227c-1.241,0.446-4.95,1.576-9.542,1.576C81.889,132.743,76.783,132.073,74.842,131.167z"/>
			</g>
		</g>
		<g>
			<path fill="#225E82" d="M84.566,129.293c-13.717,0-24.879-11.16-24.879-24.878c0-13.72,11.162-24.876,24.879-24.876
				c13.719,0,24.88,11.161,24.88,24.876C109.446,118.133,98.285,129.293,84.566,129.293z"/>
		</g>
		<g>
			<path fill="#FFFFFF" d="M88.594,100.245c-0.408,4.158-3.711,6.805-8.932,6.972c3.18,3.306,6.646,7.464,10.074,11.664H85.82
				c-3.182-3.833-6.158-7.381-9.992-11.459v-2.527h2.242c4.403,0,6.766-1.839,7.056-4.649h-9.298v-2.039h9.175
				c-0.567-2.369-2.732-3.547-6.28-3.547h-2.895v-2.652h17.127v2.036H86.27c1.181,0.939,2.037,2.285,2.281,4.163h4.446v2.039H88.594
				L88.594,100.245z"/>
		</g>
	</g>
</g>
</svg>
