<?xml version="1.0" encoding="utf-8"?>
<!-- Generator: Adobe Illustrator 16.0.0, SVG Export Plug-In . SVG Version: 6.00 Build 0)  -->
<!DOCTYPE svg PUBLIC "-//W3C//DTD SVG 1.1//EN" "http://www.w3.org/Graphics/SVG/1.1/DTD/svg11.dtd">
<svg version="1.1" id="Layer_1" xmlns="http://www.w3.org/2000/svg" xmlns:xlink="http://www.w3.org/1999/xlink" x="0px" y="0px"
	 width="114px" height="114px" viewBox="0 0 114 114" enable-background="new 0 0 114 114" xml:space="preserve">
<g>
	<path id="XMLID_1_" fill="#225E82" stroke="#225E82" stroke-miterlimit="10" d="M-83.42,45.331c0,0,0-1.426-1.427-1.426
		c-1.426,0-6.418,0-6.418,2.852c0,2.854,7.845,2.854,7.845,2.854V45.331z"/>
	<path fill="none" stroke="#225E82" stroke-width="3" stroke-linejoin="round" stroke-miterlimit="10" d="M-55.894,79.564"/>
	<path fill="none" stroke="#225E82" stroke-width="3" stroke-linejoin="round" stroke-miterlimit="10" d="M-50.189,61.022"/>
	<path fill="none" stroke="#225E82" stroke-width="3" stroke-linejoin="round" stroke-miterlimit="10" d="M-53.754,49.609"/>
	<path fill="#225E82" stroke="#225E82" stroke-miterlimit="10" d="M-24.088,45.331c0,0,0-1.426,1.427-1.426
		c1.429,0,6.419,0,6.419,2.852c0,2.854-7.846,2.854-7.846,2.854V45.331z"/>
	<path fill="#225E82" d="M-23.8,79.564c5.063,0,4.991-5.705,4.991-5.705v-17.83c0-2.141-2.854-2.854-2.854-2.854
		c0-3.566-4.276-3.566-4.276-3.566s-5.992-10.911-8.485-14.191c-2.214-2.926-12.91-2.926-12.91-2.926h-12.837
		c0,0-10.698,0-12.768,2.782c-2.495,3.353-8.628,14.335-8.628,14.335s-4.279,0-4.279,3.566c0,0-2.854,0.713-2.854,2.854v17.83
		c0,0-0.07,5.705,4.992,5.705H-23.8L-23.8,79.564z"/>
	<path fill="none" stroke="#225E82" stroke-width="3" stroke-linejoin="round" stroke-miterlimit="10" d="M-51.615,79.564"/>
	<path fill="none" stroke="#225E82" stroke-width="3" stroke-linejoin="round" stroke-miterlimit="10" d="M-57.32,61.022"/>
	<path fill="none" stroke="#225E82" stroke-width="3" stroke-linejoin="round" stroke-miterlimit="10" d="M-53.754,49.609"/>
	<path fill="none" stroke="#FFFFFF" stroke-miterlimit="10" d="M-28.791,54.943l-7.848,3.564l-2.137,3.565L-34.5,63.5l7.846-1.427
		c0,0,2.281,0,1.428-4.278C-25.939,54.232-26.938,54.302-28.791,54.943z"/>
	<path fill="none" stroke="#FFFFFF" stroke-miterlimit="10" d="M-78.716,54.843l7.846,3.565l2.141,3.565l-4.279,1.427l-7.845-1.427
		c0,0-2.282,0-1.428-4.278C-81.568,54.132-80.57,54.203-78.716,54.843z"/>
	<path fill="#225E82" d="M-22.234,78.139v5.705c0,0,0,2.139-2.141,2.139c-2.139,0-6.418,0-6.418,0s-2.141,0-2.141-2.139
		s0-4.279,0-4.279"/>
	<path fill="#225E82" d="M-85.492,78.139v5.705c0,0,0,2.139,2.141,2.139c2.14,0,6.418,0,6.418,0s2.14,0,2.14-2.139
		c0-4.256,0-1.618,0-4.279"/>
	
		<line fill="none" stroke="#FFFFFF" stroke-width="0.5" stroke-linejoin="round" stroke-miterlimit="10" x1="-69.444" y1="61.734" x2="-56.607" y2="61.734"/>
	
		<circle fill="none" stroke="#FFFFFF" stroke-width="0.5" stroke-linejoin="round" stroke-miterlimit="10" cx="-53.754" cy="61.021" r="2.854"/>
	
		<line fill="none" stroke="#FFFFFF" stroke-width="0.5" stroke-linejoin="round" stroke-miterlimit="10" x1="-38.572" y1="61.734" x2="-51.002" y2="61.734"/>
	<path fill="none" stroke="#FFFFFF" stroke-width="0.5" stroke-miterlimit="10" d="M-30.221,74.574c0,0,2.855,0,2.855-2.854
		c0-2.854-2.855-2.854-2.855-2.854H-77.29c0,0-2.852,0-2.852,2.854c0,2.854,2.852,2.854,2.852,2.854H-30.221z"/>
</g>
<path fill="none" stroke="#FFFFFF" stroke-width="0.5" stroke-miterlimit="10" d="M-33.996,42.774
	c4.796,7.546-3.564,6.835-7.96,6.835h-23.677c-4.396,0-12.691,0.705-7.96-6.835l0,0c2.404-4.022,3.564-6.835,7.96-6.835h23.677
	C-37.561,35.939-36.068,39-33.996,42.774L-33.996,42.774z"/>
<g>
	<path fill="none" stroke="#225E82" stroke-width="3" stroke-miterlimit="10" d="M103.977,92.122c0,4.445-3.604,8.051-8.05,8.051
		H19.718c-4.446,0-8.051-3.605-8.051-8.051V20.208c0-4.446,3.604-8.051,8.051-8.051h76.209c4.446,0,8.051,3.604,8.051,8.051
		L103.977,92.122L103.977,92.122z"/>
	<g>
		<g>
			<g>
				<path fill="#225E82" d="M45.617,38.474c-0.277,0-0.558-0.092-0.788-0.28l-10.297-8.41l-10.297,8.41
					c-0.532,0.436-1.318,0.355-1.753-0.178c-0.436-0.533-0.358-1.319,0.176-1.754l11.875-9.698l11.875,9.698
					c0.533,0.434,0.612,1.22,0.176,1.754C46.337,38.317,45.978,38.474,45.617,38.474z"/>
			</g>
		</g>
		<g>
			<g>
				<path fill="#225E82" d="M41.602,35.193c-0.688,0-1.246-0.557-1.246-1.247v-5.771c0-0.689,0.558-1.247,1.246-1.247
					c0.688,0,1.246,0.557,1.246,1.247v5.771C42.848,34.636,42.29,35.193,41.602,35.193z"/>
			</g>
		</g>
		<g>
			<g>
				<path fill="#225E82" d="M93.002,30.432c-0.279,0-0.559-0.093-0.79-0.282l-10.294-8.409L71.621,30.15
					c-0.533,0.436-1.318,0.356-1.755-0.176c-0.437-0.534-0.357-1.319,0.177-1.755l11.875-9.697l11.873,9.697
					c0.532,0.436,0.613,1.22,0.178,1.755C93.721,30.275,93.361,30.432,93.002,30.432z"/>
			</g>
		</g>
		<g>
			<g>
				<path fill="#225E82" d="M88.985,27.151c-0.689,0-1.247-0.558-1.247-1.247v-5.771c0-0.688,0.559-1.248,1.247-1.248
					s1.245,0.558,1.245,1.248v5.771C90.23,26.593,89.674,27.151,88.985,27.151z"/>
			</g>
		</g>
		<g>
			<g>
				<path fill="#225E82" d="M69.448,48.457c-0.277,0-0.558-0.091-0.788-0.281l-10.296-8.409l-10.296,8.409
					c-0.535,0.436-1.32,0.358-1.756-0.177c-0.435-0.534-0.356-1.32,0.176-1.754l11.875-9.698l11.873,9.698
					c0.533,0.435,0.614,1.22,0.176,1.754C70.169,48.302,69.809,48.457,69.448,48.457z"/>
			</g>
		</g>
		<g>
			<g>
				<path fill="#225E82" d="M65.433,45.178c-0.69,0-1.248-0.559-1.248-1.248v-5.772c0-0.688,0.558-1.246,1.248-1.246
					c0.688,0,1.245,0.558,1.245,1.246v5.772C66.68,44.619,66.121,45.178,65.433,45.178z"/>
			</g>
		</g>
		<g>
			<path fill="#225E82" d="M38.535,69.896c0-5.776,2.436-8.594,3.004-9.568c0.567-0.976,1.216-1.556,1.94-2.413l0.004-18.196
				l-9.144-7.344l-8.91,7.355l0.285,54.078h17.754l0.004-10.806c-0.723-0.858-1.766-1.825-2.376-3.006
				C40.171,78.2,38.535,75.966,38.535,69.896z"/>
		</g>
		<g>
			<path fill="#225E82" d="M75.741,79.382c-0.551,1.071-1.198,2.08-1.931,3.023l0.025,11.402h16.117l0.004-62.86l-8.236-6.615
				l-8.026,6.665l0.062,27.455c0.737,0.939,1.733,2.144,2.289,3.209c0.523,0.871,2.152,3.318,2.152,7.741
				C78.54,74.536,75.741,79.382,75.741,79.382"/>
		</g>
		<g>
			<g>
				<path fill="#225E82" d="M64.132,51.763c0.797,0.289,2.336,0.946,2.965,1.26V49.53l-8.928-7.17l-8.385,6.963v3.702
					c0.628-0.314,1.271-0.635,2.118-0.975c1.846-0.743,3.894-1.17,6.54-1.17C60.668,50.88,63.135,51.403,64.132,51.763z"/>
			</g>
			<g>
				<path fill="#225E82" d="M51.724,88.742c-0.773-0.362-1.312-0.527-1.939-0.84v5.905h17.311v-5.903
					c-0.629,0.312-1.094,0.538-1.941,0.839c-0.85,0.304-3.382,1.074-6.517,1.074C56.534,89.817,53.048,89.361,51.724,88.742z"/>
			</g>
		</g>
		<g>
			<path fill="#225E82" d="M58.363,87.461c-9.367,0-16.988-7.62-16.988-16.987c0-9.368,7.622-16.986,16.988-16.986
				c9.368,0,16.988,7.622,16.988,16.986C75.352,79.841,67.731,87.461,58.363,87.461z"/>
		</g>
		<g>
			<path fill="#FFFFFF" d="M61.113,67.626c-0.28,2.841-2.535,4.649-6.099,4.762c2.172,2.256,4.538,5.097,6.877,7.964h-2.673
				c-2.173-2.617-4.205-5.039-6.823-7.823v-1.727h1.532c3.006,0,4.62-1.254,4.817-3.176h-6.349v-1.392h6.266
				c-0.388-1.616-1.865-2.422-4.289-2.422h-1.977v-1.81h11.696v1.39h-4.566c0.808,0.643,1.392,1.562,1.56,2.842h3.036v1.392H61.113
				L61.113,67.626z"/>
		</g>
	</g>
</g>
</svg>
